<?xml version="1.0" encoding="UTF-8"?>
<svg version="1.1" xmlns="http://www.w3.org/2000/svg" width="1920" height="399">
<path d="M0 0 C1.2181414 -0.00972839 1.2181414 -0.00972839 2.46089172 -0.01965332 C4.36622928 -0.02121011 6.27149047 0.03058145 8.17578125 0.09375 C8.50578125 0.42375 8.83578125 0.75375 9.17578125 1.09375 C11.55146645 1.1821467 13.89786799 1.20905305 16.2734375 1.19140625 C16.98229599 1.1899913 17.69115448 1.18857635 18.42149353 1.18711853 C20.69379837 1.18150443 22.966006 1.16894963 25.23828125 1.15625 C26.77538921 1.15123681 28.3124987 1.14667359 29.84960938 1.14257812 C33.62503767 1.13153042 37.40039296 1.11425641 41.17578125 1.09375 C41.17578125 1.75375 41.17578125 2.41375 41.17578125 3.09375 C41.81386719 3.00996094 42.45195312 2.92617188 43.109375 2.83984375 C43.93566406 2.73800781 44.76195312 2.63617187 45.61328125 2.53125 C46.43699219 2.42683594 47.26070313 2.32242187 48.109375 2.21484375 C48.79128906 2.17488281 49.47320312 2.13492187 50.17578125 2.09375 C50.50578125 2.42375 50.83578125 2.75375 51.17578125 3.09375 C54.16444767 3.19386296 57.12488578 3.23248975 60.11328125 3.21875 C60.95052734 3.22261719 61.78777344 3.22648437 62.65039062 3.23046875 C63.45154297 3.22917969 64.25269531 3.22789063 65.078125 3.2265625 C66.18401978 3.22487061 66.18401978 3.22487061 67.31225586 3.22314453 C69.26909726 3.20716854 69.26909726 3.20716854 71.17578125 2.09375 C73.05078125 1.92578125 73.05078125 1.92578125 75.17578125 1.90625 C76.22765625 1.88498047 76.22765625 1.88498047 77.30078125 1.86328125 C79.17578125 2.09375 79.17578125 2.09375 81.17578125 4.09375 C87.12384685 5.12029237 93.04123698 5.29658089 99.06640625 5.41015625 C100.50385193 5.44153183 100.50385193 5.44153183 101.97033691 5.47354126 C105.12206904 5.53994029 108.27387189 5.59891289 111.42578125 5.65625 C112.50782837 5.67676422 113.58987549 5.69727844 114.70471191 5.71841431 C131.29407521 6.02730566 147.88423428 6.22032302 164.47644043 6.26998901 C166.76787564 6.27746981 169.05930277 6.28812821 171.35070801 6.30203247 C174.55810014 6.31981226 177.76522081 6.324059 180.97265625 6.32421875 C182.39439148 6.33492905 182.39439148 6.33492905 183.84484863 6.34585571 C187.62668003 6.33284383 190.60206093 6.29882944 194.18847656 5.0168457 C197.8724678 3.87846953 200.55163861 4.29206303 204.33511353 4.77175903 C209.71240649 5.38127761 215.12500301 5.41202957 220.53125 5.55859375 C223.11914787 5.6371315 225.70703828 5.71591529 228.29492188 5.79492188 C232.32517121 5.91492443 236.35550345 6.03142758 240.38598633 6.14331055 C267.00148422 6.89462673 267.00148422 6.89462673 278.36254883 8.68139648 C282.10927569 9.23057827 285.64283351 9.25860248 289.42578125 9.15625 C295.89259541 8.99935472 295.89259541 8.99935472 299.17578125 10.09375 C300.55922534 10.2273928 301.94726282 10.31702935 303.3359375 10.375 C304.52606445 10.43107422 304.52606445 10.43107422 305.74023438 10.48828125 C307.40949827 10.55875838 309.07876915 10.62907011 310.74804688 10.69921875 C311.54017578 10.73660156 312.33230469 10.77398437 313.1484375 10.8125 C314.23523804 10.85793945 314.23523804 10.85793945 315.34399414 10.90429688 C317.17578125 11.09375 317.17578125 11.09375 319.17578125 12.09375 C321.21325755 12.32233114 323.25618428 12.50399278 325.30078125 12.65625 C326.94433594 12.78193359 326.94433594 12.78193359 328.62109375 12.91015625 C329.88566406 13.00103516 329.88566406 13.00103516 331.17578125 13.09375 C330.84578125 12.43375 330.51578125 11.77375 330.17578125 11.09375 C328.95846313 11.07187622 328.95846313 11.07187622 327.71655273 11.04956055 C324.01499932 10.97477368 320.31431746 10.87821239 316.61328125 10.78125 C314.69805664 10.74741211 314.69805664 10.74741211 312.74414062 10.71289062 C306.20279682 10.52599509 300.93794952 10.32576318 295.17578125 7.09375 C295.50578125 5.44375 295.83578125 3.79375 296.17578125 2.09375 C299.44659479 2.06414369 302.71737286 2.04675194 305.98828125 2.03125 C306.89771484 2.02287109 307.80714844 2.01449219 308.74414062 2.00585938 C314.29331858 1.98625097 319.70806902 2.28741653 325.22729492 2.84204102 C332.17960041 3.43555157 339.17193631 3.50146658 346.14453125 3.69921875 C347.335625 3.73660156 348.52671875 3.77398437 349.75390625 3.8125 C351.35347168 3.85793945 351.35347168 3.85793945 352.98535156 3.90429688 C356.17578125 4.09375 356.17578125 4.09375 359.2409668 4.58007812 C364.99935301 5.33180888 370.75355228 5.42731634 376.5546875 5.59375 C378.51873782 5.65579232 380.48278802 5.71783916 382.4468298 5.78015137 C386.57164163 5.90977035 390.69666389 6.03250268 394.82165527 6.15625 C398.22696331 6.25864723 401.63220581 6.36261159 405.03733826 6.47070312 C407.58480062 6.55123477 410.13237889 6.62819859 412.68006897 6.70117188 C413.83824631 6.73791016 414.99642365 6.77464844 416.18969727 6.8125 C417.20338882 6.84279297 418.21708038 6.87308594 419.26148987 6.90429688 C422.28727659 7.10099812 425.19069954 7.57233779 428.17578125 8.09375 C430.42783784 8.22460705 432.6824198 8.3158751 434.9375 8.375 C436.22205078 8.41238281 437.50660156 8.44976562 438.83007812 8.48828125 C440.17446823 8.52385317 441.51886946 8.55900732 442.86328125 8.59375 C457.608334 8.98501921 457.608334 8.98501921 463.2890625 9.58984375 C472.38057506 10.49622038 481.54753183 10.47277324 490.67578125 10.65625 C492.69474359 10.69983486 494.71370518 10.74345485 496.73266602 10.78710938 C508.93419002 11.04116568 521.127888 11.1966622 533.33203125 11.05688477 C534.78416016 11.04419556 534.78416016 11.04419556 536.265625 11.03125 C537.48560181 11.01384766 537.48560181 11.01384766 538.73022461 10.99609375 C541.17578125 11.09375 541.17578125 11.09375 543.94146919 11.59122658 C547.14342637 12.08872294 550.13242609 12.22395623 553.37033081 12.23178101 C554.59233688 12.23723434 555.81434296 12.24268768 557.07337952 12.24830627 C558.41464228 12.24942588 559.7559051 12.25047643 561.09716797 12.25146484 C562.52035172 12.25613819 563.94353399 12.26128261 565.36671448 12.26686096 C568.42611423 12.27811206 571.48550442 12.28656093 574.54491806 12.29298019 C579.39734206 12.30371054 584.24969756 12.32397179 589.1020813 12.34609985 C602.89907665 12.40784505 616.69606835 12.4618927 630.49316406 12.49511719 C638.11769009 12.51355766 645.74210141 12.54261392 653.36654294 12.5831219 C657.39228786 12.60404212 661.41788915 12.61962756 665.44369125 12.62192917 C669.2408596 12.62410259 673.03772945 12.64024055 676.83480644 12.66631889 C678.86414335 12.67675102 680.89353898 12.672802 682.92289734 12.6681366 C691.15521865 12.74118148 698.69073682 13.76201362 706.69799995 15.5253849 C710.78220014 16.19285552 713.777832 15.79932641 717.71484375 14.7109375 C722.43426223 13.52733731 727.33301862 13.40994412 732.17578125 13.09375 C732.17578125 12.43375 732.17578125 11.77375 732.17578125 11.09375 C737.12578125 11.09375 742.07578125 11.09375 747.17578125 11.09375 C747.17578125 13.09375 747.17578125 15.09375 747.17578125 17.09375 C748.37074219 16.85978516 748.37074219 16.85978516 749.58984375 16.62109375 C751.17925781 16.32912109 751.17925781 16.32912109 752.80078125 16.03125 C754.36699219 15.73541016 754.36699219 15.73541016 755.96484375 15.43359375 C759.2811959 15.08259298 761.91097945 15.53724969 765.17578125 16.09375 C766.35140625 15.3821875 766.35140625 15.3821875 767.55078125 14.65625 C771.25528817 12.45118636 773.91021137 12.87685662 778.17578125 13.09375 C778.17578125 12.43375 778.17578125 11.77375 778.17578125 11.09375 C783.24998628 10.38158087 788.04343424 10.09375 793.17578125 10.09375 C793.50578125 9.76375 793.83578125 9.43375 794.17578125 9.09375 C795.8419524 9.05311168 797.5096622 9.051029 799.17578125 9.09375 C799.50578125 10.08375 799.83578125 11.07375 800.17578125 12.09375 C799.84578125 12.75375 799.51578125 13.41375 799.17578125 14.09375 C800.84640625 14.279375 800.84640625 14.279375 802.55078125 14.46875 C806.17578125 15.09375 806.17578125 15.09375 808.17578125 17.09375 C809.49578125 17.09375 810.81578125 17.09375 812.17578125 17.09375 C812.50578125 16.10375 812.83578125 15.11375 813.17578125 14.09375 C814.45453125 14.10535156 815.73328125 14.11695313 817.05078125 14.12890625 C818.75911311 14.13829269 820.46744657 14.14739197 822.17578125 14.15625 C823.01496094 14.16462891 823.85414062 14.17300781 824.71875 14.18164062 C829.17642364 14.19891843 833.39206805 13.94819721 837.81347656 13.32299805 C843.53226561 12.76802255 849.31106193 12.95176858 855.05078125 12.96875 C856.39453219 12.96518309 857.73828229 12.96127948 859.08203125 12.95703125 C860.98082031 12.95896484 860.98082031 12.95896484 862.91796875 12.9609375 C864.07151855 12.96206543 865.22506836 12.96319336 866.41357422 12.96435547 C869.17578125 13.09375 869.17578125 13.09375 871.17578125 14.09375 C872.68957797 14.00691489 874.19985288 13.85286626 875.70417309 13.66275692 C880.73545223 13.10148179 885.66327822 12.96146533 890.72151184 12.98963928 C892.06476605 12.99099146 892.06476605 12.99099146 893.4351567 12.99237096 C896.37583088 12.99660279 899.31642676 13.00811045 902.25708008 13.01977539 C904.35559155 13.02444236 906.45410398 13.02869923 908.55261707 13.03257084 C914.01993238 13.04408179 919.48720528 13.06204286 924.95449495 13.08217478 C928.04810005 13.0932912 931.14170554 13.10299576 934.23531723 13.11207199 C947.36825404 13.15077668 960.50110508 13.20354737 973.6339643 13.26274753 C976.94545214 13.27766104 980.2569409 13.29235132 983.56842995 13.30699348 C994.05595181 13.35347123 1004.54346896 13.40086564 1015.03098077 13.44956058 C1026.90717375 13.5046844 1038.78337507 13.55659206 1050.65959424 13.60574192 C1060.00566419 13.64463256 1069.35171767 13.68657687 1078.69776469 13.73062855 C1084.20625131 13.75652753 1089.71473609 13.78133098 1095.22324181 13.80282402 C1121.09301557 13.90491273 1146.95066208 14.19331619 1172.8148222 14.75965786 C1183.85758361 14.99843937 1194.88082798 15.12711626 1205.92578125 15.03125 C1215.26538787 14.95938483 1224.48160895 15.3873321 1233.7956543 16.06030273 C1250.57661442 17.20325939 1267.33080122 17.50550389 1284.14557481 17.66746449 C1288.20159428 17.70857307 1292.25748589 17.75989076 1296.31340027 17.81016541 C1303.9490177 17.9035047 1311.58469512 17.98951549 1319.22043675 18.07201141 C1332.93250976 18.22018487 1346.64447998 18.37688774 1360.35634822 18.54293627 C1365.14855026 18.60061732 1369.94077311 18.65362155 1374.73307097 18.70267308 C1377.70980353 18.73392939 1380.68648732 18.76875008 1383.66316986 18.80442619 C1385.67771278 18.82746161 1387.69230417 18.84613234 1389.70689392 18.86462402 C1396.12071557 18.94495595 1402.43760515 19.22095832 1408.81929684 19.86820126 C1411.83033459 20.15639997 1414.82232211 20.24626983 1417.84619141 20.28320312 C1419.03177643 20.29992065 1420.21736145 20.31663818 1421.43887329 20.3338623 C1422.68494354 20.34743774 1423.93101379 20.36101318 1425.21484375 20.375 C1426.54845832 20.39311765 1427.88206633 20.41172365 1429.21566772 20.43078613 C1433.4106503 20.48979981 1437.60570161 20.54217214 1441.80078125 20.59375 C1446.65255123 20.65373337 1451.5042562 20.71666764 1456.35590744 20.78562927 C1458.26356802 20.81146691 1460.17128992 20.83264927 1462.07901001 20.8536377 C1471.49166099 20.98427824 1480.75030431 21.53931018 1490.17578125 22.09375 C1490.17578125 40.90375 1490.17578125 59.71375 1490.17578125 79.09375 C1488.52578125 79.42375 1486.87578125 79.75375 1485.17578125 80.09375 C1485.17578125 80.75375 1485.17578125 81.41375 1485.17578125 82.09375 C1486.82578125 82.09375 1488.47578125 82.09375 1490.17578125 82.09375 C1490.19910676 109.4570771 1490.21675871 136.82040272 1490.22759342 164.18373775 C1490.23275712 176.88803883 1490.23980122 189.59233374 1490.2512207 202.29663086 C1490.26116529 213.36533425 1490.26763414 224.43403318 1490.26986974 235.50274092 C1490.27117724 241.36745828 1490.2742655 247.23216287 1490.28151131 253.09687614 C1490.28826798 258.61003528 1490.29039894 264.12317631 1490.28888893 269.63633919 C1490.28916542 271.66612979 1490.29117263 273.69592097 1490.29498672 275.72570801 C1490.29991846 278.48418917 1490.29878147 281.2426008 1490.29603577 284.00108337 C1490.29894861 284.81526967 1490.30186145 285.62945598 1490.30486256 286.46831459 C1490.28990246 291.97962879 1490.28990246 291.97962879 1489.17578125 293.09375 C1487.5096101 293.13438832 1485.8419003 293.136471 1484.17578125 293.09375 C1484.03140625 292.000625 1483.88703125 290.9075 1483.73828125 289.78125 C1483.3001436 287.80906062 1483.3001436 287.80906062 1482.17578125 286.09375 C1479.29283372 284.56531347 1476.35522201 283.78066621 1473.17578125 283.09375 C1473.17578125 282.10375 1473.17578125 281.11375 1473.17578125 280.09375 C1471.85578125 279.76375 1470.53578125 279.43375 1469.17578125 279.09375 C1468.99402344 279.69703125 1468.81226563 280.3003125 1468.625 280.921875 C1465.76198815 290.02478448 1465.76198815 290.02478448 1463.17578125 292.09375 C1460.17713541 292.83374732 1457.26511816 293.26961358 1454.17578125 293.09375 C1453.51578125 292.43375 1452.85578125 291.77375 1452.17578125 291.09375 C1452.55078125 288.46875 1452.55078125 288.46875 1453.17578125 286.09375 C1452.18578125 285.76375 1451.19578125 285.43375 1450.17578125 285.09375 C1450.17578125 291.69375 1450.17578125 298.29375 1450.17578125 305.09375 C1448.19578125 305.42375 1446.21578125 305.75375 1444.17578125 306.09375 C1443.84578125 308.07375 1443.51578125 310.05375 1443.17578125 312.09375 C1439.84244792 312.09375 1436.50911458 312.09375 1433.17578125 312.09375 C1431.6527487 312.09844549 1430.12971807 312.10378595 1428.60668945 312.10961914 C1423.63875916 312.12748729 1418.67083363 312.13912862 1413.70288086 312.14868164 C1411.55443844 312.15373987 1409.4059995 312.16058469 1407.25756836 312.16918945 C1404.16389116 312.18125288 1401.07025884 312.18697531 1397.9765625 312.19140625 C1397.00995193 312.19656754 1396.04334137 312.20172882 1395.04743958 312.20704651 C1394.15949203 312.20712204 1393.27154449 312.20719757 1392.35668945 312.20727539 C1391.17898735 312.21060631 1391.17898735 312.21060631 1389.97749329 312.21400452 C1388.17578125 312.09375 1388.17578125 312.09375 1387.17578125 311.09375 C1384.74525121 310.96375897 1382.35724323 310.90430037 1379.92578125 310.90625 C1379.21083496 310.90488037 1378.49588867 310.90351074 1377.75927734 310.90209961 C1371.94139779 310.9543792 1366.3728938 311.66799539 1360.65234375 312.75390625 C1358.17578125 313.09375 1358.17578125 313.09375 1356.17578125 312.09375 C1356.17578125 311.43375 1356.17578125 310.77375 1356.17578125 310.09375 C1354.44592883 310.20887153 1352.71689374 310.33630677 1350.98828125 310.46875 C1350.02535156 310.53835938 1349.06242187 310.60796875 1348.0703125 310.6796875 C1344.5102926 311.18894811 1341.25972238 311.7260524 1338.94287109 314.64941406 C1336.24926324 316.85104215 1334.00747788 316.41457925 1330.578125 316.3515625 C1329.92026505 316.34458344 1329.26240509 316.33760437 1328.58460999 316.33041382 C1327.16675323 316.31425951 1325.74895929 316.29153227 1324.33129883 316.26293945 C1320.58055667 316.1882136 1316.8294513 316.16228121 1313.078125 316.1328125 C1312.32244232 316.12578308 1311.56675964 316.11875366 1310.78817749 316.11151123 C1303.90730247 316.06052599 1297.04944959 316.27823057 1290.17578125 316.59375 C1282.13123474 316.96061838 1274.12349579 317.19857985 1266.0703125 317.05664062 C1262.50296926 316.96076397 1262.50296926 316.96076397 1259.17578125 318.09375 C1257.56797022 318.03114497 1255.96249864 317.89617442 1254.36328125 317.71875 C1253.00976562 317.57179688 1253.00976562 317.57179688 1251.62890625 317.421875 C1249.17578125 317.09375 1249.17578125 317.09375 1246.61328125 316.46875 C1243.93389601 315.94492154 1243.93389601 315.94492154 1240.2578125 316.5625 C1234.64222318 317.22554957 1229.07441454 317.24061568 1223.42578125 317.21875 C1222.41128906 317.22261719 1221.39679688 317.22648437 1220.3515625 317.23046875 C1219.37058594 317.22917969 1218.38960937 317.22789062 1217.37890625 317.2265625 C1216.49879883 317.22543457 1215.61869141 317.22430664 1214.71191406 317.22314453 C1212.17578125 317.09375 1212.17578125 317.09375 1209.47558594 316.52294922 C1207.1581822 315.85100281 1207.1581822 315.85100281 1205.17578125 317.09375 C1202.30550785 316.91463778 1199.46630369 316.57693072 1196.609375 316.25 C1193.07915188 315.99438488 1193.07915188 315.99438488 1189.20898438 316.57568359 C1183.54040419 317.23676971 1177.9121452 317.23742076 1172.2109375 317.2265625 C1171.09641708 317.22751923 1169.98189667 317.22847595 1168.83360291 317.22946167 C1166.49478091 317.23013849 1164.15595699 317.22831918 1161.81713867 317.22412109 C1158.22505543 317.21873015 1154.6330952 317.22410112 1151.04101562 317.23046875 C1148.76432264 317.22980858 1146.48762973 317.22852867 1144.2109375 317.2265625 C1143.13393082 317.22858673 1142.05692413 317.23061096 1140.94728088 317.23269653 C1139.95542282 317.22954437 1138.96356476 317.22639221 1137.94165039 317.22314453 C1137.06722794 317.22234894 1136.19280548 317.22155334 1135.29188538 317.22073364 C1133.17578125 317.09375 1133.17578125 317.09375 1131.17578125 316.09375 C1124.00871844 314.95301171 1116.78755513 314.96844756 1109.55078125 315.03125 C1108.04451172 315.03801758 1108.04451172 315.03801758 1106.5078125 315.04492188 C1104.06373654 315.05656033 1101.61979305 315.0729076 1099.17578125 315.09375 C1099.17578125 316.08375 1099.17578125 317.07375 1099.17578125 318.09375 C1089.77078125 318.58875 1089.77078125 318.58875 1080.17578125 319.09375 C1082.13918457 319.1438623 1084.10258789 319.19397461 1086.12548828 319.24560547 C1092.75113708 319.41617584 1099.37661469 319.59251354 1106.00201607 319.77242851 C1110.00306039 319.88088138 1114.00413306 319.98730379 1118.00537109 320.08837891 C1138.77459941 320.61481731 1159.45769493 321.51041183 1180.17578125 323.09375 C1179.80078125 325.53125 1179.80078125 325.53125 1179.17578125 328.09375 C1177.17578125 329.09375 1177.17578125 329.09375 1174.46875 328.625 C1170.95375179 328.0579303 1168.02225999 328.23255357 1164.48828125 328.59375 C1158.49938868 329.20161914 1158.49938868 329.20161914 1155.17578125 328.09375 C1152.06422202 328.30289458 1148.98759198 328.67102801 1145.890625 329.03515625 C1144.54677734 329.06416016 1144.54677734 329.06416016 1143.17578125 329.09375 C1142.51578125 328.43375 1141.85578125 327.77375 1141.17578125 327.09375 C1134.26648528 326.65506454 1127.92888074 327.68001702 1121.17578125 329.09375 C1121.17578125 328.10375 1121.17578125 327.11375 1121.17578125 326.09375 C1119.5096622 326.051029 1117.8419524 326.05311168 1116.17578125 326.09375 C1115.84578125 326.42375 1115.51578125 326.75375 1115.17578125 327.09375 C1113.25 327.26171875 1113.25 327.26171875 1110.86328125 327.28125 C1110.08339844 327.29542969 1109.30351563 327.30960937 1108.5 327.32421875 C1105.94885104 327.07124768 1104.44291307 326.23853934 1102.17578125 325.09375 C1100.04290752 324.85454045 1100.04290752 324.85454045 1097.92578125 324.96875 C1096.06953125 325.030625 1096.06953125 325.030625 1094.17578125 325.09375 C1097.47578125 325.75375 1100.77578125 326.41375 1104.17578125 327.09375 C1104.17578125 328.08375 1104.17578125 329.07375 1104.17578125 330.09375 C1087.67578125 330.42375 1071.17578125 330.75375 1054.17578125 331.09375 C1054.17578125 330.43375 1054.17578125 329.77375 1054.17578125 329.09375 C1053.28890625 329.42375 1052.40203125 329.75375 1051.48828125 330.09375 C1048.4553802 331.00934277 1046.30443176 331.36192004 1043.17578125 331.09375 C1042.84578125 330.76375 1042.51578125 330.43375 1042.17578125 330.09375 C1040.66055708 330.01893335 1039.14192855 330.01052339 1037.625 330.03125 C1036.69880859 330.03898437 1035.77261719 330.04671875 1034.81835938 330.0546875 C1032.86002399 330.08057429 1030.90169062 330.10661409 1028.94335938 330.1328125 C1028.01330078 330.14054687 1027.08324219 330.14828125 1026.125 330.15625 C1025.27252686 330.16785156 1024.42005371 330.17945313 1023.54174805 330.19140625 C1021.2606468 330.09725286 1019.37560931 329.6631696 1017.17578125 329.09375 C1014.43809929 329.04937015 1011.7239205 329.04511641 1008.98828125 329.09375 C1006.37779267 329.13942784 1003.78764334 329.14097011 1001.17578125 329.09375 C1000.84578125 328.76375 1000.51578125 328.43375 1000.17578125 328.09375 C998.84276355 327.99499415 997.50463805 327.96295795 996.16796875 327.9609375 C995.34554688 327.95964844 994.523125 327.95835937 993.67578125 327.95703125 C992.80953125 327.96089844 991.94328125 327.96476562 991.05078125 327.96875 C989.78621094 327.96294922 989.78621094 327.96294922 988.49609375 327.95703125 C984.64722162 327.96300776 981.17389785 328.09409419 977.37109375 328.7890625 C974.17578125 329.09375 974.17578125 329.09375 972.09732056 327.64753723 C967.85754743 325.39266243 963.97303442 325.59373339 959.23583984 325.5378418 C958.23840759 325.51468399 957.24097534 325.49152618 956.21331787 325.46766663 C952.91706967 325.39502997 949.62087482 325.34347332 946.32421875 325.29296875 C944.02599261 325.24857405 941.72778491 325.20321584 939.42959595 325.15693665 C934.60959253 325.06308698 929.78955054 324.97938428 924.96923828 324.90307617 C918.812377 324.80502471 912.65621661 324.68438845 906.49991417 324.55635357 C901.75063701 324.45969832 897.00121087 324.37395367 892.25166702 324.29154396 C889.98317458 324.25112069 887.71473426 324.20764656 885.44636154 324.16098595 C882.26167837 324.09736482 879.07707717 324.04817582 875.89208984 324.00268555 C874.9670163 323.98150665 874.04194275 323.96032776 873.08883667 323.93850708 C867.41785564 323.87592811 862.18649266 324.48085123 856.63379574 325.64469337 C852.91608538 326.32388484 849.3242858 326.26038526 845.5625 326.10546875 C844.40913399 326.07203117 844.40913399 326.07203117 843.23246765 326.03791809 C840.77555241 325.96374303 838.31959742 325.87299186 835.86328125 325.78125 C834.15904399 325.72572542 832.45477908 325.67104349 830.75048828 325.6171875 C825.89157567 325.4595324 821.03368644 325.2795789 816.17578125 325.09375 C814.3357251 325.02534912 814.3357251 325.02534912 812.45849609 324.95556641 C799.85707188 324.47505995 787.35116009 323.85937247 774.86328125 322.03125 C768.20383664 321.09562555 761.8265338 320.96003285 755.125 321.12109375 C752.17578125 321.09375 752.17578125 321.09375 750.17578125 320.09375 C748.00959457 320.04814607 745.84210863 320.05540792 743.67578125 320.09375 C737.39800347 320.20486111 737.39800347 320.20486111 735.17578125 319.09375 C732.62963116 318.86202173 730.101819 318.67480471 727.55078125 318.53125 C726.844375 318.48806641 726.13796875 318.44488281 725.41015625 318.40039062 C723.66559588 318.29430249 721.92071428 318.19352111 720.17578125 318.09375 C720.17578125 318.75375 720.17578125 319.41375 720.17578125 320.09375 C721.0886792 320.10833252 722.00157715 320.12291504 722.94213867 320.13793945 C726.34376736 320.19915795 729.74460806 320.27333873 733.14575195 320.35620117 C734.61504547 320.38936259 736.08446369 320.41742178 737.55395508 320.44018555 C739.67192493 320.47389519 741.7887612 320.52621433 743.90625 320.58203125 C745.17879639 320.60821533 746.45134277 320.63439941 747.76245117 320.66137695 C751.33369169 321.11375282 753.27871604 322.01473662 756.17578125 324.09375 C755.80078125 326.03125 755.80078125 326.03125 755.17578125 328.09375 C748.38188722 331.49069701 735.72212121 328.96419747 728.33984375 328.30859375 C725.18122016 328.09411931 722.0901937 328.09735895 718.92578125 328.15625 C714.25306096 328.20242097 709.85595767 327.82388353 705.234375 327.15625 C692.11266353 325.45937966 678.8293108 325.43547866 665.61737061 325.08758545 C659.98412888 324.93853055 654.35118086 324.77973187 648.71837425 324.61511421 C646.76981758 324.55982117 644.821103 324.51018535 642.87239075 324.4606781 C641.68642807 324.42716751 640.50046539 324.39365692 639.27856445 324.35913086 C638.24174026 324.3318541 637.20491608 324.30457733 636.13667297 324.276474 C633.09180845 324.08856783 630.17833955 323.62132706 627.17578125 323.09375 C624.97321726 322.96336708 622.76812197 322.87182569 620.5625 322.8125 C619.31404297 322.77511719 618.06558594 322.73773438 616.77929688 322.69921875 C614.84086914 322.64701172 614.84086914 322.64701172 612.86328125 322.59375 C610.30459341 322.52421344 607.74599291 322.45137292 605.1875 322.375 C604.05787842 322.34470703 602.92825684 322.31441406 601.7644043 322.28320312 C599.07320415 322.14112738 596.47126985 321.91317056 593.80102539 321.59375 C589.24927774 321.06269122 584.73940145 320.89333208 580.16015625 320.8125 C578.93187103 320.78488586 578.93187103 320.78488586 577.67877197 320.75671387 C574.2172807 320.67890156 570.75562739 320.61022375 567.29394531 320.54150391 C564.7492567 320.48962006 562.20472374 320.43247522 559.66015625 320.375 C558.88299255 320.36142456 558.10582886 320.34784912 557.30511475 320.3338623 C553.47612155 320.24633884 549.90888254 319.94189441 546.17578125 319.09375 C544.11482249 319.00379801 542.05119572 318.96362475 539.98828125 318.96875 C538.94285156 318.96617187 537.89742187 318.96359375 536.8203125 318.9609375 C534.19829264 318.91508277 534.19829264 318.91508277 532.17578125 320.09375 C530.75117845 320.18879525 529.32229958 320.2244786 527.89453125 320.2265625 C526.63189453 320.22849609 526.63189453 320.22849609 525.34375 320.23046875 C524.02310547 320.22466797 524.02310547 320.22466797 522.67578125 320.21875 C521.79535156 320.22261719 520.91492188 320.22648437 520.0078125 320.23046875 C519.16605469 320.22917969 518.32429687 320.22789062 517.45703125 320.2265625 C516.68423828 320.22543457 515.91144531 320.22430664 515.11523438 320.22314453 C513.17578125 320.09375 513.17578125 320.09375 511.17578125 319.09375 C509.20997394 318.99429697 507.24074653 318.9603 505.27243042 318.95571899 C504.01385223 318.95026566 502.75527405 318.94481232 501.45855713 318.93919373 C500.05554204 318.93807381 498.6525269 318.93702331 497.24951172 318.93603516 C495.77765755 318.93136757 494.30580483 318.9262241 492.83395386 318.92063904 C489.65716563 318.9093437 486.48038686 318.90091593 483.30358505 318.89451981 C478.26665519 318.88383205 473.22979235 318.86357977 468.19290161 318.84140015 C453.86675123 318.77951936 439.54060292 318.72564001 425.21435547 318.69238281 C417.30712815 318.67394618 409.4000115 318.64488859 401.49286568 318.6043781 C397.3139199 318.58343972 393.13511287 318.56786992 388.95611191 318.56557083 C385.01126166 318.5633984 381.06669904 318.54726996 377.1219368 318.52118111 C375.68704574 318.51408112 374.25211946 318.5118409 372.81721497 318.51528358 C363.7235992 318.53358836 355.27679628 317.60985172 346.41546822 315.73535728 C342.55097293 314.97000917 339.91605047 315.15426992 336.17578125 316.09375 C334.80901493 316.23304356 333.43832455 316.33740301 332.06640625 316.41015625 C331.31230469 316.45205078 330.55820312 316.49394531 329.78125 316.53710938 C329.00394531 316.57642578 328.22664062 316.61574219 327.42578125 316.65625 C326.63300781 316.69943359 325.84023438 316.74261719 325.0234375 316.78710938 C323.0744031 316.89277991 321.12511377 316.99372966 319.17578125 317.09375 C318.84578125 318.08375 318.51578125 319.07375 318.17578125 320.09375 C313.22578125 320.09375 308.27578125 320.09375 303.17578125 320.09375 C303.50578125 318.77375 303.83578125 317.45375 304.17578125 316.09375 C304.17578125 315.43375 304.17578125 314.77375 304.17578125 314.09375 C303.49515625 314.238125 302.81453125 314.3825 302.11328125 314.53125 C292.86364946 316.30245609 292.86364946 316.30245609 287.98828125 315.46875 C283.55684096 315.03287063 283.44492049 315.53973497 280.17578125 318.09375 C277.45682523 318.36775332 274.91821056 318.23087147 272.17578125 318.09375 C272.17578125 318.75375 272.17578125 319.41375 272.17578125 320.09375 C270.82033203 320.05894531 270.82033203 320.05894531 269.4375 320.0234375 C268.25800781 320.00539063 267.07851563 319.98734375 265.86328125 319.96875 C264.10564453 319.93394531 264.10564453 319.93394531 262.3125 319.8984375 C259.01184464 319.84054382 259.01184464 319.84054382 256.17578125 322.09375 C253.48828125 322.21875 253.48828125 322.21875 251.17578125 322.09375 C251.17578125 320.44375 251.17578125 318.79375 251.17578125 317.09375 C249.31953125 316.6296875 249.31953125 316.6296875 247.42578125 316.15625 C244.67578125 315.46875 241.92578125 314.78125 239.17578125 314.09375 C239.17578125 315.08375 239.17578125 316.07375 239.17578125 317.09375 C237.93441406 317.00996094 236.69304688 316.92617188 235.4140625 316.83984375 C233.77215681 316.73663825 232.13022847 316.63379258 230.48828125 316.53125 C229.67166016 316.47517578 228.85503906 316.41910156 228.01367188 316.36132812 C226.81967773 316.28881836 226.81967773 316.28881836 225.6015625 316.21484375 C224.87364502 316.1677124 224.14572754 316.12058105 223.39575195 316.07202148 C220.87867326 316.09665802 218.64125174 316.59350627 216.17578125 317.09375 C211.70268097 317.42903823 207.22072268 317.55756226 202.73828125 317.71875 C200.91586914 317.79609375 200.91586914 317.79609375 199.05664062 317.875 C197.88037109 317.91882813 196.70410156 317.96265625 195.4921875 318.0078125 C193.89032593 318.0689624 193.89032593 318.0689624 192.25610352 318.13134766 C189.17578125 318.09375 189.17578125 318.09375 186.58188057 317.58364296 C182.20857414 316.95463839 178.00525461 317.08179743 173.59786987 317.21786499 C171.6407007 317.26739837 169.68352747 317.31677152 167.72635078 317.36600685 C166.69331959 317.39399526 165.6602884 317.42198367 164.59595323 317.45082021 C146.4095254 317.9346166 128.23223595 318.19549876 110.03955078 318.13134766 C109.03864528 318.12783255 108.03773979 318.12431745 107.00650382 318.12069583 C100.77005882 318.09651974 94.53369138 318.06274011 88.29730844 318.02614641 C82.71148014 317.99452582 77.12562086 317.96951795 71.5397644 317.94345093 C62.20063719 317.89889674 52.86154599 317.84949594 43.52246094 317.796875 C32.81052289 317.73657104 22.09856756 317.68383769 11.38657105 317.63510668 C0.93474331 317.58741334 -9.51705366 317.53473884 -19.96884537 317.47974777 C-24.35644068 317.45672283 -28.74403913 317.43529108 -33.13164902 317.41524124 C-53.57841561 317.32014743 -73.99222188 317.18650453 -94.42276001 316.30621338 C-101.64940509 316.00092111 -108.85769243 315.99928645 -116.08984375 316.06640625 C-117.47588733 316.07341858 -118.86193525 316.07961317 -120.24798584 316.08506775 C-125.95674991 316.10870537 -131.66538824 316.144815 -137.37402344 316.18969727 C-140.9324645 316.21708681 -144.49084193 316.23371495 -148.04936981 316.24456596 C-149.98236703 316.25341427 -151.91530191 316.27371661 -153.84820557 316.29469299 C-161.35588052 316.31527466 -168.65879969 315.8608436 -176.12255859 315.12109375 C-191.17176101 313.67800628 -206.24683351 313.66085109 -221.35118818 313.52003551 C-225.49361574 313.47928847 -229.63591011 313.42779245 -233.77822876 313.37733459 C-241.59360581 313.2835461 -249.40904496 313.19768356 -257.2245518 313.11548859 C-271.24609675 312.9679724 -285.26753023 312.81095872 -299.28886378 312.64456373 C-304.19618787 312.58669998 -309.10353238 312.53372849 -314.01095366 312.48482692 C-317.06079525 312.45363523 -320.11058786 312.41879604 -323.16037941 312.38307381 C-324.56597679 312.36738988 -325.9715923 312.35323783 -327.37722206 312.34078979 C-333.94468416 312.28196715 -340.40920122 312.15521837 -346.92712021 311.31929874 C-349.73243808 310.98577051 -352.52042694 310.93814449 -355.34350586 310.90429688 C-356.546035 310.88757935 -357.74856415 310.87086182 -358.98753357 310.8536377 C-360.26266312 310.84006226 -361.53779266 310.82648682 -362.8515625 310.8125 C-364.20806021 310.79439378 -365.56455133 310.77578811 -366.92103577 310.75671387 C-371.20120738 310.69752698 -375.48144928 310.64529188 -379.76171875 310.59375 C-384.70100888 310.53378534 -389.64023433 310.47075151 -394.57940865 310.40187073 C-396.52302808 310.37604358 -398.46670747 310.35485525 -400.41038513 310.3338623 C-410.2582278 310.20011319 -419.96366171 309.64155872 -429.82421875 309.09375 C-429.82421875 222.30375 -429.82421875 135.51375 -429.82421875 46.09375 C-427.18421875 46.42375 -424.54421875 46.75375 -421.82421875 47.09375 C-421.82421875 48.08375 -421.82421875 49.07375 -421.82421875 50.09375 C-420.83421875 50.42375 -419.84421875 50.75375 -418.82421875 51.09375 C-416.17072954 47.95780821 -415.01441298 45.00438817 -413.82421875 41.09375 C-412.82421875 39.09375 -412.82421875 39.09375 -410.07421875 37.90625 C-406.78000083 37.08269552 -405.0340017 37.14969619 -401.82421875 38.09375 C-401.82421875 40.40375 -401.82421875 42.71375 -401.82421875 45.09375 C-400.50421875 45.42375 -399.18421875 45.75375 -397.82421875 46.09375 C-398.17484375 45.02125 -398.52546875 43.94875 -398.88671875 42.84375 C-400.3309732 37.22832711 -399.52550405 31.77984702 -398.82421875 26.09375 C-396.84421875 26.09375 -394.86421875 26.09375 -392.82421875 26.09375 C-392.49421875 23.78375 -392.16421875 21.47375 -391.82421875 19.09375 C-384.33143861 18.90031905 -376.83840335 18.72287141 -369.3449707 18.55664062 C-366.79475293 18.49816802 -364.24461695 18.43600877 -361.69458008 18.37011719 C-358.03351736 18.27615252 -354.37236716 18.195361 -350.7109375 18.1171875 C-349.56711105 18.08499115 -348.42328461 18.0527948 -347.24479675 18.0196228 C-345.65348686 17.98936508 -345.65348686 17.98936508 -344.0300293 17.95849609 C-343.09515182 17.93628998 -342.16027435 17.91408386 -341.19706726 17.89120483 C-338.82421875 18.09375 -338.82421875 18.09375 -335.82421875 20.09375 C-328.46491329 20.804592 -321.47180583 19.97014966 -314.27734375 18.4765625 C-310.83866425 17.93995328 -308.19617485 18.28741267 -304.82421875 19.09375 C-304.49421875 19.42375 -304.16421875 19.75375 -303.82421875 20.09375 C-298.57708171 20.56875398 -293.64589243 20.384045 -288.82421875 18.09375 C-288.49421875 17.10375 -288.16421875 16.11375 -287.82421875 15.09375 C-281.28739932 13.89828451 -274.85643475 13.9839657 -268.2265625 14.03125 C-266.38862877 14.03692993 -266.38862877 14.03692993 -264.51356506 14.04272461 C-259.302213 14.05892787 -254.09094142 14.08672813 -248.87963867 14.11425781 C-245.05777813 14.13269395 -241.23595465 14.1464103 -237.4140625 14.15625 C-236.17208099 14.15947266 -234.93009949 14.16269531 -233.65048218 14.16601562 C-224.90726115 14.16140251 -216.20090567 13.9041975 -207.47434998 13.36157227 C-206.23709923 13.28894165 -206.23709923 13.28894165 -204.97485352 13.21484375 C-204.26466568 13.1677124 -203.55447784 13.12058105 -202.82276917 13.07202148 C-200.67177117 13.09540743 -198.89437992 13.53441422 -196.82421875 14.09375 C-194.93021893 14.18694247 -193.03300342 14.22370761 -191.13671875 14.21875 C-190.16347656 14.22132812 -189.19023437 14.22390625 -188.1875 14.2265625 C-185.60214402 14.12446946 -183.18022025 13.89509187 -180.625 13.55859375 C-175.27820746 12.92909647 -170.06111719 13.2121767 -164.69921875 13.53125 C-162.80086064 13.63556954 -160.90242376 13.7384666 -159.00390625 13.83984375 C-158.11429199 13.88810303 -157.22467773 13.9363623 -156.30810547 13.98608398 C-154.14853975 14.07969205 -151.98581227 14.09375 -149.82421875 14.09375 C-146.99923283 14.09375 -144.57681454 14.5270391 -141.82421875 15.09375 C-141.49421875 14.76375 -141.16421875 14.43375 -140.82421875 14.09375 C-138.16703418 14.01740509 -135.53559399 14.0030656 -132.87890625 14.03125 C-131.67405075 14.03692993 -131.67405075 14.03692993 -130.44485474 14.04272461 C-126.99832987 14.0590919 -123.55192214 14.08700799 -120.10546875 14.11425781 C-117.5924536 14.13245419 -115.07945849 14.14448703 -112.56640625 14.15625 C-111.41131058 14.16869751 -111.41131058 14.16869751 -110.23287964 14.18139648 C-105.6614688 14.20188516 -101.35421865 13.79158107 -96.82421875 13.09375 C-94.36336928 13.15073809 -91.90310356 13.27515994 -89.44921875 13.46875 C-88.22460938 13.55898438 -87 13.64921875 -85.73828125 13.7421875 C-82.82421875 14.09375 -82.82421875 14.09375 -81.82421875 15.09375 C-79.30541358 15.25363491 -76.81079609 15.35309225 -74.2890625 15.41015625 C-73.15918663 15.4413279 -73.15918663 15.4413279 -72.00648499 15.47312927 C-69.59165885 15.53870425 -67.17672077 15.59754621 -64.76171875 15.65625 C-63.12824346 15.6994277 -61.49477965 15.74304173 -59.86132812 15.78710938 C-55.84907411 15.89439362 -51.83670711 15.99563821 -47.82421875 16.09375 C-47.82421875 15.10375 -47.82421875 14.11375 -47.82421875 13.09375 C-44.76502487 12.07401871 -42.7000385 11.97841398 -39.5 11.99609375 C-38.47197266 11.99931641 -37.44394531 12.00253906 -36.38476562 12.00585938 C-34.77698242 12.01842773 -34.77698242 12.01842773 -33.13671875 12.03125 C-32.05326172 12.03576172 -30.96980469 12.04027344 -29.85351562 12.04492188 C-27.1770279 12.05671257 -24.50065098 12.07316937 -21.82421875 12.09375 C-22.71878281 12.07091446 -23.61334686 12.04807892 -24.53501892 12.02455139 C-32.994103 11.80793566 -41.45308146 11.58763252 -49.91196346 11.36325932 C-54.26002603 11.24805446 -58.60811546 11.13424083 -62.95629883 11.02368164 C-67.15797096 10.91679525 -71.35952951 10.80615642 -75.56103706 10.69299126 C-77.15843834 10.65061146 -78.75587519 10.60954975 -80.35334587 10.5698719 C-88.22691365 10.37349481 -96.00199281 10.08385965 -103.82421875 9.09375 C-106.68112894 9.01514017 -109.52947696 9.04108195 -112.38671875 9.09375 C-117.98145255 9.19631157 -123.2795757 8.89207881 -128.82421875 8.09375 C-129.15421875 7.10375 -129.48421875 6.11375 -129.82421875 5.09375 C-129.16421875 4.10375 -128.50421875 3.11375 -127.82421875 2.09375 C-127.14359375 2.279375 -126.46296875 2.465 -125.76171875 2.65625 C-122.82367183 3.24349 -122.82367183 3.24349 -119.890625 2.6328125 C-114.55989409 1.8083429 -109.20636909 1.90953982 -103.82421875 1.90625 C-102.24253906 1.88788086 -102.24253906 1.88788086 -100.62890625 1.86914062 C-94.899476 1.85837102 -90.34806872 2.5050615 -84.82421875 4.09375 C-82.0721649 3.92564425 -79.57934256 3.67853071 -76.88671875 3.21875 C-75.86094727 3.06212891 -75.86094727 3.06212891 -74.81445312 2.90234375 C-73.1489413 2.64611116 -71.48622406 2.37182039 -69.82421875 2.09375 C-69.82421875 3.08375 -69.82421875 4.07375 -69.82421875 5.09375 C-69.28152344 4.93132813 -68.73882812 4.76890625 -68.1796875 4.6015625 C-65.44508814 4.01201372 -62.93278413 3.96128387 -60.13671875 3.96875 C-59.16347656 3.96617188 -58.19023437 3.96359375 -57.1875 3.9609375 C-54.82421875 4.09375 -54.82421875 4.09375 -53.82421875 5.09375 C-51.47434613 5.32902773 -49.11865836 5.50761417 -46.76171875 5.65625 C-44.82619141 5.78193359 -44.82619141 5.78193359 -42.8515625 5.91015625 C-41.35302734 6.00103516 -41.35302734 6.00103516 -39.82421875 6.09375 C-44.11421875 5.43375 -48.40421875 4.77375 -52.82421875 4.09375 C-52.82421875 3.10375 -52.82421875 2.11375 -52.82421875 1.09375 C-47.19074814 0.94824028 -41.55720662 0.80600404 -35.92358398 0.66650391 C-34.01633601 0.61885069 -32.10910827 0.57037891 -30.2019043 0.52099609 C-20.13532626 0.26090523 -10.07014161 0.0427217 0 0 Z M336.17578125 10.09375 C336.17578125 10.42375 336.17578125 10.75375 336.17578125 11.09375 C337.82578125 11.09375 339.47578125 11.09375 341.17578125 11.09375 C341.17578125 10.76375 341.17578125 10.43375 341.17578125 10.09375 C339.52578125 10.09375 337.87578125 10.09375 336.17578125 10.09375 Z M362.17578125 11.09375 C362.50578125 11.75375 362.83578125 12.41375 363.17578125 13.09375 C366.14578125 13.09375 369.11578125 13.09375 372.17578125 13.09375 C372.50578125 12.43375 372.83578125 11.77375 373.17578125 11.09375 C369.54578125 11.09375 365.91578125 11.09375 362.17578125 11.09375 Z M125.17578125 12.09375 C125.17578125 12.42375 125.17578125 12.75375 125.17578125 13.09375 C132.10578125 13.09375 139.03578125 13.09375 146.17578125 13.09375 C146.17578125 12.76375 146.17578125 12.43375 146.17578125 12.09375 C139.24578125 12.09375 132.31578125 12.09375 125.17578125 12.09375 Z M-0.82421875 13.09375 C-0.82421875 13.42375 -0.82421875 13.75375 -0.82421875 14.09375 C7.75578125 14.09375 16.33578125 14.09375 25.17578125 14.09375 C25.17578125 13.76375 25.17578125 13.43375 25.17578125 13.09375 C16.59578125 13.09375 8.01578125 13.09375 -0.82421875 13.09375 Z M27.17578125 14.09375 C27.17578125 14.42375 27.17578125 14.75375 27.17578125 15.09375 C44.51969265 16.10337478 61.81024379 16.20834492 79.17578125 16.09375 C79.17578125 15.76375 79.17578125 15.43375 79.17578125 15.09375 C61.83936309 14.48636151 44.52581232 13.90606938 27.17578125 14.09375 Z M80.17578125 16.09375 C80.17578125 16.42375 80.17578125 16.75375 80.17578125 17.09375 C81.82578125 17.09375 83.47578125 17.09375 85.17578125 17.09375 C85.17578125 16.76375 85.17578125 16.43375 85.17578125 16.09375 C83.52578125 16.09375 81.87578125 16.09375 80.17578125 16.09375 Z M-280.82421875 19.09375 C-280.82421875 19.75375 -280.82421875 20.41375 -280.82421875 21.09375 C-268.28421875 21.09375 -255.74421875 21.09375 -242.82421875 21.09375 C-242.82421875 20.43375 -242.82421875 19.77375 -242.82421875 19.09375 C-255.36421875 19.09375 -267.90421875 19.09375 -280.82421875 19.09375 Z M831.17578125 21.09375 C835.17578125 22.09375 835.17578125 22.09375 835.17578125 22.09375 Z M1344.17578125 36.09375 C1348.17578125 37.09375 1348.17578125 37.09375 1348.17578125 37.09375 Z M1440.17578125 37.09375 C1440.17578125 37.42375 1440.17578125 37.75375 1440.17578125 38.09375 C1444.79578125 38.09375 1449.41578125 38.09375 1454.17578125 38.09375 C1454.17578125 37.76375 1454.17578125 37.43375 1454.17578125 37.09375 C1449.55578125 37.09375 1444.93578125 37.09375 1440.17578125 37.09375 Z M-403.82421875 50.09375 C-405.19984729 51.38340176 -406.53188268 52.72064293 -407.82421875 54.09375 C-407.82421875 54.75375 -407.82421875 55.41375 -407.82421875 56.09375 C-405.18421875 56.09375 -402.54421875 56.09375 -399.82421875 56.09375 C-400.82199455 53.10042261 -401.57642125 52.14608685 -403.82421875 50.09375 Z M1451.17578125 275.09375 C1451.50578125 276.08375 1451.83578125 277.07375 1452.17578125 278.09375 C1452.83578125 278.09375 1453.49578125 278.09375 1454.17578125 278.09375 C1454.17578125 278.75375 1454.17578125 279.41375 1454.17578125 280.09375 C1456.17561659 279.30257096 1456.17561659 279.30257096 1458.17578125 278.09375 C1458.50578125 277.10375 1458.83578125 276.11375 1459.17578125 275.09375 C1456.53578125 275.09375 1453.89578125 275.09375 1451.17578125 275.09375 Z M-298.82421875 294.09375 C-294.82421875 295.09375 -294.82421875 295.09375 -294.82421875 295.09375 Z M1295.17578125 309.09375 C1294.84578125 309.75375 1294.51578125 310.41375 1294.17578125 311.09375 C1302.94716715 311.98802808 1311.61301961 312.21844647 1320.42578125 312.15625 C1321.65941406 312.15173828 1322.89304687 312.14722656 1324.1640625 312.14257812 C1327.16802194 312.13093487 1330.17187391 312.11458376 1333.17578125 312.09375 C1332.68078125 311.10375 1332.68078125 311.10375 1332.17578125 310.09375 C1313.86078125 309.59875 1313.86078125 309.59875 1295.17578125 309.09375 Z M965.17578125 314.09375 C965.17578125 314.42375 965.17578125 314.75375 965.17578125 315.09375 C967.48578125 315.09375 969.79578125 315.09375 972.17578125 315.09375 C972.17578125 314.76375 972.17578125 314.43375 972.17578125 314.09375 C969.86578125 314.09375 967.55578125 314.09375 965.17578125 314.09375 Z M975.17578125 314.09375 C975.17578125 314.42375 975.17578125 314.75375 975.17578125 315.09375 C979.51162284 315.9049161 983.69829105 316.27365075 988.10546875 316.41015625 C990.0390625 316.47299805 990.0390625 316.47299805 992.01171875 316.53710938 C993.35807034 316.57691028 994.70442454 316.61662273 996.05078125 316.65625 C997.42058458 316.69950183 998.79037646 316.74311812 1000.16015625 316.78710938 C1003.49860282 316.89290522 1006.83712025 316.99499372 1010.17578125 317.09375 C1010.50578125 316.43375 1010.83578125 315.77375 1011.17578125 315.09375 C999.29578125 314.76375 987.41578125 314.43375 975.17578125 314.09375 Z M1011.17578125 316.09375 C1011.17578125 316.42375 1011.17578125 316.75375 1011.17578125 317.09375 C1016.78578125 317.09375 1022.39578125 317.09375 1028.17578125 317.09375 C1028.17578125 316.76375 1028.17578125 316.43375 1028.17578125 316.09375 C1022.56578125 316.09375 1016.95578125 316.09375 1011.17578125 316.09375 Z M912.17578125 317.09375 C911.84578125 317.75375 911.51578125 318.41375 911.17578125 319.09375 C911.83578125 319.09375 912.49578125 319.09375 913.17578125 319.09375 C912.84578125 318.43375 912.51578125 317.77375 912.17578125 317.09375 Z M914.17578125 317.09375 C914.50578125 317.75375 914.83578125 318.41375 915.17578125 319.09375 C915.50578125 318.43375 915.83578125 317.77375 916.17578125 317.09375 C915.51578125 317.09375 914.85578125 317.09375 914.17578125 317.09375 Z M917.17578125 317.09375 C917.83578125 317.75375 918.49578125 318.41375 919.17578125 319.09375 C919.50578125 318.43375 919.83578125 317.77375 920.17578125 317.09375 C919.18578125 317.09375 918.19578125 317.09375 917.17578125 317.09375 Z M1032.17578125 317.09375 C1032.17578125 317.42375 1032.17578125 317.75375 1032.17578125 318.09375 C1042.40578125 318.09375 1052.63578125 318.09375 1063.17578125 318.09375 C1063.17578125 317.76375 1063.17578125 317.43375 1063.17578125 317.09375 C1052.94578125 317.09375 1042.71578125 317.09375 1032.17578125 317.09375 Z M677.17578125 318.09375 C677.17578125 318.42375 677.17578125 318.75375 677.17578125 319.09375 C680.80578125 319.42375 684.43578125 319.75375 688.17578125 320.09375 C687.84578125 319.43375 687.51578125 318.77375 687.17578125 318.09375 C683.87578125 318.09375 680.57578125 318.09375 677.17578125 318.09375 Z M891.17578125 318.09375 C891.17578125 318.42375 891.17578125 318.75375 891.17578125 319.09375 C893.15578125 319.09375 895.13578125 319.09375 897.17578125 319.09375 C897.17578125 318.76375 897.17578125 318.43375 897.17578125 318.09375 C895.19578125 318.09375 893.21578125 318.09375 891.17578125 318.09375 Z M903.17578125 318.09375 C903.17578125 318.42375 903.17578125 318.75375 903.17578125 319.09375 C904.82578125 319.09375 906.47578125 319.09375 908.17578125 319.09375 C908.17578125 318.76375 908.17578125 318.43375 908.17578125 318.09375 C906.52578125 318.09375 904.87578125 318.09375 903.17578125 318.09375 Z M920.17578125 318.09375 C920.17578125 318.42375 920.17578125 318.75375 920.17578125 319.09375 C921.82578125 319.09375 923.47578125 319.09375 925.17578125 319.09375 C925.17578125 318.76375 925.17578125 318.43375 925.17578125 318.09375 C923.52578125 318.09375 921.87578125 318.09375 920.17578125 318.09375 Z M694.17578125 319.09375 C694.17578125 319.42375 694.17578125 319.75375 694.17578125 320.09375 C696.48578125 320.09375 698.79578125 320.09375 701.17578125 320.09375 C701.17578125 319.76375 701.17578125 319.43375 701.17578125 319.09375 C698.86578125 319.09375 696.55578125 319.09375 694.17578125 319.09375 Z " fill="#0747A8" transform="translate(429.82421875,28.90625)"/>
</svg>
