<?xml version="1.0" encoding="UTF-8"?>
<svg version="1.1" xmlns="http://www.w3.org/2000/svg" width="106" height="106">
<path d="M0 0 C2.79969582 1.68466545 5.51188722 3.37126222 7.83203125 5.69140625 C10.02607015 5.82571203 12.22413914 5.8950517 14.421875 5.9375 C15.77669924 5.97043554 17.13151679 6.00364723 18.48632812 6.03710938 C20.63040597 6.08456975 22.77445609 6.12899632 24.91870117 6.16821289 C26.98254924 6.20786119 29.04583491 6.25942015 31.109375 6.3125 C32.34937256 6.33755615 33.58937012 6.3626123 34.86694336 6.38842773 C37.83203125 6.69140625 37.83203125 6.69140625 39.83203125 8.69140625 C40.23250569 11.01415802 40.57174165 13.34879982 40.83203125 15.69140625 C41.84265625 15.60890625 42.85328125 15.52640625 43.89453125 15.44140625 C49.25523791 15.78176858 52.7009014 17.47562872 56.50390625 21.4296875 C59.19310046 26.00922705 58.54398829 31.57826024 57.83203125 36.69140625 C56.41765374 39.32110072 55.40639361 40.03645902 52.83203125 41.69140625 C52.17203125 41.69140625 51.51203125 41.69140625 50.83203125 41.69140625 C50.83726807 42.65554443 50.84250488 43.61968262 50.84790039 44.61303711 C50.86595243 48.17813189 50.87746399 51.74322261 50.88696289 55.30834961 C50.89200265 56.85360391 50.89883445 58.39885341 50.9074707 59.9440918 C50.91955201 62.16065654 50.92526298 64.37715843 50.9296875 66.59375 C50.93484879 67.28854965 50.94001007 67.9833493 50.94532776 68.69920349 C50.94552402 70.36369955 50.89392254 72.02806124 50.83203125 73.69140625 C49.83203125 74.69140625 49.83203125 74.69140625 46.23022461 74.80493164 C44.62743269 74.8047725 43.02463565 74.79907688 41.421875 74.7890625 C40.57984024 74.78764755 39.73780548 74.7862326 38.87025452 74.78477478 C36.1699779 74.77915888 33.46978297 74.76660373 30.76953125 74.75390625 C28.94336057 74.7488933 27.11718859 74.74433004 25.29101562 74.74023438 C20.80465583 74.72918429 16.31835741 74.71190904 11.83203125 74.69140625 C11.55230469 75.47 11.27257813 76.24859375 10.984375 77.05078125 C9.54053238 80.35938332 7.78575985 81.67422574 4.83203125 83.69140625 C-1.20213715 85.70279572 -7.93301908 85.76897127 -13.66796875 83.00390625 C-18.86134044 78.20003744 -21.06321938 74.65132728 -22.16796875 67.69140625 C-21.29296875 65.19140625 -21.29296875 65.19140625 -20.16796875 63.69140625 C-20.97234375 63.54703125 -21.77671875 63.40265625 -22.60546875 63.25390625 C-25.16796875 62.69140625 -25.16796875 62.69140625 -26.16796875 61.69140625 C-26.25265651 60.06562666 -26.27616468 58.43657528 -26.2734375 56.80859375 C-26.28826172 55.80570313 -26.30308594 54.8028125 -26.31835938 53.76953125 C-26.34282586 51.65768738 -26.34846773 49.54552968 -26.33398438 47.43359375 C-26.46747145 41.09093525 -27.14498838 37.48130163 -31.78637695 33.00048828 C-32.24230225 32.56849121 -32.69822754 32.13649414 -33.16796875 31.69140625 C-34.78079847 28.46574681 -34.43583944 24.98199817 -34.48046875 21.44140625 C-34.50947266 20.68988281 -34.53847656 19.93835938 -34.56835938 19.1640625 C-34.63939501 12.90199794 -32.79591134 9.44280923 -28.421875 4.86328125 C-27.86371094 4.3940625 -27.30554688 3.92484375 -26.73046875 3.44140625 C-26.17488281 2.961875 -25.61929687 2.48234375 -25.046875 1.98828125 C-18.01466897 -2.86554911 -7.77571934 -3.21191859 0 0 Z " fill="#2670C5" transform="translate(41.16796875,11.30859375)"/>
<path d="M0 0 C19.14 0 38.28 0 58 0 C58 1.98 58 3.96 58 6 C57 7 57 7 53.9375 7.0625 C52.968125 7.041875 51.99875 7.02125 51 7 C50.505 5.02 50.505 5.02 50 3 C49.01 3 48.02 3 47 3 C46.67 4.32 46.34 5.64 46 7 C44.35 7 42.7 7 41 7 C41.495 7.804375 41.495 7.804375 42 8.625 C43.22699204 11.5391061 43.14233286 13.86867708 43 17 C44.258125 16.814375 45.51625 16.62875 46.8125 16.4375 C49.82744268 15.99267239 51.00468461 16.00156154 54 17 C54.103125 16.21625 54.20625 15.4325 54.3125 14.625 C55 12 55 12 58 10 C58 19.9 58 29.8 58 40 C38.86 40 19.72 40 0 40 C0 26.8 0 13.6 0 0 Z " fill="#DCE7F4" transform="translate(18,30)"/>
<path d="M0 0 C2.79969582 1.68466545 5.51188722 3.37126222 7.83203125 5.69140625 C10.02607015 5.82571203 12.22413914 5.8950517 14.421875 5.9375 C15.77669924 5.97043554 17.13151679 6.00364723 18.48632812 6.03710938 C20.63040597 6.08456975 22.77445609 6.12899632 24.91870117 6.16821289 C26.98254924 6.20786119 29.04583491 6.25942015 31.109375 6.3125 C32.34937256 6.33755615 33.58937012 6.3626123 34.86694336 6.38842773 C37.83203125 6.69140625 37.83203125 6.69140625 39.83203125 8.69140625 C40.10195031 11.3798001 39.91940482 13.98282561 39.83203125 16.69140625 C39.17203125 17.02140625 38.51203125 17.35140625 37.83203125 17.69140625 C37.33703125 13.73140625 37.33703125 13.73140625 36.83203125 9.69140625 C17.03203125 9.69140625 -2.76796875 9.69140625 -23.16796875 9.69140625 C-23.16796875 11.67140625 -23.16796875 13.65140625 -23.16796875 15.69140625 C6.53203125 16.18640625 6.53203125 16.18640625 36.83203125 16.69140625 C36.83203125 17.02140625 36.83203125 17.35140625 36.83203125 17.69140625 C17.03203125 18.02140625 -2.76796875 18.35140625 -23.16796875 18.69140625 C-23.16796875 32.55140625 -23.16796875 46.41140625 -23.16796875 60.69140625 C6.53203125 61.18640625 6.53203125 61.18640625 36.83203125 61.69140625 C36.83203125 62.02140625 36.83203125 62.35140625 36.83203125 62.69140625 C20.33203125 62.69140625 3.83203125 62.69140625 -13.16796875 62.69140625 C-12.83796875 65.66140625 -12.50796875 68.63140625 -12.16796875 71.69140625 C-10.18796875 72.02140625 -8.20796875 72.35140625 -6.16796875 72.69140625 C-6.16796875 74.34140625 -6.16796875 75.99140625 -6.16796875 77.69140625 C-5.56908844 77.33867142 -4.97020813 76.98593658 -4.35317993 76.62251282 C2.09501951 73.07733316 7.1288606 71.95196626 14.43359375 71.984375 C15.28848389 71.9697522 16.14337402 71.95512939 17.02416992 71.94006348 C20.16817496 71.89327353 23.3126925 71.88843733 26.45703125 71.87890625 C33.51078125 71.81703125 40.56453125 71.75515625 47.83203125 71.69140625 C48.16203125 56.51140625 48.49203125 41.33140625 48.83203125 25.69140625 C49.16203125 25.69140625 49.49203125 25.69140625 49.83203125 25.69140625 C50.76094561 36.85496633 50.94293965 47.99610939 50.95703125 59.19140625 C50.95952881 59.8984671 50.96202637 60.60552795 50.96459961 61.33401489 C50.97047034 63.35938684 50.96783269 65.384778 50.96484375 67.41015625 C50.96371582 68.59544922 50.96258789 69.78074219 50.96142578 71.00195312 C50.83203125 73.69140625 50.83203125 73.69140625 49.83203125 74.69140625 C47.02039745 74.78002617 44.2334487 74.8066298 41.421875 74.7890625 C40.57984024 74.78764755 39.73780548 74.7862326 38.87025452 74.78477478 C36.1699779 74.77915888 33.46978297 74.76660373 30.76953125 74.75390625 C28.94336057 74.7488933 27.11718859 74.74433004 25.29101562 74.74023438 C20.80465583 74.72918429 16.31835741 74.71190904 11.83203125 74.69140625 C11.55230469 75.47 11.27257813 76.24859375 10.984375 77.05078125 C9.54053238 80.35938332 7.78575985 81.67422574 4.83203125 83.69140625 C-1.20213715 85.70279572 -7.93301908 85.76897127 -13.66796875 83.00390625 C-18.86134044 78.20003744 -21.06321938 74.65132728 -22.16796875 67.69140625 C-21.29296875 65.19140625 -21.29296875 65.19140625 -20.16796875 63.69140625 C-20.97234375 63.54703125 -21.77671875 63.40265625 -22.60546875 63.25390625 C-25.16796875 62.69140625 -25.16796875 62.69140625 -26.16796875 61.69140625 C-26.25265651 60.06562666 -26.27616468 58.43657528 -26.2734375 56.80859375 C-26.28826172 55.80570313 -26.30308594 54.8028125 -26.31835938 53.76953125 C-26.34282586 51.65768738 -26.34846773 49.54552968 -26.33398438 47.43359375 C-26.46747145 41.09093525 -27.14498838 37.48130163 -31.78637695 33.00048828 C-32.24230225 32.56849121 -32.69822754 32.13649414 -33.16796875 31.69140625 C-34.78079847 28.46574681 -34.43583944 24.98199817 -34.48046875 21.44140625 C-34.50947266 20.68988281 -34.53847656 19.93835938 -34.56835938 19.1640625 C-34.63939501 12.90199794 -32.79591134 9.44280923 -28.421875 4.86328125 C-27.86371094 4.3940625 -27.30554688 3.92484375 -26.73046875 3.44140625 C-26.17488281 2.961875 -25.61929687 2.48234375 -25.046875 1.98828125 C-18.01466897 -2.86554911 -7.77571934 -3.21191859 0 0 Z " fill="#033C7C" transform="translate(41.16796875,11.30859375)"/>
<path d="M0 0 C2.97 0 5.94 0 9 0 C10.57300328 1.57300328 10.12725504 3.13684045 10.12939453 5.3203125 C10.13254669 6.23796387 10.13569885 7.15561523 10.13894653 8.10107422 C10.1369223 9.09896973 10.13489807 10.09686523 10.1328125 11.125 C10.13376923 12.14223145 10.13472595 13.15946289 10.13571167 14.20751953 C10.13639361 16.36295636 10.13453835 18.51839522 10.13037109 20.67382812 C10.12502305 23.98572371 10.13031563 27.29748367 10.13671875 30.609375 C10.13605797 32.69791697 10.13477681 34.78645885 10.1328125 36.875 C10.13483673 37.87289551 10.13686096 38.87079102 10.13894653 39.89892578 C10.13421829 41.27540283 10.13421829 41.27540283 10.12939453 42.6796875 C10.12859894 43.49163574 10.12780334 44.30358398 10.12698364 45.14013672 C10 47 10 47 9 48 C7.66110952 48.10121812 6.31706199 48.13566031 4.97436523 48.1418457 C3.6918412 48.15239738 3.6918412 48.15239738 2.38340759 48.16316223 C1.45121902 48.16732651 0.51903046 48.17149078 -0.44140625 48.17578125 C-2.40691155 48.19899641 -4.37240636 48.22311441 -6.33789062 48.24804688 C-9.44285927 48.28304967 -12.54744673 48.31243459 -15.65258789 48.32592773 C-18.64516922 48.34148542 -21.63662526 48.38176538 -24.62890625 48.42578125 C-26.00593468 48.42291862 -26.00593468 48.42291862 -27.41078186 48.41999817 C-33.67502709 48.53777891 -37.55039621 49.92141967 -43 53 C-43.66 53 -44.32 53 -45 53 C-45 51.35 -45 49.7 -45 48 C-45.969375 48.020625 -46.93875 48.04125 -47.9375 48.0625 C-51 48 -51 48 -52 47 C-52 44.03 -52 41.06 -52 38 C-26.755 37.505 -26.755 37.505 -1 37 C-0.67 24.79 -0.34 12.58 0 0 Z " fill="#82B7F3" transform="translate(80,36)"/>
<path d="M0 0 C6.50591997 3.78338492 6.50591997 3.78338492 7.83203125 7.76171875 C-8.00796875 8.25671875 -8.00796875 8.25671875 -24.16796875 8.76171875 C-24.49796875 18.66171875 -24.82796875 28.56171875 -25.16796875 38.76171875 C-29.76846659 36.46146983 -32.34445386 34.54754439 -34.16796875 29.76171875 C-34.59586162 26.90418976 -34.69965615 24.08605097 -34.73046875 21.19921875 C-34.7449707 20.46695068 -34.75947266 19.73468262 -34.77441406 18.98022461 C-34.66197876 12.91488848 -32.64589261 9.35605514 -28.421875 4.93359375 C-27.86371094 4.464375 -27.30554688 3.99515625 -26.73046875 3.51171875 C-26.17488281 3.0321875 -25.61929687 2.55265625 -25.046875 2.05859375 C-17.98977471 -2.81241934 -7.84457302 -3.06625111 0 0 Z " fill="#A7CEFB" transform="translate(41.16796875,11.23828125)"/>
<path d="M0 0 C1.06367294 0.00222061 2.12734589 0.00444122 3.22325134 0.00672913 C5.02500572 0.00684242 5.02500572 0.00684242 6.86315918 0.00695801 C8.17042465 0.01211929 9.47769012 0.01728058 10.8245697 0.02259827 C12.16835477 0.02446253 13.51214052 0.02588639 14.85592651 0.02688599 C18.39873622 0.0307105 21.94150515 0.0405402 25.48429871 0.05158997 C29.09706572 0.06180552 32.7098393 0.06638392 36.32261658 0.07142639 C43.41573225 0.08216254 50.50882019 0.09923816 57.60191345 0.12025452 C57.60191345 2.43025452 57.60191345 4.74025452 57.60191345 7.12025452 C37.47191345 7.12025452 17.34191345 7.12025452 -3.39808655 7.12025452 C-3.39808655 0.17040055 -3.39808655 0.17040055 0 0 Z " fill="#F4F9FD" transform="translate(20.398086547851563,19.879745483398438)"/>
<path d="M0 0 C0.33 0 0.66 0 1 0 C1 13.2 1 26.4 1 40 C20.14 40 39.28 40 59 40 C58.67 30.43 58.34 20.86 58 11 C55.62841973 13.0285831 55.62841973 13.0285831 55 17 C51.37 17 47.74 17 44 17 C43.34 13.7 42.68 10.4 42 7 C43.65 7 45.3 7 47 7 C47.33 5.68 47.66 4.36 48 3 C48.99 3 49.98 3 51 3 C51.495 4.98 51.495 4.98 52 7 C53.98 6.67 55.96 6.34 58 6 C58.33 4.02 58.66 2.04 59 0 C59.66 0 60.32 0 61 0 C61 13.86 61 27.72 61 42 C40.87 42 20.74 42 0 42 C0 28.14 0 14.28 0 0 Z " fill="#98C6FB" transform="translate(17,30)"/>
<path d="M0 0 C1.65 0 3.3 0 5 0 C5.02470469 5.49926424 5.04286223 10.99849622 5.05493164 16.49780273 C5.05996279 18.36890221 5.06678835 20.23999775 5.07543945 22.11108398 C5.08755829 24.79932628 5.09324047 27.48751664 5.09765625 30.17578125 C5.10281754 31.01337479 5.10797882 31.85096832 5.11329651 32.71394348 C5.11362064 36.06375742 5.06684515 38.79946456 4 42 C-2.96604831 42.83000851 -9.80847454 43.13645738 -16.8203125 43.09765625 C-17.80498505 43.0962413 -18.78965759 43.09482635 -19.8041687 43.09336853 C-22.911145 43.08782615 -26.01804593 43.07528483 -29.125 43.0625 C-31.24739478 43.05747754 -33.36979071 43.05291595 -35.4921875 43.04882812 C-40.66148683 43.03787567 -45.83073069 43.02065166 -51 43 C-51 41.68 -51 40.36 -51 39 C-50.38834488 38.98969254 -49.77668976 38.97938507 -49.14649963 38.96876526 C-42.80417684 38.86093255 -36.46200286 38.74631658 -30.11987305 38.62768555 C-27.75011292 38.5842619 -25.38032 38.54259251 -23.01049805 38.50268555 C-19.61236667 38.44516232 -16.21440157 38.38141697 -12.81640625 38.31640625 C-11.74975235 38.29969376 -10.68309845 38.28298126 -9.5841217 38.26576233 C-8.60318039 38.24581711 -7.62223907 38.22587189 -6.61157227 38.20532227 C-5.74331314 38.18977798 -4.87505402 38.1742337 -3.98048401 38.15821838 C-1.99919221 38.21537575 -1.99919221 38.21537575 -1 37 C-0.83989519 34.26298822 -0.74053172 31.5483241 -0.68359375 28.80859375 C-0.66281265 27.98875504 -0.64203156 27.16891632 -0.62062073 26.32423401 C-0.55503506 23.69541099 -0.49619874 21.06648496 -0.4375 18.4375 C-0.39432333 16.65949439 -0.35070933 14.88149935 -0.30664062 13.10351562 C-0.19934457 8.73578366 -0.09810296 4.36794773 0 0 Z " fill="#EEF6FE" transform="translate(80,36)"/>
<path d="M0 0 C1.32 0 2.64 0 4 0 C4.33 3.3 4.66 6.6 5 10 C7.97 10.495 7.97 10.495 11 11 C11 13.31 11 15.62 11 18 C11.85722656 17.566875 12.71445312 17.13375 13.59765625 16.6875 C14.74105469 16.130625 15.88445313 15.57375 17.0625 15 C18.18785156 14.443125 19.31320313 13.88625 20.47265625 13.3125 C24.23526333 11.91246016 27.02067309 11.7566781 31 12 C29.64844718 16.42326378 27.80109562 18.40412982 24 21 C17.9658316 23.01138947 11.23494967 23.07756502 5.5 20.3125 C0.65632637 15.83210189 -2.57796315 11.75258962 -3 5 C-1.875 2 -1.875 2 0 0 Z " fill="#ACD1FC" transform="translate(22,74)"/>
<path d="M0 0 C0.33 0 0.66 0 1 0 C1.92891436 11.16356008 2.1109084 22.30470314 2.125 33.5 C2.12749756 34.20706085 2.12999512 34.9141217 2.13256836 35.64260864 C2.13843909 37.66798059 2.13580144 39.69337175 2.1328125 41.71875 C2.13168457 42.90404297 2.13055664 44.08933594 2.12939453 45.31054688 C2 48 2 48 1 49 C-0.35914989 49.09612755 -1.72314859 49.12515365 -3.08569336 49.12597656 C-4.38856544 49.13168671 -4.38856544 49.13168671 -5.71775818 49.13751221 C-6.66554642 49.13853943 -7.61333466 49.13956665 -8.58984375 49.140625 C-10.59180809 49.15897065 -12.5937615 49.17854255 -14.59570312 49.19921875 C-17.75547452 49.22805725 -20.91455187 49.24999643 -24.07446289 49.25048828 C-27.12188448 49.25384897 -30.16770317 49.28857507 -33.21484375 49.328125 C-34.14441391 49.3210553 -35.07398407 49.3139856 -36.03172302 49.30670166 C-42.24799732 49.42046783 -46.50543099 50.8267153 -51.8986969 53.92987061 C-54 55 -54 55 -57 55 C-57 52.69 -57 50.38 -57 48 C-57.969375 48.020625 -58.93875 48.04125 -59.9375 48.0625 C-63 48 -63 48 -64 47 C-64.07205511 45.31391034 -64.08386068 43.62499341 -64.0625 41.9375 C-64.05347656 41.01839844 -64.04445313 40.09929687 -64.03515625 39.15234375 C-64.02355469 38.44207031 -64.01195313 37.73179688 -64 37 C-63.34 37 -62.68 37 -62 37 C-61.67 39.97 -61.34 42.94 -61 46 C-59.02 46.33 -57.04 46.66 -55 47 C-55 48.65 -55 50.3 -55 52 C-54.40111969 51.64726517 -53.80223938 51.29453033 -53.18521118 50.93110657 C-46.73701174 47.38592691 -41.70317065 46.26056001 -34.3984375 46.29296875 C-33.11610229 46.27103455 -33.11610229 46.27103455 -31.80786133 46.24865723 C-28.66385629 46.20186728 -25.51933875 46.19703108 -22.375 46.1875 C-15.32125 46.125625 -8.2675 46.06375 -1 46 C-0.67 30.82 -0.34 15.64 0 0 Z " fill="#023F84" transform="translate(90,37)"/>
<path d="M0 0 C5.30277118 0.42764284 8.78053696 2.13484567 12.546875 6.05078125 C15.23606921 10.6303208 14.58695704 16.19935399 13.875 21.3125 C12.46062249 23.94219447 11.44936236 24.65755277 8.875 26.3125 C8.215 26.3125 7.555 26.3125 6.875 26.3125 C6.81441406 25.09691406 6.75382812 23.88132812 6.69140625 22.62890625 C6.60701668 21.04425772 6.5223679 19.45962298 6.4375 17.875 C6.39818359 17.07255859 6.35886719 16.27011719 6.31835938 15.44335938 C6.4695704 11.56010439 6.4695704 11.56010439 4.875 8.3125 C3.36030552 8.08057135 1.83745438 7.90034762 0.3125 7.75 C-0.51378906 7.66621094 -1.34007813 7.58242188 -2.19140625 7.49609375 C-2.82949219 7.43550781 -3.46757813 7.37492187 -4.125 7.3125 C-4.16754356 5.31295254 -4.16580783 3.31208364 -4.125 1.3125 C-3.125 0.3125 -3.125 0.3125 0 0 Z " fill="#B3D5FD" transform="translate(85.125,26.6875)"/>
<path d="M0 0 C1.32 0 2.64 0 4 0 C4 13.86 4 27.72 4 42 C3.01 42 2.02 42 1 42 C0.505 40.515 0.505 40.515 0 39 C0.66 38.34 1.32 37.68 2 37 C1.73609172 35.03361114 1.73609172 35.03361114 1 33 C-1.26013771 25.84560726 -1.05177766 19.45153796 -0.625 12 C-0.56828125 10.84371094 -0.5115625 9.68742187 -0.453125 8.49609375 C-0.31265816 5.66334577 -0.16135145 2.8316222 0 0 Z " fill="#9DC9FB" transform="translate(85,36)"/>
<path d="M0 0 C1.06367294 0.00222061 2.12734589 0.00444122 3.22325134 0.00672913 C5.02500572 0.00684242 5.02500572 0.00684242 6.86315918 0.00695801 C8.17042465 0.01211929 9.47769012 0.01728058 10.8245697 0.02259827 C12.16835477 0.02446253 13.51214052 0.02588639 14.85592651 0.02688599 C18.39873622 0.0307105 21.94150515 0.0405402 25.48429871 0.05158997 C29.09706572 0.06180552 32.7098393 0.06638392 36.32261658 0.07142639 C43.41573225 0.08216254 50.50882019 0.09923816 57.60191345 0.12025452 C57.60191345 2.43025452 57.60191345 4.74025452 57.60191345 7.12025452 C37.47191345 7.12025452 17.34191345 7.12025452 -3.39808655 7.12025452 C-3.39808655 0.17040055 -3.39808655 0.17040055 0 0 Z M-2.39808655 1.12025452 C-2.39808655 2.77025452 -2.39808655 4.42025452 -2.39808655 6.12025452 C16.41191345 6.12025452 35.22191345 6.12025452 54.60191345 6.12025452 C54.93191345 4.47025452 55.26191345 2.82025452 55.60191345 1.12025452 C36.46191345 1.12025452 17.32191345 1.12025452 -2.39808655 1.12025452 Z " fill="#86BBF7" transform="translate(20.398086547851563,19.879745483398438)"/>
<path d="M0 0 C0.99 0 1.98 0 3 0 C3.33 1.32 3.66 2.64 4 4 C5.65 4.33 7.3 4.66 9 5 C8.67 5.99 8.34 6.98 8 8 C7.34 8 6.68 8 6 8 C6 9.98 6 11.96 6 14 C2.7 14 -0.6 14 -4 14 C-6 7.375 -6 7.375 -6 4 C-4.35 4 -2.7 4 -1 4 C-0.67 2.68 -0.34 1.36 0 0 Z " fill="#2064B1" transform="translate(28,33)"/>
<path d="M0 0 C0.99 0 1.98 0 3 0 C3.33 1.32 3.66 2.64 4 4 C5.65 4 7.3 4 9 4 C8.67 5.32 8.34 6.64 8 8 C7.34 8 6.68 8 6 8 C6 9.98 6 11.96 6 14 C2.7 14 -0.6 14 -4 14 C-4.66 10.7 -5.32 7.4 -6 4 C-4.35 4 -2.7 4 -1 4 C-0.67 2.68 -0.34 1.36 0 0 Z " fill="#2167B6" transform="translate(65,33)"/>
<path d="M0 0 C3 1 3 1 4 3 C5.64363134 3.72159424 7.31050386 4.39351421 9 5 C8.01 6.485 8.01 6.485 7 8 C6.60986284 9.9896995 6.26797351 11.99019869 6 14 C2.7 14 -0.6 14 -4 14 C-6 7.375 -6 7.375 -6 4 C-5.38125 3.896875 -4.7625 3.79375 -4.125 3.6875 C-1.63473516 3.12474627 -1.63473516 3.12474627 0 0 Z " fill="#1A5FAE" transform="translate(47,33)"/>
<path d="M0 0 C-1.35155282 4.42326378 -3.19890438 6.40412982 -7 9 C-10.23872132 10.07957377 -12.66028205 10.13326784 -16.0625 10.125 C-17.12597656 10.12757812 -18.18945312 10.13015625 -19.28515625 10.1328125 C-22 10 -22 10 -24 9 C-24 8.34 -24 7.68 -24 7 C-19.545 6.505 -19.545 6.505 -15 6 C-14.67 5.01 -14.34 4.02 -14 3 C-9.11239987 0.36069593 -5.63797249 -0.34518199 0 0 Z " fill="#AFD2FC" transform="translate(53,86)"/>
<path d="M0 0 C0.66 0 1.32 0 2 0 C2.33 2.97 2.66 5.94 3 9 C5.97 9.495 5.97 9.495 9 10 C9 11.65 9 13.3 9 15 C9.6290625 14.62746094 10.258125 14.25492188 10.90625 13.87109375 C16.88321403 10.56756092 20.3165216 9.39101446 27 11 C27 11.33 27 11.66 27 12 C26.443125 12.09796875 25.88625 12.1959375 25.3125 12.296875 C20.3024906 13.27856603 16.17738787 14.68599943 11.7265625 17.1953125 C10 18 10 18 7 18 C7 15.69 7 13.38 7 11 C5.5459375 11.0309375 5.5459375 11.0309375 4.0625 11.0625 C1 11 1 11 0 10 C-0.07205511 8.31391034 -0.08386068 6.62499341 -0.0625 4.9375 C-0.05347656 4.01839844 -0.04445313 3.09929687 -0.03515625 2.15234375 C-0.02355469 1.44207031 -0.01195313 0.73179688 0 0 Z " fill="#0E53A2" transform="translate(26,74)"/>
<path d="M0 0 C0.33 0 0.66 0 1 0 C1 13.53 1 27.06 1 41 C0.01 41 -0.98 41 -2 41 C-2.495 39.515 -2.495 39.515 -3 38 C-2.34 37.34 -1.68 36.68 -1 36 C-1.29485154 34.14733927 -1.29485154 34.14733927 -2 32 C-2.34578768 30.00211562 -2.68143549 28.00240549 -3 26 C-2.34 26 -1.68 26 -1 26 C-0.67 17.42 -0.34 8.84 0 0 Z " fill="#ADD3FF" transform="translate(88,37)"/>
<path d="M0 0 C1.32 0.33 2.64 0.66 4 1 C4.1875 3.375 4.1875 3.375 4 6 C3.01 6.66 2.02 7.32 1 8 C0 2.25 0 2.25 0 0 Z M0 8 C0.66 8.33 1.32 8.66 2 9 C2 9.66 2 10.32 2 11 C2.66 11 3.32 11 4 11 C4 11.66 4 12.32 4 13 C3.34 13 2.68 13 2 13 C2 13.66 2 14.32 2 15 C1.34 15 0.68 15 0 15 C0 14.34 0 13.68 0 13 C-0.66 13 -1.32 13 -2 13 C-2 12.34 -2 11.68 -2 11 C-1.34 11 -0.68 11 0 11 C0 10.01 0 9.02 0 8 Z " fill="#7EB3F0" transform="translate(84,67)"/>
<path d="M0 0 C0.99 0 1.98 0 3 0 C2.67 0.99 2.34 1.98 2 3 C1.34 3 0.68 3 0 3 C0 4.98 0 6.96 0 9 C-2.97 9 -5.94 9 -9 9 C-9 7.02 -9 5.04 -9 3 C-8.34 3 -7.68 3 -7 3 C-7 3.99 -7 4.98 -7 6 C-5.35 6 -3.7 6 -2 6 C-1.855625 5.38125 -1.71125 4.7625 -1.5625 4.125 C-1 2 -1 2 0 0 Z " fill="#11529C" transform="translate(71,38)"/>
<path d="M0 0 C2.475 0.99 2.475 0.99 5 2 C4.67 3.65 4.34 5.3 4 7 C2.35 7 0.7 7 -1 7 C-1.66 5.35 -2.32 3.7 -3 2 C-2.01 2 -1.02 2 0 2 C0 1.34 0 0.68 0 0 Z " fill="#D1E6FD" transform="translate(65,37)"/>
<path d="M0 0 C1.11375 0.556875 1.11375 0.556875 2.25 1.125 C1.59 2.775 0.93 4.425 0.25 6.125 C-1.4 6.125 -3.05 6.125 -4.75 6.125 C-5.41 4.475 -6.07 2.825 -6.75 1.125 C-4.02098495 -0.69434337 -3.21400584 -1.02263822 0 0 Z " fill="#CFE4FC" transform="translate(31.75,37.875)"/>
<path d="M0 0 C1.65 0 3.3 0 5 0 C4.67 2.31 4.34 4.62 4 7 C5.32 7.33 6.64 7.66 8 8 C6.02 8.66 4.04 9.32 2 10 C0 3.375 0 3.375 0 0 Z " fill="#1054A1" transform="translate(41,37)"/>
<path d="M0 0 C1.65 0 3.3 0 5 0 C5 1.32 5 2.64 5 4 C4.34 4 3.68 4 3 4 C3 5.98 3 7.96 3 10 C1.02 9.34 -0.96 8.68 -3 8 C-1.68 7.67 -0.36 7.34 1 7 C1.33 5.68 1.66 4.36 2 3 C1.34 2.67 0.68 2.34 0 2 C0 1.34 0 0.68 0 0 Z " fill="#0D509C" transform="translate(31,37)"/>
<path d="M0 0 C0 0.66 0 1.32 0 2 C0.99 2.33 1.98 2.66 3 3 C2.34 4.32 1.68 5.64 1 7 C-0.65 7 -2.3 7 -4 7 C-4.33 5.35 -4.66 3.7 -5 2 C-2 0 -2 0 0 0 Z " fill="#D4E7FD" transform="translate(49,37)"/>
<path d="M0 0 C3.3 0 6.6 0 10 0 C10.33 0.99 10.66 1.98 11 3 C9.54176788 3.0270043 8.08339325 3.04639787 6.625 3.0625 C5.81289063 3.07410156 5.00078125 3.08570312 4.1640625 3.09765625 C2 3 2 3 0 2 C0 1.34 0 0.68 0 0 Z " fill="#E8E7E6" transform="translate(29,93)"/>
<path d="M0 0 C0.66 0 1.32 0 2 0 C2 0.66 2 1.32 2 2 C2.66 2 3.32 2 4 2 C4 2.66 4 3.32 4 4 C3.34 4 2.68 4 2 4 C2 4.66 2 5.32 2 6 C1.34 6 0.68 6 0 6 C0 5.34 0 4.68 0 4 C-0.66 4 -1.32 4 -2 4 C-2 3.34 -2 2.68 -2 2 C-1.34 2 -0.68 2 0 2 C0 1.34 0 0.68 0 0 Z " fill="#0B52A2" transform="translate(84,76)"/>
<path d="M0 0 C0 0.33 0 0.66 0 1 C-1.62171239 1.38897161 -3.24754925 1.76078298 -4.875 2.125 C-5.77992187 2.33382812 -6.68484375 2.54265625 -7.6171875 2.7578125 C-8.40351562 2.83773437 -9.18984375 2.91765625 -10 3 C-10.66 2.34 -11.32 1.68 -12 1 C-8.00439392 -1.83022097 -4.57262677 -0.76210446 0 0 Z " fill="#236ABB" transform="translate(53,85)"/>
<path d="M0 0 C0.99 0 1.98 0 3 0 C3.33 1.32 3.66 2.64 4 4 C2.68 4.33 1.36 4.66 0 5 C-0.5625 3.0625 -0.5625 3.0625 -1 1 C-0.67 0.67 -0.34 0.34 0 0 Z " fill="#2A6FBD" transform="translate(28,33)"/>
</svg>
