<?xml version="1.0" encoding="UTF-8"?>
<svg version="1.1" xmlns="http://www.w3.org/2000/svg" width="106" height="106">
<path d="M0 0 C5.0593225 2.99811703 9.67991031 7.85200812 12.31640625 13.125 C13.2203883 23.56084346 13.29905029 31.66685677 6.31640625 40.125 C6.97640625 41.115 7.63640625 42.105 8.31640625 43.125 C8.12890625 45.25 8.12890625 45.25 7.31640625 47.125 C5.83140625 47.62 5.83140625 47.62 4.31640625 48.125 C3.98640625 54.395 3.65640625 60.665 3.31640625 67.125 C0.04751686 68.29737387 -3.22348319 69.46309988 -6.49609375 70.625 C-7.42486328 70.95886719 -8.35363281 71.29273437 -9.31054688 71.63671875 C-10.20322266 71.95253906 -11.09589844 72.26835938 -12.015625 72.59375 C-13.24889526 73.03364258 -13.24889526 73.03364258 -14.50708008 73.48242188 C-16.68359375 74.125 -16.68359375 74.125 -19.68359375 74.125 C-19.96203125 75.176875 -19.96203125 75.176875 -20.24609375 76.25 C-22.32116803 80.40014857 -24.46714401 83.05460624 -28.68359375 85.125 C-34.88079599 86.0822914 -40.51545055 86.05954448 -46.30859375 83.5625 C-49.20719266 80.58762217 -50.7981043 77.82864 -52.68359375 74.125 C-55.05257641 70.571526 -56.32753006 70.3526788 -60.24609375 68.9375 C-63.23828125 67.6328125 -63.23828125 67.6328125 -65.68359375 66.125 C-66.72878998 62.76937001 -66.93221291 61.42375175 -66.68359375 58.125 C-66.72210057 56.68741189 -66.76367494 55.24990205 -66.80859375 53.8125 C-66.68359375 50.125 -66.68359375 50.125 -65.68359375 47.125 C-67.00359375 46.795 -68.32359375 46.465 -69.68359375 46.125 C-69.35359375 44.475 -69.02359375 42.825 -68.68359375 41.125 C-69.57046875 40.91875 -70.45734375 40.7125 -71.37109375 40.5 C-75.41990356 38.81936197 -77.91914623 37.13781524 -79.68359375 33.125 C-80.54945707 28.00143285 -81.13767307 22.61511083 -78.43359375 17.984375 C-74.66478692 14.10250396 -71.17210441 12.96705233 -65.93359375 12.8125 C-60.69357034 12.85846512 -57.89782055 14.05212629 -53.68359375 17.125 C-53.02359375 18.115 -52.36359375 19.105 -51.68359375 20.125 C-51.00296875 19.980625 -50.32234375 19.83625 -49.62109375 19.6875 C-46.32093219 19.05555417 -43.01078542 18.59135549 -39.68359375 18.125 C-39.69519531 17.05378906 -39.70679688 15.98257812 -39.71875 14.87890625 C-39.72812674 13.48177257 -39.73722706 12.08463701 -39.74609375 10.6875 C-39.75447266 9.98044922 -39.76285156 9.27339844 -39.77148438 8.54492188 C-39.78012963 6.73806441 -39.73579386 4.93112397 -39.68359375 3.125 C-37.54410501 0.98551126 -32.32830179 1.72484113 -29.31835938 1.60742188 C-25.3818064 1.43040815 -25.3818064 1.43040815 -21.71875 0.1171875 C-16.00671948 -2.66756442 -5.99395306 -1.95436024 0 0 Z " fill="#135DB1" transform="translate(86.68359375,10.875)"/>
<path d="M0 0 C3 1 3 1 5 4 C4.8125 6.125 4.8125 6.125 4 8 C3.01 8.33 2.02 8.66 1 9 C0.67 15.27 0.34 21.54 0 28 C-3.26888939 29.17237387 -6.53988944 30.33809988 -9.8125 31.5 C-10.74126953 31.83386719 -11.67003906 32.16773438 -12.62695312 32.51171875 C-13.51962891 32.82753906 -14.41230469 33.14335938 -15.33203125 33.46875 C-16.15421143 33.76201172 -16.9763916 34.05527344 -17.82348633 34.35742188 C-20 35 -20 35 -23 35 C-23.2784375 36.051875 -23.2784375 36.051875 -23.5625 37.125 C-25.63757428 41.27514857 -27.78355026 43.92960624 -32 46 C-38.19720224 46.9572914 -43.8318568 46.93454448 -49.625 44.4375 C-52.52359891 41.46262217 -54.11451055 38.70364 -56 35 C-58.36898266 31.446526 -59.64393631 31.2276788 -63.5625 29.8125 C-66.5546875 28.5078125 -66.5546875 28.5078125 -69 27 C-70.04519623 23.64437001 -70.24861916 22.29875175 -70 19 C-70.03850682 17.56241189 -70.08008119 16.12490205 -70.125 14.6875 C-70 11 -70 11 -69 8 C-70.32 7.67 -71.64 7.34 -73 7 C-72.67 5.35 -72.34 3.7 -72 2 C-71.01 2 -70.02 2 -69 2 C-69.33 3.32 -69.66 4.64 -70 6 C-69.29617187 5.94972656 -68.59234375 5.89945313 -67.8671875 5.84765625 C-64.46541269 6.0284045 -62.21445689 7.02116457 -59.125 8.4375 C-54.21638919 10.59675195 -54.21638919 10.59675195 -49 11.625 C-45.69768156 12.03778981 -44.51335604 12.93545754 -42 15 C-41.01 15 -40.02 15 -39 15 C-38.01 12.69 -37.02 10.38 -36 8 C-34.35 8 -32.7 8 -31 8 C-30.855625 8.78375 -30.71125 9.5675 -30.5625 10.375 C-30.12201075 12.96421018 -30.12201075 12.96421018 -29 15 C-28.19949219 14.72736328 -28.19949219 14.72736328 -27.3828125 14.44921875 C-22.44891771 12.78466947 -17.49368225 11.23641554 -12.5 9.76171875 C-9.24329409 8.76944117 -6.02741402 7.67026024 -2.8125 6.55078125 C-1 6 -1 6 1 6 C0.505 3.03 0.505 3.03 0 0 Z " fill="#04438A" transform="translate(90,50)"/>
<path d="M0 0 C2.9375 2.375 2.9375 2.375 3.875 5.625 C3.895625 6.5325 3.91625 7.44 3.9375 8.375 C4.948125 8.065625 5.95875 7.75625 7 7.4375 C10.6106369 6.39852081 14.20624647 5.83188819 17.9375 5.375 C17.9375 7.355 17.9375 9.335 17.9375 11.375 C14.9675 11.375 11.9975 11.375 8.9375 11.375 C9.4325 13.355 9.4325 13.355 9.9375 15.375 C7.9575 16.365 7.9575 16.365 5.9375 17.375 C7.030625 17.148125 8.12375 16.92125 9.25 16.6875 C12.91656081 16.61509036 14.01422901 17.43805254 16.91796875 19.82421875 C19.71513512 22.56373944 22.34642398 25.44098745 24.9375 28.375 C29.57405897 26.46582866 32.24530732 22.94540665 35.5234375 19.2734375 C37.9375 17.375 37.9375 17.375 41.03125 17.01171875 C44.50696249 17.44618281 46.87501029 18.71060342 49.9375 20.375 C52.17275035 21.06136625 52.17275035 21.06136625 53.9375 21.375 C53.9375 22.035 53.9375 22.695 53.9375 23.375 C55.9175 24.035 57.8975 24.695 59.9375 25.375 C60.4325 27.85 60.4325 27.85 60.9375 30.375 C60.28523438 30.55675781 59.63296875 30.73851562 58.9609375 30.92578125 C53.9801285 32.35831481 49.56185455 34.01362747 44.9375 36.375 C40.35880277 38.09201146 35.77610463 39.5945799 30.9375 40.375 C29.375 38.625 29.375 38.625 27.9375 36.375 C28.25 34.125 28.25 34.125 28.9375 32.375 C27.2875 32.375 25.6375 32.375 23.9375 32.375 C23.751875 33.5196875 23.751875 33.5196875 23.5625 34.6875 C22.9375 37.375 22.9375 37.375 20.9375 40.375 C16.1875 39.625 16.1875 39.625 13.9375 37.375 C11.81161174 36.83896229 11.81161174 36.83896229 9.375 36.5 C4.83329423 35.67960517 1.07134137 34.24080821 -3.078125 32.26171875 C-5.36867339 31.2381863 -7.57639597 30.69578762 -10.0625 30.375 C-9.7325 29.055 -9.4025 27.735 -9.0625 26.375 C-10.09375 26.313125 -11.125 26.25125 -12.1875 26.1875 C-16.99202697 25.18009918 -18.59779968 23.75720746 -22.0625 20.375 C-24.29245226 15.91509548 -23.69519566 10.20223356 -23.0625 5.375 C-18.4794533 -2.63082841 -7.83546869 -3.90962309 0 0 Z " fill="#3072BD" transform="translate(30.0625,25.625)"/>
<path d="M0 0 C1.13949097 0.00858032 1.13949097 0.00858032 2.30200195 0.01733398 C9.50487853 0.24758416 13.45695175 2.16939052 18.453125 7.3203125 C24.5450889 14.12395443 24.38339761 20.64354024 23.92285156 29.48486328 C23.51254248 32.99802836 22.18718874 35.50506866 20.171875 38.34765625 C18.6875 39.5 18.6875 39.5 14.6875 39.5 C14.996875 38.778125 15.30625 38.05625 15.625 37.3125 C16.61493907 34.69207305 17.17549991 32.24450501 17.6875 29.5 C16.86507812 29.25765625 16.04265625 29.0153125 15.1953125 28.765625 C9.00682253 26.9076488 2.96094995 24.93682589 -2.99609375 22.4296875 C-5.7237247 21.33495535 -8.52420874 20.42943042 -11.3125 19.5 C-11.3125 14.55 -11.3125 9.6 -11.3125 4.5 C-11.9725 4.17 -12.6325 3.84 -13.3125 3.5 C-9.03104092 0.32479563 -5.17594344 -0.04469336 0 0 Z " fill="#B3D6FD" transform="translate(75.3125,9.5)"/>
<path d="M0 0 C7.86264644 1.12323521 7.86264644 1.12323521 11.26171875 2.41015625 C12.35129883 2.81137695 12.35129883 2.81137695 13.46289062 3.22070312 C14.19701172 3.49849609 14.93113281 3.77628906 15.6875 4.0625 C17.16834611 4.62181698 18.65136555 5.17542086 20.13671875 5.72265625 C20.78342529 5.96765869 21.43013184 6.21266113 22.09643555 6.46508789 C24.3122593 7.18035164 24.3122593 7.18035164 28 7 C28.99 5.68 29.98 4.36 31 3 C31 10.59 31 18.18 31 26 C20.18448417 23.59655204 10.22368644 20.20975324 0 16 C0 10.72 0 5.44 0 0 Z " fill="#FBFDFF" transform="translate(24,60)"/>
<path d="M0 0 C0 1.98 0 3.96 0 6 C-2.97 6 -5.94 6 -9 6 C-8.67 7.32 -8.34 8.64 -8 10 C-9.98 10.99 -9.98 10.99 -12 12 C-10.906875 11.773125 -9.81375 11.54625 -8.6875 11.3125 C-5.02093919 11.24009036 -3.92327099 12.06305254 -1.01953125 14.44921875 C1.77763512 17.18873944 4.40892398 20.06598745 7 23 C11.63655897 21.09082866 14.30780732 17.57040665 17.5859375 13.8984375 C20 12 20 12 22.984375 11.6015625 C25.99542888 11.99939604 28.15355241 12.68051026 30.875 14 C32.04675781 14.556875 32.04675781 14.556875 33.2421875 15.125 C33.82226562 15.41375 34.40234375 15.7025 35 16 C33.01242597 19.97514807 27.00114566 20.73222728 23 22.125 C21.98292969 22.49753906 20.96585938 22.87007812 19.91796875 23.25390625 C13.66572628 25.44500021 8.62130097 26.42762569 2 26 C2 25.34 2 24.68 2 24 C0.7625 23.7525 -0.475 23.505 -1.75 23.25 C-7.60968651 21.94370046 -13.45137076 20.30592384 -19 18 C-19.33 17.34 -19.66 16.68 -20 16 C-18.68 15.34 -17.36 14.68 -16 14 C-20.455 14.495 -20.455 14.495 -25 15 C-27 12 -27 12 -27 9 C-26.31035156 8.75765625 -25.62070312 8.5153125 -24.91015625 8.265625 C-19.48403916 6.33038434 -14.18910454 4.27937428 -8.97265625 1.83203125 C-5.87164887 0.5240816 -3.37524371 0 0 0 Z " fill="#DBECFF" transform="translate(48,31)"/>
<path d="M0 0 C0 5.28 0 10.56 0 16 C-1.27875 16.4125 -2.5575 16.825 -3.875 17.25 C-9.00564233 18.95752932 -13.99038172 20.97037973 -19 23 C-26.5 26 -26.5 26 -30 26 C-30 19.07 -30 12.14 -30 5 C-29.01 5.495 -29.01 5.495 -28 6 C-28 6.66 -28 7.32 -28 8 C-25.47764087 7.23390533 -22.95719261 6.46227773 -20.4375 5.6875 C-19.73302734 5.47416016 -19.02855469 5.26082031 -18.30273438 5.04101562 C-14.85710147 3.97715662 -11.56195382 2.84296448 -8.28515625 1.33203125 C-5 0 -5 0 0 0 Z " fill="#F8FBFF" transform="translate(87,60)"/>
<path d="M0 0 C3.96 0 7.92 0 12 0 C12 7.59 12 15.18 12 23 C14.31 23 16.62 23 19 23 C15.19524578 27.56030824 11.25030379 31.85089392 7 36 C3.84375314 34.61263874 1.80136567 32.99607292 -0.5625 30.5 C-2.67524223 28.27903267 -4.41613626 26.72257583 -7 25 C-7 24.34 -7 23.68 -7 23 C-4.69 23 -2.38 23 0 23 C0 15.41 0 7.82 0 0 Z " fill="#F9FCFE" transform="translate(50,16)"/>
<path d="M0 0 C2.9375 2.375 2.9375 2.375 3.9375 8.375 C-1.0125 10.025 -5.9625 11.675 -11.0625 13.375 C-10.33479902 17.77413672 -10.33479902 17.77413672 -9.375 22.125 C-9.271875 22.8675 -9.16875 23.61 -9.0625 24.375 C-9.7225 25.035 -10.3825 25.695 -11.0625 26.375 C-16.01959111 26.23730302 -18.59388544 23.60711811 -22.0625 20.375 C-24.29245226 15.91509548 -23.69519566 10.20223356 -23.0625 5.375 C-18.4794533 -2.63082841 -7.83546869 -3.90962309 0 0 Z " fill="#B1D5FD" transform="translate(30.0625,25.625)"/>
<path d="M0 0 C5.08743722 1.00080732 9.54817735 2.20023328 14.3125 4.25 C20.5394534 6.64905287 25.67324399 5.63413593 32 4 C31.23250995 8.15347554 29.66298975 10.14607269 26.4296875 12.7890625 C21.27833483 15.35645692 15.56553331 14.76835094 10 14 C4.51392112 11.63531083 2.47108343 8.22729187 0 3 C0 2.01 0 1.02 0 0 Z " fill="#B2D5FD" transform="translate(34,82)"/>
<path d="M0 0 C0.495 2.475 0.495 2.475 1 5 C0.34773438 5.18175781 -0.30453125 5.36351562 -0.9765625 5.55078125 C-5.9573715 6.98331481 -10.37564545 8.63862747 -15 11 C-19.57869723 12.71701146 -24.16139537 14.2195799 -29 15 C-30.5625 13.1875 -30.5625 13.1875 -32 11 C-31 8 -31 8 -28.953125 6.97265625 C-28.06109375 6.67230469 -27.1690625 6.37195312 -26.25 6.0625 C-25.26644531 5.72734375 -24.28289062 5.3921875 -23.26953125 5.046875 C-18.74350561 3.5976816 -14.20623286 2.19115868 -9.65234375 0.83203125 C-3.98859556 -0.94466737 -3.98859556 -0.94466737 0 0 Z " fill="#F0F7FF" transform="translate(90,51)"/>
<path d="M0 0 C6.21473574 0.74695269 11.87449099 2.87559777 17.75 4.9375 C18.80316406 5.29779297 19.85632813 5.65808594 20.94140625 6.02929688 C21.94558594 6.37927734 22.94976562 6.72925781 23.984375 7.08984375 C24.89928711 7.40816162 25.81419922 7.72647949 26.75683594 8.05444336 C29 9 29 9 31 11 C30.01 12.65 29.02 14.3 28 16 C23.25 15.25 23.25 15.25 21 13 C18.87411174 12.46396229 18.87411174 12.46396229 16.4375 12.125 C11.89579423 11.30460517 8.13384137 9.86580821 3.984375 7.88671875 C1.69382661 6.8631863 -0.51389597 6.32078762 -3 6 C-1.125 1.125 -1.125 1.125 0 0 Z " fill="#F8FBFF" transform="translate(23,50)"/>
<path d="M0 0 C0.33 0 0.66 0 1 0 C1 4.29 1 8.58 1 13 C2.44375 13.2475 3.8875 13.495 5.375 13.75 C10.08882447 14.67939234 14.28313366 16.173604 18.67578125 18.09765625 C21.10375291 19.04028054 23.43735123 19.56004083 26 20 C25.94779297 18.75283203 25.94779297 18.75283203 25.89453125 17.48046875 C25.86746094 16.39378906 25.84039062 15.30710937 25.8125 14.1875 C25.77769531 13.10855469 25.74289063 12.02960938 25.70703125 10.91796875 C26 8 26 8 27.38671875 6.23828125 C28.18529297 5.62533203 28.18529297 5.62533203 29 5 C29.66 4.34 30.32 3.68 31 3 C31 10.59 31 18.18 31 26 C20.18448417 23.59655204 10.22368644 20.20975324 0 16 C0 10.72 0 5.44 0 0 Z " fill="#95C6FC" transform="translate(24,60)"/>
<path d="M0 0 C0 1.98 0 3.96 0 6 C-2.97 6 -5.94 6 -9 6 C-8.67 7.32 -8.34 8.64 -8 10 C-9.98 10.99 -9.98 10.99 -12 12 C-10.68 12.33 -9.36 12.66 -8 13 C-12.16414929 15.08207465 -14.50086561 14.82637162 -19 14 C-22.26410357 14.37617294 -22.26410357 14.37617294 -25 15 C-27 12 -27 12 -27 9 C-26.31035156 8.75765625 -25.62070312 8.5153125 -24.91015625 8.265625 C-19.48403916 6.33038434 -14.18910454 4.27937428 -8.97265625 1.83203125 C-5.87164887 0.5240816 -3.37524371 0 0 0 Z " fill="#F0F6FE" transform="translate(48,31)"/>
<path d="M0 0 C9.15048279 2.56303449 18.06006196 5.79531223 27 9 C26.34 10.98 25.68 12.96 25 15 C18.99522721 14.35083537 13.599219 12.14204997 8 10 C8.33 8.68 8.66 7.36 9 6 C6.03 6 3.06 6 0 6 C0 4.02 0 2.04 0 0 Z " fill="#E7F2FE" transform="translate(64,31)"/>
<path d="M0 0 C1.65 0 3.3 0 5 0 C5 5.28 5 10.56 5 16 C3.72125 16.4125 2.4425 16.825 1.125 17.25 C-4.00564233 18.95752932 -8.99038172 20.97037973 -14 23 C-21.5 26 -21.5 26 -25 26 C-25 24.35 -25 22.7 -25 21 C-24.27296875 20.84144531 -23.5459375 20.68289062 -22.796875 20.51953125 C-16.01985676 18.94691548 -9.84055067 16.8445507 -3.49609375 13.98828125 C-1 13 -1 13 2 13 C2 9.04 2 5.08 2 1 C1.34 0.67 0.68 0.34 0 0 Z " fill="#A0CCFD" transform="translate(82,60)"/>
<path d="M0 0 C3.50072602 0.19448478 5.01418811 1.01103519 7.8125 3.1875 C10.35683282 6.45878506 10.46963359 7.96115115 10 12 C2.84976621 10.56995324 -4.2506672 8.80491753 -11 6 C-11.33 5.34 -11.66 4.68 -12 4 C-11.21753906 3.79503906 -10.43507813 3.59007812 -9.62890625 3.37890625 C-8.61699219 3.10949219 -7.60507812 2.84007812 -6.5625 2.5625 C-5.55316406 2.29566406 -4.54382812 2.02882812 -3.50390625 1.75390625 C-1.08247999 1.24021923 -1.08247999 1.24021923 0 0 Z " fill="#F2F8FF" transform="translate(40,43)"/>
<path d="M0 0 C0.33 0 0.66 0 1 0 C1 7.59 1 15.18 1 23 C-1.31 23 -3.62 23 -6 23 C-4.9790625 24.0209375 -4.9790625 24.0209375 -3.9375 25.0625 C-0.625 28.375 2.6875 31.6875 6 35 C9.45201639 33.52278578 11.64961936 31.56205999 14.25 28.875 C15.30960938 27.78832031 15.30960938 27.78832031 16.390625 26.6796875 C16.92171875 26.12539063 17.4528125 25.57109375 18 25 C19.32 25.66 20.64 26.32 22 27 C21.27425781 27.39832031 20.54851562 27.79664062 19.80078125 28.20703125 C16.84075947 30.10194059 14.63211638 32.16991 12.1875 34.6875 C11.00220703 35.89986328 11.00220703 35.89986328 9.79296875 37.13671875 C9.20128906 37.75160156 8.60960938 38.36648437 8 39 C4.32514732 37.49702654 2.39727312 35.34113308 -0.1875 32.375 C-3.3751945 29.01283899 -3.3751945 29.01283899 -7.5859375 27.41015625 C-10.31673533 27.38644208 -10.31673533 27.38644208 -14 28 C-13 26 -13 26 -10 25 C-10 23.68 -10 22.36 -10 21 C-6.7 21.33 -3.4 21.66 0 22 C0 14.74 0 7.48 0 0 Z " fill="#1C61B0" transform="translate(49,16)"/>
<path d="M0 0 C1.93166016 0.01740234 1.93166016 0.01740234 3.90234375 0.03515625 C5.19269531 0.04417969 6.48304687 0.05320312 7.8125 0.0625 C8.81152344 0.07410156 9.81054688 0.08570313 10.83984375 0.09765625 C11.16984375 1.08765625 11.49984375 2.07765625 11.83984375 3.09765625 C7.21984375 3.09765625 2.59984375 3.09765625 -2.16015625 3.09765625 C-2.16015625 10.35765625 -2.16015625 17.61765625 -2.16015625 25.09765625 C-4.14015625 25.09765625 -6.12015625 25.09765625 -8.16015625 25.09765625 C-8.16015625 24.76765625 -8.16015625 24.43765625 -8.16015625 24.09765625 C-6.51015625 24.09765625 -4.86015625 24.09765625 -3.16015625 24.09765625 C-3.16015625 22.11765625 -3.16015625 20.13765625 -3.16015625 18.09765625 C-3.99160156 18.39800781 -4.82304688 18.69835937 -5.6796875 19.0078125 C-6.76636719 19.38808594 -7.85304688 19.76835938 -8.97265625 20.16015625 C-10.05160156 20.54300781 -11.13054688 20.92585938 -12.2421875 21.3203125 C-15.16015625 22.09765625 -15.16015625 22.09765625 -18.16015625 21.09765625 C-16.16015625 18.09765625 -16.16015625 18.09765625 -13.97265625 17.47265625 C-13.04453125 17.34890625 -12.11640625 17.22515625 -11.16015625 17.09765625 C-8.82667436 16.76536446 -6.4933248 16.43214105 -4.16015625 16.09765625 C-4.17175781 15.02644531 -4.18335938 13.95523437 -4.1953125 12.8515625 C-4.20468924 11.45442882 -4.21378956 10.05729326 -4.22265625 8.66015625 C-4.23522461 7.59958008 -4.23522461 7.59958008 -4.24804688 6.51757812 C-4.25669213 4.71072066 -4.21235636 2.90378022 -4.16015625 1.09765625 C-3.16015625 0.09765625 -3.16015625 0.09765625 0 0 Z " fill="#044083" transform="translate(51.16015625,12.90234375)"/>
<path d="M0 0 C1.32 0.66 2.64 1.32 4 2 C4 7.61 4 13.22 4 19 C3.67 19 3.34 19 3 19 C3 13.72 3 8.44 3 3 C1.824375 3.391875 0.64875 3.78375 -0.5625 4.1875 C-1.77679688 4.5896875 -1.77679688 4.5896875 -3.015625 5 C-5.28071027 5.75898145 -7.539615 6.53088161 -9.796875 7.3125 C-11.13541259 7.77084525 -12.47395426 8.22917856 -13.8125 8.6875 C-14.45840088 8.91397217 -15.10430176 9.14044434 -15.76977539 9.3737793 C-19.08247234 10.50101945 -21.44727692 11 -25 11 C-25.33 10.34 -25.66 9.68 -26 9 C-26.33 14.61 -26.66 20.22 -27 26 C-27.33 26 -27.66 26 -28 26 C-28.02901394 22.5625177 -28.04680335 19.12506688 -28.0625 15.6875 C-28.07087891 14.71103516 -28.07925781 13.73457031 -28.08789062 12.72851562 C-28.09111328 11.79072266 -28.09433594 10.85292969 -28.09765625 9.88671875 C-28.10551147 8.59060669 -28.10551147 8.59060669 -28.11352539 7.26831055 C-28 5 -28 5 -27 2 C-24.2160817 3.39195915 -24.02101003 5.15575779 -23 8 C-22.46632813 7.81824219 -21.93265625 7.63648437 -21.3828125 7.44921875 C-16.37350796 5.75922846 -11.34611023 4.19526813 -6.26171875 2.74609375 C-3.96496494 2.07877354 -3.96496494 2.07877354 -1.95703125 0.78515625 C-0.98830078 0.39650391 -0.98830078 0.39650391 0 0 Z " fill="#266EBF" transform="translate(84,57)"/>
<path d="M0 0 C3.96 0 7.92 0 12 0 C12 7.59 12 15.18 12 23 C14.31 23 16.62 23 19 23 C17.9375 24.5625 17.9375 24.5625 16 26 C13.69 25.67 11.38 25.34 9 25 C9 17.41 9 9.82 9 2 C6.03 2 3.06 2 0 2 C0 1.34 0 0.68 0 0 Z " fill="#96C7FD" transform="translate(50,16)"/>
<path d="M0 0 C3 1 3 1 5 4 C4.8125 6.125 4.8125 6.125 4 8 C3.01 8.33 2.02 8.66 1 9 C0.67 15.27 0.34 21.54 0 28 C-8 31 -8 31 -11 31 C-11 30.34 -11 29.68 -11 29 C-8.03 28.01 -5.06 27.02 -2 26 C-2 20.39 -2 14.78 -2 9 C-2.99 8.67 -3.98 8.34 -5 8 C-3.02 7.34 -1.04 6.68 1 6 C0.67 4.02 0.34 2.04 0 0 Z " fill="#09478D" transform="translate(90,50)"/>
<path d="M0 0 C2.475 0.495 2.475 0.495 5 1 C5.33 2.65 5.66 4.3 6 6 C5.34773438 6.18175781 4.69546875 6.36351562 4.0234375 6.55078125 C-0.9573715 7.98331481 -5.37564545 9.63862747 -10 12 C-14.57869723 13.71701146 -19.16139537 15.2195799 -24 16 C-24.33 15.34 -24.66 14.68 -25 14 C-19.34643916 10.84705261 -14.05548754 9.10289233 -7.734375 7.7109375 C-5.20838244 7.05417943 -3.19660367 6.40338568 -1 5 C-0.18828772 2.44480079 -0.18828772 2.44480079 0 0 Z " fill="#9AC8FC" transform="translate(85,50)"/>
<path d="M0 0 C8.49711119 1.6718853 16.09057327 4.53962581 24 8 C23.43454163 11.95820859 22.19097652 14.6659053 20 18 C20.99 18.33 21.98 18.66 23 19 C20.39417629 19.93065133 19.35801776 20.14917407 16.75 19.0625 C15.88375 18.5365625 15.88375 18.5365625 15 18 C16.32 18 17.64 18 19 18 C19 17.34 19 16.68 19 16 C18.34 15.67 17.68 15.34 17 15 C17.66 15 18.32 15 19 15 C19.66 13.02 20.32 11.04 21 9 C20.18273437 8.89816406 19.36546875 8.79632813 18.5234375 8.69140625 C14.34104875 7.8706936 10.5856863 6.48095009 6.625 4.9375 C5.88894531 4.65583984 5.15289062 4.37417969 4.39453125 4.08398438 C2.5944264 3.39433382 0.7969379 2.69786068 -1 2 C-0.67 1.34 -0.34 0.68 0 0 Z " fill="#2065B5" transform="translate(70,31)"/>
<path d="M0 0 C3.95122922 0.27566715 5.78042562 0.82714357 8.9375 3.3125 C11 6 11 6 10.8125 8.3125 C10.544375 8.869375 10.27625 9.42625 10 10 C8 10 6 10 4 10 C4 9.34 4 8.68 4 8 C2.68 8 1.36 8 0 8 C0 8.99 0 9.98 0 11 C-0.66 11 -1.32 11 -2 11 C-2 10.01 -2 9.02 -2 8 C-2.99 8 -3.98 8 -5 8 C-5 7.34 -5 6.68 -5 6 C-4.01 6 -3.02 6 -2 6 C-2 5.01 -2 4.02 -2 3 C-1.34 3 -0.68 3 0 3 C0.33 3.66 0.66 4.32 1 5 C1.10540926 2.78918149 1.10540926 2.78918149 0 0 Z " fill="#A9CFFA" transform="translate(23,24)"/>
<path d="M0 0 C3.38131002 1.16596897 4.37261173 1.7350634 6.625 4.25 C4.04638975 5.28444249 1.46325365 6.30272284 -1.125 7.3125 C-1.85460937 7.60705078 -2.58421875 7.90160156 -3.3359375 8.20507812 C-4.04492188 8.47900391 -4.75390625 8.75292969 -5.484375 9.03515625 C-6.13374023 9.29176025 -6.78310547 9.54836426 -7.45214844 9.81274414 C-9.74132786 10.33330284 -11.16756664 9.97364304 -13.375 9.25 C-5.11331274 -0.56075363 -5.11331274 -0.56075363 0 0 Z " fill="#F9FCFF" transform="translate(71.375,45.75)"/>
<path d="M0 0 C0.99 0 1.98 0 3 0 C2.67 1.32 2.34 2.64 2 4 C3.32 4.33 4.64 4.66 6 5 C5.67 11.27 5.34 17.54 5 24 C7.31 24.66 9.62 25.32 12 26 C12 26.66 12 27.32 12 28 C5.29090909 26.88181818 5.29090909 26.88181818 3 25 C2.42018803 22.19757548 2.10886903 19.82564618 2 17 C1.97164062 16.27425781 1.94328125 15.54851562 1.9140625 14.80078125 C1.85476468 11.59276943 1.97935252 9.06194243 3 6 C1.68 5.67 0.36 5.34 -1 5 C-0.67 3.35 -0.34 1.7 0 0 Z " fill="#094282" transform="translate(18,52)"/>
<path d="M0 0 C3.23103759 0.72641595 6.22386695 1.81172816 9.3125 3 C12.60053412 4.23356153 15.4964527 5.19098175 19 5.4375 C22 6 22 6 23.9375 8.5625 C24.288125 9.366875 24.63875 10.17125 25 11 C17.21439354 8.9769684 9.61341681 6.59751868 2 4 C2 9.28 2 14.56 2 20 C1.67 20 1.34 20 1 20 C0.97309896 17.20826945 0.95320947 14.41679652 0.9375 11.625 C0.92912109 10.8309375 0.92074219 10.036875 0.91210938 9.21875 C0.88671875 3.2265625 0.88671875 3.2265625 2 1 C1.34 0.67 0.68 0.34 0 0 Z " fill="#266CBC" transform="translate(22,56)"/>
<path d="M0 0 C3.05631152 0.72076982 6.00765941 1.63061749 8.984375 2.62890625 C9.91894531 2.94150391 10.85351562 3.25410156 11.81640625 3.57617188 C12.78449219 3.90166016 13.75257812 4.22714844 14.75 4.5625 C15.73355469 4.89185547 16.71710937 5.22121094 17.73046875 5.56054688 C20.15410249 6.37234653 22.57725761 7.18554483 25 8 C25 8.66 25 9.32 25 10 C25.66 10.33 26.32 10.66 27 11 C21.68022431 10.31468268 16.85903204 8.7353849 11.8125 7 C11.00619141 6.72671875 10.19988281 6.4534375 9.36914062 6.171875 C7.87795696 5.6661369 6.38740017 5.15854365 4.89770508 4.6484375 C3.26767814 4.09146445 1.63416221 3.54472074 0 3 C0 2.01 0 1.02 0 0 Z " fill="#1356A1" transform="translate(30,78)"/>
<path d="M0 0 C-0.33 0.99 -0.66 1.98 -1 3 C-2.99609375 3.94921875 -2.99609375 3.94921875 -5.4375 4.6875 C-6.24058594 4.93886719 -7.04367188 5.19023438 -7.87109375 5.44921875 C-10 6 -10 6 -12 6 C-11.62875 6.928125 -11.2575 7.85625 -10.875 8.8125 C-10.58625 9.864375 -10.2975 10.91625 -10 12 C-10.99 13.485 -10.99 13.485 -12 15 C-15.02317477 9.8001394 -15.02317477 9.8001394 -14.92578125 6.4375 C-14 4 -14 4 -11.6015625 2.63671875 C-10.12816406 2.16685547 -10.12816406 2.16685547 -8.625 1.6875 C-7.64789062 1.36136719 -6.67078125 1.03523438 -5.6640625 0.69921875 C-3 0 -3 0 0 0 Z " fill="#246AB9" transform="translate(33,34)"/>
<path d="M0 0 C0.66 1.32 1.32 2.64 2 4 C0.02 4.99 0.02 4.99 -2 6 C-0.68 6.33 0.64 6.66 2 7 C-2.16414929 9.08207465 -4.50086561 8.82637162 -9 8 C-12.26410357 8.37617294 -12.26410357 8.37617294 -15 9 C-15 8.34 -15 7.68 -15 7 C-12.8765984 6.16260219 -10.7512272 5.33019717 -8.625 4.5 C-7.44164062 4.0359375 -6.25828125 3.571875 -5.0390625 3.09375 C-2 2 -2 2 0 2 C0 1.34 0 0.68 0 0 Z " fill="#81B6F2" transform="translate(38,37)"/>
<path d="M0 0 C0.33 0.66 0.66 1.32 1 2 C2.94744941 2.50936662 2.94744941 2.50936662 5.3125 2.8125 C11.61097727 3.93364718 17.19183765 6.38532898 23 9 C23 9.33 23 9.66 23 10 C16.80908577 10.70351298 12.47529381 8.74782873 6.8671875 6.19140625 C4.21624021 5.08985458 1.82532461 4.45018909 -1 4 C-0.67 2.68 -0.34 1.36 0 0 Z " fill="#A3CDFB" transform="translate(21,52)"/>
<path d="M0 0 C0.66 0 1.32 0 2 0 C2 0.99 2 1.98 2 3 C2.72445312 3.18175781 3.44890625 3.36351562 4.1953125 3.55078125 C9.46799057 4.92167755 14.25483705 6.30679941 19 9 C19 9.66 19 10.32 19 11 C17.02 11.33 15.04 11.66 13 12 C13.33 11.01 13.66 10.02 14 9 C13.030625 8.9175 12.06125 8.835 11.0625 8.75 C6.32880899 8.1000875 2.26015593 6.07694677 -2 4 C-1.34 3.67 -0.68 3.34 0 3 C0 2.01 0 1.02 0 0 Z " fill="#1759A4" transform="translate(70,38)"/>
<path d="M0 0 C0.99 0 1.98 0 3 0 C3 0.99 3 1.98 3 3 C3.99 3 4.98 3 6 3 C6 4.32 6 5.64 6 7 C5.01 7 4.02 7 3 7 C3 7.99 3 8.98 3 10 C2.01 10 1.02 10 0 10 C0 9.01 0 8.02 0 7 C-1.65 6.67 -3.3 6.34 -5 6 C-4.34 5.01 -3.68 4.02 -3 3 C-2.01 3 -1.02 3 0 3 C0 2.01 0 1.02 0 0 Z " fill="#0C4380" transform="translate(36,18)"/>
<path d="M0 0 C0.66 1.32 1.32 2.64 2 4 C-3.99737765 6.64228729 -9.40295185 8.76439114 -16 9 C-16.66 8.34 -17.32 7.68 -18 7 C-16.78441406 6.57847656 -15.56882812 6.15695313 -14.31640625 5.72265625 C-12.73171808 5.16942192 -11.14708552 4.61602828 -9.5625 4.0625 C-8.76005859 3.78470703 -7.95761719 3.50691406 -7.13085938 3.22070312 C-6.36708984 2.95322266 -5.60332031 2.68574219 -4.81640625 2.41015625 C-4.10943604 2.16402588 -3.40246582 1.91789551 -2.67407227 1.66430664 C-0.99317368 1.12532025 -0.99317368 1.12532025 0 0 Z " fill="#2A6BB6" transform="translate(83,47)"/>
<path d="M0 0 C-0.825 0.61875 -1.65 1.2375 -2.5 1.875 C-3.325 2.57625 -4.15 3.2775 -5 4 C-5 4.66 -5 5.32 -5 6 C-8.3 6.66 -11.6 7.32 -15 8 C-13.9375 5.125 -13.9375 5.125 -12 2 C-7.94203259 0.34675402 -4.36567173 -0.26458617 0 0 Z " fill="#1859A3" transform="translate(34,44)"/>
<path d="M0 0 C4.68520819 0.41832216 8.32598984 2.2347705 12.5 4.3125 C11.5 6.3125 11.5 6.3125 9.69140625 7.05078125 C6.97615329 7.3750628 5.81851616 6.79831902 3.4375 5.5 C2.43009766 4.96439453 2.43009766 4.96439453 1.40234375 4.41796875 C-0.27016168 3.44606108 -1.89048716 2.38550856 -3.5 1.3125 C-2.5 0.3125 -2.5 0.3125 0 0 Z " fill="#9DCAFC" transform="translate(70.5,42.6875)"/>
<path d="M0 0 C-2.92638747 1.50712334 -5.88698003 2.82631086 -8.9375 4.0625 C-9.77152344 4.40410156 -10.60554688 4.74570312 -11.46484375 5.09765625 C-13.96802878 5.98862041 -16.38552083 6.54632472 -19 7 C-19.33 6.34 -19.66 5.68 -20 5 C-13.21807645 1.29920415 -7.81196303 -0.18599912 0 0 Z " fill="#90C2FA" transform="translate(80,59)"/>
<path d="M0 0 C0.33 0 0.66 0 1 0 C1 6.27 1 12.54 1 19 C-7 22 -7 22 -10 22 C-10 21.34 -10 20.68 -10 20 C-3.375 17 -3.375 17 0 17 C0 11.39 0 5.78 0 0 Z " fill="#013B7B" transform="translate(89,59)"/>
<path d="M0 0 C0.66 0 1.32 0 2 0 C2 0.99 2 1.98 2 3 C2.99 3 3.98 3 5 3 C5 3.99 5 4.98 5 6 C4.01 6 3.02 6 2 6 C2 6.99 2 7.98 2 9 C1.01 8.67 0.02 8.34 -1 8 C-1 7.34 -1 6.68 -1 6 C-1.99 5.67 -2.98 5.34 -4 5 C-3.67 4.34 -3.34 3.68 -3 3 C-2.34 3 -1.68 3 -1 3 C-0.67 2.01 -0.34 1.02 0 0 Z " fill="#327CCF" transform="translate(74,16)"/>
<path d="M0 0 C0 0.66 0 1.32 0 2 C-4.68493876 4.48887372 -7.9444214 3.85687773 -13 3 C-13 3.66 -13 4.32 -13 5 C-17.875 3.25 -17.875 3.25 -19 1 C-17.86111328 1.01740234 -17.86111328 1.01740234 -16.69921875 1.03515625 C-15.70535156 1.04417969 -14.71148437 1.05320313 -13.6875 1.0625 C-12.70136719 1.07410156 -11.71523438 1.08570313 -10.69921875 1.09765625 C-6.9781078 0.9630285 -3.80431087 -0.10281921 0 0 Z " fill="#2566B1" transform="translate(67,55)"/>
<path d="M0 0 C0.66 0 1.32 0 2 0 C2 0.99 2 1.98 2 3 C2.99 3 3.98 3 5 3 C5 3.99 5 4.98 5 6 C4.01 6 3.02 6 2 6 C2 6.99 2 7.98 2 9 C1.01 8.67 0.02 8.34 -1 8 C-1 7.34 -1 6.68 -1 6 C-1.66 6 -2.32 6 -3 6 C-3 5.01 -3 4.02 -3 3 C-2.34 3 -1.68 3 -1 3 C-0.67 2.01 -0.34 1.02 0 0 Z " fill="#3C83D3" transform="translate(89,24)"/>
<path d="M0 0 C2.475 0.99 2.475 0.99 5 2 C4.01 3.98 3.02 5.96 2 8 C-0.375 7.6875 -0.375 7.6875 -3 7 C-3.66 6.01 -4.32 5.02 -5 4 C-4.0409375 3.8453125 -4.0409375 3.8453125 -3.0625 3.6875 C-2.381875 3.460625 -1.70125 3.23375 -1 3 C-0.67 2.01 -0.34 1.02 0 0 Z " fill="#9AC8FC" transform="translate(49,58)"/>
<path d="M0 0 C0.33 0.99 0.66 1.98 1 3 C-0.91197039 3.70045456 -2.82980435 4.384919 -4.75 5.0625 C-5.81734375 5.44535156 -6.8846875 5.82820313 -7.984375 6.22265625 C-10.92280042 6.98010011 -12.22348948 7.07151741 -15 6 C-14.34 5.67 -13.68 5.34 -13 5 C-12.67 4.01 -12.34 3.02 -12 2 C-12 2.66 -12 3.32 -12 4 C-11.01 4 -10.02 4 -9 4 C-9 3.01 -9 2.02 -9 1 C-7.68 1 -6.36 1 -5 1 C-5 1.66 -5 2.32 -5 3 C-3.35 2.67 -1.7 2.34 0 2 C0 1.34 0 0.68 0 0 Z " fill="#C0DEFF" transform="translate(32,31)"/>
<path d="M0 0 C0.33 0 0.66 0 1 0 C1 5.61 1 11.22 1 17 C3.31 17.66 5.62 18.32 8 19 C8 19.66 8 20.32 8 21 C4.47930015 20.41321669 2.28700157 19.64350079 -1 18 C-0.505 9.09 -0.505 9.09 0 0 Z " fill="#033771" transform="translate(22,59)"/>
<path d="M0 0 C1.32 0.33 2.64 0.66 4 1 C3.34 2.98 2.68 4.96 2 7 C-1.73487777 6.5020163 -3.81237635 6.12508244 -7 4 C-5.02 4 -3.04 4 -1 4 C-0.67 2.68 -0.34 1.36 0 0 Z " fill="#A9D1FE" transform="translate(87,39)"/>
<path d="M0 0 C0.33 0 0.66 0 1 0 C1 4.29 1 8.58 1 13 C1.99 13 2.98 13 4 13 C4.66 14.65 5.32 16.3 6 18 C4.02 17.34 2.04 16.68 0 16 C0 10.72 0 5.44 0 0 Z " fill="#93C3F8" transform="translate(24,60)"/>
<path d="M0 0 C0 1.98 0 3.96 0 6 C-2.97 6 -5.94 6 -9 6 C-9 5.67 -9 5.34 -9 5 C-7.02 5 -5.04 5 -3 5 C-3 4.01 -3 3.02 -3 2 C-4.65 2.33 -6.3 2.66 -8 3 C-7 1 -7 1 -5.125 0.375 C-3 0 -3 0 0 0 Z " fill="#90C1FA" transform="translate(48,31)"/>
<path d="M0 0 C0.66 0.33 1.32 0.66 2 1 C2 1.66 2 2.32 2 3 C0.56656 3.53190541 -0.87195367 4.05015258 -2.3125 4.5625 C-3.51326172 4.99755859 -3.51326172 4.99755859 -4.73828125 5.44140625 C-7 6 -7 6 -10 5 C-8 2 -8 2 -5.5625 1.375 C-4.716875 1.25125 -3.87125 1.1275 -3 1 C-2.01 0.67 -1.02 0.34 0 0 Z " fill="#0D4789" transform="translate(43,29)"/>
<path d="M0 0 C-1 3 -1 3 -2.625 4.25 C-5.95194155 5.30061312 -8.62008449 4.64998375 -12 4 C-8.14070855 1.42713903 -4.66785662 0 0 0 Z " fill="#3276C5" transform="translate(33,34)"/>
<path d="M0 0 C0.66 0 1.32 0 2 0 C2 0.99 2 1.98 2 3 C2.99 3 3.98 3 5 3 C5 3.66 5 4.32 5 5 C4.01 5 3.02 5 2 5 C2 5.99 2 6.98 2 8 C1.34 8 0.68 8 0 8 C0 7.01 0 6.02 0 5 C-0.99 5 -1.98 5 -3 5 C-3 4.34 -3 3.68 -3 3 C-2.01 3 -1.02 3 0 3 C0 2.01 0 1.02 0 0 Z " fill="#2F77C9" transform="translate(21,27)"/>
<path d="M0 0 C1.98 1.65 3.96 3.3 6 5 C5.67 5.66 5.34 6.32 5 7 C3.35 7 1.7 7 0 7 C0 4.69 0 2.38 0 0 Z " fill="#8CBFF8" transform="translate(50,50)"/>
<path d="M0 0 C-0.625 1.9375 -0.625 1.9375 -2 4 C-5.125 4.75 -5.125 4.75 -8 5 C-7.8125 3.125 -7.8125 3.125 -7 1 C-2.66666667 -1.33333333 -2.66666667 -1.33333333 0 0 Z " fill="#ADD4FF" transform="translate(83,74)"/>
<path d="M0 0 C2.86697492 1.28519565 4.97607712 2.57129254 7 5 C7 5.66 7 6.32 7 7 C7.66 7 8.32 7 9 7 C9 7.66 9 8.32 9 9 C5.18063472 7.44396229 2.73955562 5.04395069 0 2 C0 1.34 0 0.68 0 0 Z " fill="#1459A6" transform="translate(48,46)"/>
<path d="M0 0 C0.66 0.33 1.32 0.66 2 1 C0.25 4 0.25 4 -2 7 C-3.32 7 -4.64 7 -6 7 C-4.60667426 3.63279613 -3.0210714 2.0140476 0 0 Z " fill="#A9CDF7" transform="translate(96,42)"/>
<path d="M0 0 C1.0625 1.875 1.0625 1.875 2 4 C1.67 4.66 1.34 5.32 1 6 C-1.5625 6.625 -1.5625 6.625 -4 7 C-3.43628586 3.73045798 -2.50037734 2.17424117 0 0 Z " fill="#92C3FB" transform="translate(85,71)"/>
<path d="M0 0 C2.31 0.66 4.62 1.32 7 2 C7 2.66 7 3.32 7 4 C7.66 4.33 8.32 4.66 9 5 C5.0507432 4.44894091 1.65079826 3.61064629 -2 2 C-1.34 1.34 -0.68 0.68 0 0 Z " fill="#1C64B5" transform="translate(48,84)"/>
<path d="M0 0 C-0.33 0.66 -0.66 1.32 -1 2 C-2.77734375 2.484375 -2.77734375 2.484375 -4.9375 2.75 C-5.64777344 2.84796875 -6.35804687 2.9459375 -7.08984375 3.046875 C-9 3 -9 3 -11 1 C-6.92630576 -1.03684712 -4.41062136 -1.0257259 0 0 Z " fill="#3D80CB" transform="translate(76,53)"/>
<path d="M0 0 C5.75 0.875 5.75 0.875 8 2 C8 2.66 8 3.32 8 4 C6.02 4.33 4.04 4.66 2 5 C2.33 4.01 2.66 3.02 3 2 C2.01 1.67 1.02 1.34 0 1 C0 0.67 0 0.34 0 0 Z " fill="#084488" transform="translate(81,45)"/>
<path d="M0 0 C0.33 0.99 0.66 1.98 1 3 C3.31 2.34 5.62 1.68 8 1 C8.66 1.66 9.32 2.32 10 3 C7.03 3.66 4.06 4.32 1 5 C0.67 3.35 0.34 1.7 0 0 Z " fill="#1159AA" transform="translate(56,83)"/>
<path d="M0 0 C0.625 1.8125 0.625 1.8125 1 4 C0.01 5.485 0.01 5.485 -1 7 C-3.4375 6.625 -3.4375 6.625 -6 6 C-6.33 5.34 -6.66 4.68 -7 4 C-5.35 4 -3.7 4 -2 4 C-1.34 2.68 -0.68 1.36 0 0 Z " fill="#1055A2" transform="translate(53,61)"/>
<path d="M0 0 C3 1 3 1 5 4 C4.625 6.1875 4.625 6.1875 4 8 C3.34 7.67 2.68 7.34 2 7 C1.26924352 4.6859378 0.59861742 2.35171131 0 0 Z " fill="#084080" transform="translate(90,50)"/>
<path d="M0 0 C1.53202706 0.25195908 3.05257128 0.57596777 4.5625 0.9375 C5.38878906 1.13214844 6.21507813 1.32679687 7.06640625 1.52734375 C8.02353516 1.76130859 8.02353516 1.76130859 9 2 C8.34 2.66 7.68 3.32 7 4 C3.55834679 3.64700993 1.93127462 2.95418308 -1 1 C-0.67 0.67 -0.34 0.34 0 0 Z " fill="#246CBE" transform="translate(70,31)"/>
<path d="M0 0 C0.66 0 1.32 0 2 0 C2 0.99 2 1.98 2 3 C2.99 3.33 3.98 3.66 5 4 C2.125 4.625 2.125 4.625 -1 5 C-1.66 4.34 -2.32 3.68 -3 3 C-2.34 3 -1.68 3 -1 3 C-0.67 2.01 -0.34 1.02 0 0 Z " fill="#4890E2" transform="translate(74,16)"/>
<path d="M0 0 C0 0.66 0 1.32 0 2 C-2.90600261 3.25664978 -4.79604584 4 -8 4 C-8 3.34 -8 2.68 -8 2 C-4.91190305 0.23537317 -3.76687864 0 0 0 Z " fill="#A9D1FF" transform="translate(31,42)"/>
<path d="M0 0 C-0.66 0 -1.32 0 -2 0 C-2 0.99 -2 1.98 -2 3 C-3.32 3.33 -4.64 3.66 -6 4 C-6 3.34 -6 2.68 -6 2 C-6.66 1.67 -7.32 1.34 -8 1 C-3.375 -1.125 -3.375 -1.125 0 0 Z " fill="#2161AB" transform="translate(81,79)"/>
<path d="M0 0 C0.86625 0.556875 0.86625 0.556875 1.75 1.125 C-1.15600261 2.38164978 -3.04604584 3.125 -6.25 3.125 C-6.25 2.465 -6.25 1.805 -6.25 1.125 C-2.80384615 -1.09038462 -2.80384615 -1.09038462 0 0 Z " fill="#0A4282" transform="translate(85.25,77.875)"/>
</svg>
