<?xml version="1.0" encoding="UTF-8"?>
<svg version="1.1" xmlns="http://www.w3.org/2000/svg" width="106" height="106">
<path d="M0 0 C7.03069212 1.89116719 11.34211266 6.8129172 15.140625 12.796875 C17.32867201 18.40623189 16.97522646 25.9948904 15.13671875 31.66015625 C13.99031935 33.95712377 12.83329268 36.16670732 11 38 C10.86659985 39.7559663 10.79656524 41.51683432 10.75390625 43.27734375 C10.70459961 44.88319336 10.70459961 44.88319336 10.65429688 46.52148438 C10.59320659 48.79482297 10.53590136 51.0682665 10.48242188 53.34179688 C10.44826172 54.41365234 10.41410156 55.48550781 10.37890625 56.58984375 C10.34132202 58.07278931 10.34132202 58.07278931 10.30297852 59.58569336 C10 62 10 62 8 64 C5.875 64.625 5.875 64.625 4 65 C4.04640625 65.72445312 4.0928125 66.44890625 4.140625 67.1953125 C4.36997852 73.33871035 4.38005371 77.27415257 0 82 C-5.29841519 86.90103405 -11.11497054 86.77718351 -18 87 C-18 86.34 -18 85.68 -18 85 C-19.2065625 84.5359375 -19.2065625 84.5359375 -20.4375 84.0625 C-23 83 -23 83 -24 82 C-26.69035945 81.87688799 -29.35902128 81.81388934 -32.05078125 81.7890625 C-33.71550452 81.76098799 -35.38021793 81.73232349 -37.04492188 81.703125 C-39.67830063 81.66188256 -42.3114964 81.62501005 -44.94506836 81.59863281 C-47.48069703 81.5710121 -50.01547891 81.52513325 -52.55078125 81.4765625 C-53.33632889 81.47330963 -54.12187653 81.47005676 -54.93122864 81.46670532 C-58.08743553 81.39578223 -60.61997495 81.17546744 -63.50366211 79.84399414 C-65.64368268 77.20676533 -65.45629719 75.38523083 -65.390625 72.01953125 C-65.37128906 70.27446289 -65.37128906 70.27446289 -65.3515625 68.49414062 C-65.31804687 67.27919922 -65.28453125 66.06425781 -65.25 64.8125 C-65.23195313 63.58595703 -65.21390625 62.35941406 -65.1953125 61.09570312 C-65.14811124 58.06302241 -65.08227677 55.03189913 -65 52 C-65.76828125 51.88527344 -66.5365625 51.77054688 -67.328125 51.65234375 C-70.99746949 50.75646578 -72.54739638 48.79324302 -75 46 C-76.98605212 42.02789575 -76.53604229 37.31879526 -76 33 C-74.6833854 30.11139296 -73.52137125 29.13768432 -71 27 C-69.01796064 26.28169335 -67.01896699 25.60680864 -65 25 C-65.04640625 23.87980469 -65.0928125 22.75960937 -65.140625 21.60546875 C-65.17814423 20.13283915 -65.21454423 18.66018073 -65.25 17.1875 C-65.30027344 16.08051758 -65.30027344 16.08051758 -65.3515625 14.95117188 C-65.44986281 9.52007988 -65.44986281 9.52007988 -63.515625 7.28393555 C-59.87009932 5.42331641 -56.35660876 5.61803991 -52.359375 5.6640625 C-50.6315067 5.65154471 -48.9036421 5.63850735 -47.17578125 5.625 C-44.46584811 5.62108037 -41.75628428 5.62496595 -39.04638672 5.63964844 C-36.4210001 5.64827354 -33.79712851 5.62644123 -31.171875 5.6015625 C-30.37263611 5.61490631 -29.57339722 5.62825012 -28.74993896 5.64199829 C-23.35844591 5.5720129 -20.13565462 4.31626456 -15.77545166 1.13401794 C-11.24483022 -1.75978431 -5.09220394 -0.63057666 0 0 Z " fill="#023C7D" transform="translate(83,10)"/>
<path d="M0 0 C6.67525404 -0.02290404 13.3503728 -0.04283264 20.02563477 -0.05493164 C22.29842591 -0.05997325 24.5712138 -0.06680637 26.84399414 -0.07543945 C30.10303551 -0.08751261 33.36203417 -0.09322987 36.62109375 -0.09765625 C37.64400009 -0.10281754 38.66690643 -0.10797882 39.72080994 -0.11329651 C40.66170975 -0.11337204 41.60260956 -0.11344757 42.57202148 -0.11352539 C43.40475082 -0.115746 44.23748016 -0.11796661 45.09544373 -0.12025452 C47 0 47 0 48 1 C48.10091475 3.58189446 48.13971499 6.136465 48.1328125 8.71875 C48.13376923 9.49182495 48.13472595 10.2648999 48.13571167 11.06140137 C48.13639341 12.69897544 48.13453957 14.33655219 48.13037109 15.97412109 C48.12502271 18.48931921 48.13031626 21.00433873 48.13671875 23.51953125 C48.13605797 25.10677123 48.1347768 26.6940111 48.1328125 28.28125 C48.13483673 29.03853394 48.13686096 29.79581787 48.13894653 30.5760498 C48.11495132 35.88504868 48.11495132 35.88504868 47 37 C44.94839881 37.09757823 42.89374626 37.13205696 40.83984375 37.140625 C39.57076172 37.15996094 38.30167969 37.17929688 36.99414062 37.19921875 C34.31624093 37.23740511 31.64142444 37.25127378 28.96289062 37.25390625 C22.0531139 37.3863175 16.98029673 37.58261003 11.42016602 41.93261719 C10 43 10 43 8 43 C8 41.02 8 39.04 8 37 C5.36 37 2.72 37 0 37 C0 24.79 0 12.58 0 0 Z " fill="#9CCAFE" transform="translate(43,35)"/>
<path d="M0 0 C0.91765137 -0.00315216 1.83530273 -0.00630432 2.78076172 -0.009552 C4.27760498 -0.00651566 4.27760498 -0.00651566 5.8046875 -0.00341797 C6.82191895 -0.00437469 7.83915039 -0.00533142 8.88720703 -0.00631714 C11.04264386 -0.00699908 13.19808272 -0.00514382 15.35351562 -0.00097656 C18.66541121 0.00437148 21.97717117 -0.0009211 25.2890625 -0.00732422 C27.37760447 -0.00666344 29.46614635 -0.00538228 31.5546875 -0.00341797 C32.55258301 -0.0054422 33.55047852 -0.00746643 34.57861328 -0.009552 C35.49626465 -0.00639984 36.41391602 -0.00324768 37.359375 0 C38.17132324 0.00079559 38.98327148 0.00159119 39.81982422 0.00241089 C41.6796875 0.12939453 41.6796875 0.12939453 42.6796875 1.12939453 C42.6796875 3.10939453 42.6796875 5.08939453 42.6796875 7.12939453 C34.0996875 7.45939453 25.5196875 7.78939453 16.6796875 8.12939453 C16.6796875 20.33939453 16.6796875 32.54939453 16.6796875 45.12939453 C20.1446875 45.62439453 20.1446875 45.62439453 23.6796875 46.12939453 C23.6796875 48.43939453 23.6796875 50.74939453 23.6796875 53.12939453 C19.71037761 53.15405334 15.74109716 53.17223476 11.77172852 53.18432617 C10.42048364 53.1893651 9.06924424 53.1961963 7.71801758 53.20483398 C5.77948316 53.21691872 3.8409095 53.22209281 1.90234375 53.22705078 C0.15062866 53.23490601 0.15062866 53.23490601 -1.63647461 53.24291992 C-4.3203125 53.12939453 -4.3203125 53.12939453 -5.3203125 52.12939453 C-5.41885672 50.53876143 -5.44829944 48.94377976 -5.44970703 47.35009766 C-5.45285919 46.33234253 -5.45601135 45.3145874 -5.45925903 44.26599121 C-5.4572348 43.15872681 -5.45521057 42.0514624 -5.453125 40.91064453 C-5.45408173 39.78243286 -5.45503845 38.65422119 -5.45602417 37.49182129 C-5.45670618 35.10099227 -5.45485047 32.71016142 -5.45068359 30.31933594 C-5.44533566 26.64530302 -5.45062793 22.97139236 -5.45703125 19.29736328 C-5.45637047 16.98095676 -5.45508932 14.66455031 -5.453125 12.34814453 C-5.45616135 10.68724792 -5.45616135 10.68724792 -5.45925903 8.99279785 C-5.45610687 7.97504272 -5.45295471 6.9572876 -5.44970703 5.90869141 C-5.44891144 5.0079187 -5.44811584 4.107146 -5.44729614 3.17907715 C-5.21266744 -0.60813803 -3.32042148 0.00325354 0 0 Z " fill="#F9FCFE" transform="translate(25.3203125,26.87060546875)"/>
<path d="M0 0 C6.09286975 2.7512377 11.08363517 8.1129187 13.515625 14.34765625 C14.38939557 22.59767601 14.16920212 29.36729057 9.515625 36.34765625 C8.525625 36.84265625 8.525625 36.84265625 7.515625 37.34765625 C7.185625 33.05765625 6.855625 28.76765625 6.515625 24.34765625 C-0.744375 24.01765625 -8.004375 23.68765625 -15.484375 23.34765625 C-15.814375 18.06765625 -16.144375 12.78765625 -16.484375 7.34765625 C-19.454375 7.01765625 -22.424375 6.68765625 -25.484375 6.34765625 C-18.20196746 -1.33932949 -10.44208239 -2.74186755 0 0 Z " fill="#AED2FD" transform="translate(85.484375,10.65234375)"/>
<path d="M0 0 C13.2 0 26.4 0 40 0 C40.04125 3.58875 40.0825 7.1775 40.125 10.875 C40.14320801 12.00534668 40.16141602 13.13569336 40.18017578 14.30029297 C40.1851709 15.18861816 40.19016602 16.07694336 40.1953125 16.9921875 C40.21102295 18.35899658 40.21102295 18.35899658 40.22705078 19.75341797 C40 22 40 22 38 24 C37.92523438 23.04738281 37.85046875 22.09476563 37.7734375 21.11328125 C37.32023531 13.06228805 37.32023531 13.06228805 33.0625 6.6875 C28.47394352 4.15911174 25.22076223 3.56493648 20 4 C15.93282354 5.45851615 13.51952555 7.24585002 11.0625 10.8125 C9.63960878 15.08117365 9.07534858 18.58894657 10.7265625 22.89453125 C12.79875836 26.89572245 14.78278295 29.40682911 19 31 C23.83767609 31.71669275 27.05302345 31.52609809 31.375 29.125 C32.24125 28.42375 33.1075 27.7225 34 27 C34.99 26.34 35.98 25.68 37 25 C36.9375 26.75 36.9375 26.75 36 29 C29.38053048 34.35861818 22.23345375 33.45517033 14.0625 33.25 C7.1015625 33.12625 7.1015625 33.12625 0 33 C0 22.11 0 11.22 0 0 Z " fill="#FAFCFE" transform="translate(43,36)"/>
<path d="M0 0 C3.26927653 2.11465109 6.24184404 4.48368807 8 8 C8.43281664 12.23660902 8.44858706 15.91394711 6.8125 19.875 C4.15722613 22.98807971 1.99804331 24.66391508 -2.11328125 25.35546875 C-6.22850838 25.61137363 -9.12187675 25.38860924 -12.4375 22.8125 C-15.39643327 19.56489032 -16.96379339 17.53963529 -17.02734375 13.08203125 C-16.67796348 8.30716758 -15.57724551 5.37850965 -12 2 C-8.03018603 -0.25313766 -4.50319834 -0.62113081 0 0 Z " fill="#F1F7FE" transform="translate(71,41)"/>
<path d="M0 0 C2.64590014 -0.02684679 5.29153096 -0.04676357 7.9375 -0.0625 C8.69224609 -0.07087891 9.44699219 -0.07925781 10.22460938 -0.08789062 C12.14994313 -0.09652441 14.07535581 -0.05224333 16 0 C17.70792999 1.70792999 17.25270346 3.85543481 17.3125 6.1875 C17.25285754 11.30349807 16.5770109 14.1405935 13 18 C7.70158481 22.90103405 1.88502946 22.77718351 -5 23 C-5 22.34 -5 21.68 -5 21 C-5.804375 20.731875 -6.60875 20.46375 -7.4375 20.1875 C-8.283125 19.795625 -9.12875 19.40375 -10 19 C-10.33 18.01 -10.66 17.02 -11 16 C-7.7 15.67 -4.4 15.34 -1 15 C-0.67 10.05 -0.34 5.1 0 0 Z " fill="#B1D4FD" transform="translate(70,74)"/>
<path d="M0 0 C15.84 0 31.68 0 48 0 C48 1.98 48 3.96 48 6 C45.5937378 8.4062622 45.04892823 8.25201459 41.765625 8.25878906 C40.89131836 8.26509338 40.01701172 8.27139771 39.11621094 8.27789307 C37.69743652 8.27182037 37.69743652 8.27182037 36.25 8.265625 C35.28094727 8.26753845 34.31189453 8.2694519 33.31347656 8.27142334 C31.26236715 8.27278579 29.21124914 8.26908518 27.16015625 8.26074219 C24.01282461 8.25004359 20.8660638 8.26063554 17.71875 8.2734375 C15.7291654 8.27211592 13.73958116 8.26955355 11.75 8.265625 C10.80415039 8.26967346 9.85830078 8.27372192 8.88378906 8.27789307 C8.00948242 8.27158875 7.13517578 8.26528442 6.234375 8.25878906 C5.46319336 8.25719788 4.69201172 8.25560669 3.89746094 8.25396729 C2 8 2 8 0 6 C0 4.02 0 2.04 0 0 Z " fill="#B4D2F3" transform="translate(20,81)"/>
<path d="M0 0 C0.87430664 -0.00630432 1.74861328 -0.01260864 2.64941406 -0.019104 C4.06818848 -0.01303131 4.06818848 -0.01303131 5.515625 -0.00683594 C6.48467773 -0.00874939 7.45373047 -0.01066284 8.45214844 -0.01263428 C10.50325785 -0.01399673 12.55437586 -0.01029612 14.60546875 -0.00195312 C17.75280039 0.00874547 20.8995612 -0.00184647 24.046875 -0.01464844 C26.0364596 -0.01332685 28.02604384 -0.01076448 30.015625 -0.00683594 C30.96147461 -0.0108844 31.90732422 -0.01493286 32.88183594 -0.019104 C33.75614258 -0.01279968 34.63044922 -0.00649536 35.53125 0 C36.68802246 0.00238678 36.68802246 0.00238678 37.86816406 0.00482178 C39.765625 0.25878906 39.765625 0.25878906 41.765625 2.25878906 C41.765625 4.23878906 41.765625 6.21878906 41.765625 8.25878906 C25.925625 8.25878906 10.085625 8.25878906 -6.234375 8.25878906 C-6.234375 0.01286345 -6.234375 0.01286345 0 0 Z " fill="#DCE7F3" transform="translate(26.234375,17.7412109375)"/>
<path d="M0 0 C0 8.91 0 17.82 0 27 C-5.40447513 25.91910497 -6.50466202 24.98080159 -10 21 C-11.98363675 17.0327265 -11.54751158 12.3131746 -11 8 C-8.87143332 3.66623824 -5.01343753 0 0 0 Z " fill="#B2D5FE" transform="translate(18,35)"/>
<path d="M0 0 C0.33 0 0.66 0 1 0 C1.33 11.55 1.66 23.1 2 35 C5.96 35.495 5.96 35.495 10 36 C10 37.98 10 39.96 10 42 C10.56960449 41.57122559 11.13920898 41.14245117 11.72607422 40.70068359 C18.93770557 35.77094156 24.53923196 35.2356454 33.125 35.625 C34.27226563 35.65207031 35.41953125 35.67914063 36.6015625 35.70703125 C39.40306993 35.77706894 42.20048792 35.87522175 45 36 C45 36.33 45 36.66 45 37 C39.72 37 34.44 37 29 37 C29.04125 39.26875 29.0825 41.5375 29.125 43.875 C29.1953125 47.7421875 29.1953125 47.7421875 29 51 C28.34 51.66 27.68 52.32 27 53 C26 51 26 51 27 45 C20.4 45 13.8 45 7 45 C7.33 42.36 7.66 39.72 8 37 C6.2984375 37.0309375 6.2984375 37.0309375 4.5625 37.0625 C1 37 1 37 0 36 C-0.08855161 33.3337397 -0.11524673 30.69352886 -0.09765625 28.02734375 C-0.0962413 27.22970108 -0.09482635 26.43205841 -0.09336853 25.61024475 C-0.08775316 23.05262565 -0.07519812 20.49509282 -0.0625 17.9375 C-0.05748698 16.20768355 -0.05292373 14.47786574 -0.04882812 12.74804688 C-0.03777875 8.49866447 -0.02050386 4.24934688 0 0 Z " fill="#044186" transform="translate(41,36)"/>
<path d="M0 0 C3 1 3 1 4 3 C4.07116382 5.37402501 4.08409085 7.75000677 4.0625 10.125 C4.05347656 11.40632813 4.04445313 12.68765625 4.03515625 14.0078125 C4.02355469 14.99523438 4.01195313 15.98265625 4 17 C4.6612085 16.99476318 5.32241699 16.98952637 6.00366211 16.98413086 C8.98159851 16.96342344 11.95951982 16.95035988 14.9375 16.9375 C16.49887695 16.92493164 16.49887695 16.92493164 18.09179688 16.91210938 C19.08115234 16.90888672 20.07050781 16.90566406 21.08984375 16.90234375 C22.46450806 16.89448853 22.46450806 16.89448853 23.86694336 16.88647461 C26 17 26 17 27 18 C27.11340974 20.71554392 27.1641802 23.40470043 27.16796875 26.12109375 C27.17296135 27.3437368 27.17296135 27.3437368 27.17805481 28.59107971 C27.18312742 30.31860793 27.18546303 32.04614598 27.18530273 33.77368164 C27.18748792 36.42285245 27.20563621 39.07160616 27.22460938 41.72070312 C27.22754344 43.3958319 27.22952815 45.07096267 27.23046875 46.74609375 C27.23765427 47.54196396 27.24483978 48.33783417 27.25224304 49.15782166 C27.22882227 54.77117773 27.22882227 54.77117773 25 57 C22.84521484 57.22705078 22.84521484 57.22705078 20.2109375 57.1953125 C19.26992187 57.18886719 18.32890625 57.18242188 17.359375 57.17578125 C15.88210937 57.15064453 15.88210937 57.15064453 14.375 57.125 C13.38242188 57.11597656 12.38984375 57.10695312 11.3671875 57.09765625 C8.91121866 57.07404116 6.45572832 57.04110799 4 57 C4 56.67 4 56.34 4 56 C5.10859375 55.93941406 6.2171875 55.87882812 7.359375 55.81640625 C8.8229282 55.73197049 10.28646925 55.64732401 11.75 55.5625 C12.47960937 55.52318359 13.20921875 55.48386719 13.9609375 55.44335938 C17.46866362 55.23608465 20.57602438 54.8559939 24 54 C24 42.45 24 30.9 24 19 C8.49 18.67 -7.02 18.34 -23 18 C-23 29.88 -23 41.76 -23 54 C-23.33 54 -23.66 54 -24 54 C-24.16723554 48.89154206 -24.32783286 43.78293596 -24.48217773 38.67407227 C-24.53567262 36.93475677 -24.59100755 35.19549688 -24.64819336 33.45629883 C-24.72989627 30.96187334 -24.80506164 28.46732517 -24.87890625 25.97265625 C-24.90594131 25.19036148 -24.93297638 24.40806671 -24.96083069 23.60206604 C-25.01288386 21.73539067 -25.01187025 19.86736326 -25 18 C-24 17 -24 17 -21.49975586 16.88647461 C-20.41573486 16.89171143 -19.33171387 16.89694824 -18.21484375 16.90234375 C-16.46010742 16.90717773 -16.46010742 16.90717773 -14.66992188 16.91210938 C-12.82237305 16.92467773 -12.82237305 16.92467773 -10.9375 16.9375 C-9.08415039 16.94426758 -9.08415039 16.94426758 -7.19335938 16.95117188 C-4.12885883 16.96300392 -1.06445279 16.97948827 2 17 C2.07658191 12.48166718 2.10170438 8.40681751 1 4 C0.814375 3.236875 0.62875 2.47375 0.4375 1.6875 C0.293125 1.130625 0.14875 0.57375 0 0 Z " fill="#0F4F98" transform="translate(66,17)"/>
<path d="M0 0 C3.29744644 2.05174445 6.04188742 3.88768626 7.5625 7.5625 C8.14472673 12.65698386 8.43705989 17.21666927 5.8125 21.75 C2.09474167 25.42621914 -1.08969273 27.88848023 -6.375 28.125 C-10.78252116 28.06822034 -13.36496948 27.02713658 -16.74609375 24.234375 C-19.9754014 20.90880072 -21.04761766 17.8490755 -21.625 13.3125 C-21.01189477 8.32007167 -19.51375168 4.70773657 -15.609375 1.421875 C-10.41684101 -1.89947557 -5.80945748 -2.27821862 0 0 Z M-17 5.4375 C-18.71751587 8.78213616 -19.30243412 12.02900783 -19.1875 15.75 C-17.57647591 20.4040696 -15.49404931 23.31586343 -11.1875 25.75 C-6.41490768 26.61453613 -3.08238813 26.20557941 1.25 24 C4.20662515 21.40393889 5.51337707 19.48176435 6.18359375 15.6015625 C6.30822097 11.42288521 6.20800702 8.6322556 3.5 5.3125 C0.39802145 2.35479953 -1.18597689 0.84448331 -5.5 0.4375 C-10.30282943 0.84451944 -13.46493194 2.14622974 -17 5.4375 Z " fill="#185CA9" transform="translate(73.1875,40.25)"/>
<path d="M0 0 C0.33 0 0.66 0 1 0 C1 1.65 1 3.3 1 5 C1.99 5 2.98 5 4 5 C4.02688151 6.64574566 4.04634123 8.29161413 4.0625 9.9375 C4.07410156 10.85402344 4.08570312 11.77054688 4.09765625 12.71484375 C4 15 4 15 3 16 C1.00200428 16.09873816 -0.99957158 16.12971799 -3 16.125 C-4.093125 16.12757812 -5.18625 16.13015625 -6.3125 16.1328125 C-9 16 -9 16 -10 15 C-10.07205511 13.31391034 -10.08386068 11.62499341 -10.0625 9.9375 C-10.05347656 9.01839844 -10.04445312 8.09929688 -10.03515625 7.15234375 C-10.02355469 6.44207031 -10.01195312 5.73179688 -10 5 C-9.01 5 -8.02 5 -7 5 C-6.67 3.68 -6.34 2.36 -6 1 C-6 2.32 -6 3.64 -6 5 C-4.02 5 -2.04 5 0 5 C0 3.35 0 1.7 0 0 Z " fill="#1057A8" transform="translate(70,47)"/>
<path d="M0 0 C6.22961977 -0.05059881 12.4591868 -0.08569062 18.68896484 -0.10986328 C20.8094277 -0.11993751 22.92987661 -0.13359733 25.05029297 -0.15087891 C28.09345943 -0.17506489 31.13644266 -0.18646869 34.1796875 -0.1953125 C35.13181122 -0.20563507 36.08393494 -0.21595764 37.06491089 -0.22659302 C37.94567291 -0.22674408 38.82643494 -0.22689514 39.73388672 -0.22705078 C40.51110077 -0.231492 41.28831482 -0.23593323 42.08908081 -0.24050903 C44 0 44 0 46 2 C46 3.98 46 5.96 46 8 C30.16 8 14.32 8 -2 8 C-2 7.67 -2 7.34 -2 7 C11.86 7 25.72 7 40 7 C39.505 4.525 39.505 4.525 39 2 C19.695 1.505 19.695 1.505 0 1 C0 0.67 0 0.34 0 0 Z " fill="#67AAF5" transform="translate(22,18)"/>
<path d="M0 0 C6.53278786 -0.02527002 13.06556321 -0.04283292 19.59838867 -0.05493164 C21.82267732 -0.05997317 24.04696263 -0.06680623 26.27124023 -0.07543945 C29.46078309 -0.08751298 32.65028229 -0.09322996 35.83984375 -0.09765625 C37.34139259 -0.10539818 37.34139259 -0.10539818 38.87327576 -0.11329651 C39.79415482 -0.11337204 40.71503387 -0.11344757 41.66381836 -0.11352539 C42.47878281 -0.115746 43.29374725 -0.11796661 44.13340759 -0.12025452 C46 0 46 0 47 1 C47 2.98 47 4.96 47 7 C38.75 7 30.5 7 22 7 C22 6.67 22 6.34 22 6 C26.95 6 31.9 6 37 6 C37 4.35 37 2.7 37 1 C24.79 1 12.58 1 0 1 C0 0.67 0 0.34 0 0 Z " fill="#70AEF3" transform="translate(21,27)"/>
<path d="M0 0 C3.5 0.25 3.5 0.25 5.5 2.25 C5.75 5.75 5.75 5.75 5.5 9.25 C3.5 11.25 3.5 11.25 0 11.5 C-3.5 11.25 -3.5 11.25 -5.5 9.25 C-5.75 5.75 -5.75 5.75 -5.5 2.25 C-3.5 0.25 -3.5 0.25 0 0 Z " fill="#1055A2" transform="translate(30.5,63.75)"/>
<path d="M0 0 C3.5 0.25 3.5 0.25 5.5 2.25 C5.75 5.75 5.75 5.75 5.5 9.25 C3.5 11.25 3.5 11.25 0 11.5 C-3.5 11.25 -3.5 11.25 -5.5 9.25 C-5.75 5.75 -5.75 5.75 -5.5 2.25 C-3.5 0.25 -3.5 0.25 0 0 Z " fill="#0B52A2" transform="translate(30.5,47.75)"/>
<path d="M0 0 C3.5 0.25 3.5 0.25 5.5 2.25 C5.75 5.75 5.75 5.75 5.5 9.25 C3.5 11.25 3.5 11.25 0 11.5 C-3.5 11.25 -3.5 11.25 -5.5 9.25 C-5.75 5.75 -5.75 5.75 -5.5 2.25 C-3.5 0.25 -3.5 0.25 0 0 Z " fill="#175BA9" transform="translate(30.5,31.75)"/>
<path d="M0 0 C15.70238071 -0.12806208 31.32065292 0.12806014 47 1 C47 1.33 47 1.66 47 2 C45.74509766 2.00616333 45.74509766 2.00616333 44.46484375 2.01245117 C41.3257194 2.03960999 38.18789561 2.08888144 35.04931641 2.15258789 C33.03699979 2.18686967 31.02430781 2.19620775 29.01171875 2.20507812 C22.09606705 2.36146221 16.98223291 2.58274305 11.41796875 6.93481445 C10 8 10 8 8 8 C8 6.02 8 4.04 8 2 C5.36 2 2.72 2 0 2 C0 1.34 0 0.68 0 0 Z " fill="#89BFFC" transform="translate(43,70)"/>
<path d="M0 0 C1.98 0 3.96 0 6 0 C6 2.31 6 4.62 6 7 C-3.24 7 -12.48 7 -22 7 C-22.33 6.01 -22.66 5.02 -23 4 C-13.76 4 -4.52 4 5 4 C5 3.01 5 2.02 5 1 C3.35 1 1.7 1 0 1 C0 0.67 0 0.34 0 0 Z " fill="#87BBF6" transform="translate(43,73)"/>
<path d="M0 0 C2.3941161 2.3941161 2.29598923 3.03786311 2.3125 6.3125 C2.20891986 10.34565167 1.68859882 12.84784966 -1 16 C-4.77463171 19.21953881 -8.15448771 19.34970465 -12.9140625 19.3984375 C-15 19 -15 19 -18 16 C-13.38 15.67 -8.76 15.34 -4 15 C-1.94637945 9.91059256 -0.56820748 5.45479185 0 0 Z " fill="#9AC8FC" transform="translate(77,47)"/>
<path d="M0 0 C3.3 0 6.6 0 10 0 C10 2.64 10 5.28 10 8 C6.7 8 3.4 8 0 8 C0 5.36 0 2.72 0 0 Z " fill="#EAF3FF" transform="translate(62,53)"/>
<path d="M0 0 C0.042721 1.66611905 0.04063832 3.33382885 0 5 C-1 6 -1 6 -4.16015625 6.09765625 C-6.09181641 6.08025391 -6.09181641 6.08025391 -8.0625 6.0625 C-9.35285156 6.05347656 -10.64320312 6.04445313 -11.97265625 6.03515625 C-12.97167969 6.02355469 -13.97070312 6.01195313 -15 6 C-10.26155039 1.13900428 -6.93081501 -0.407695 0 0 Z " fill="#8CBFF8" transform="translate(68,74)"/>
<path d="M0 0 C3.75757576 1.45454545 3.75757576 1.45454545 4.75 3.6875 C5.30552862 8.82613971 5.64996489 13.42278792 3 18 C-1.87804878 22.87804878 -1.87804878 22.87804878 -5.875 23.3125 C-6.57625 23.209375 -7.2775 23.10625 -8 23 C-5 21 -5 21 -2.4375 19.625 C0.24551393 17.83632405 0.83565384 16.9345738 2 14 C2.60587815 9.01932524 2.33028534 4.51492784 0 0 Z " fill="#10539F" transform="translate(76,44)"/>
<path d="M0 0 C1.875 0.75 1.875 0.75 2.875 2.75 C2.59557545 4.42654729 2.26671753 6.09608154 1.875 7.75 C-0.105 7.75 -2.085 7.75 -4.125 7.75 C-4.455 5.77 -4.785 3.79 -5.125 1.75 C-2.125 -0.25 -2.125 -0.25 0 0 Z " fill="#387ECE" transform="translate(68.125,44.25)"/>
<path d="M0 0 C2.31 0 4.62 0 7 0 C7.04254356 1.99954746 7.04080783 4.00041636 7 6 C6 7 6 7 3.5 7.125 C1 7 1 7 0 6 C-0.04080783 4.00041636 -0.04254356 1.99954746 0 0 Z " fill="#F3F8FF" transform="translate(27,66)"/>
<path d="M0 0 C2.5 0.125 2.5 0.125 3.5 1.125 C3.54080783 3.12458364 3.54254356 5.12545254 3.5 7.125 C1.19 7.125 -1.12 7.125 -3.5 7.125 C-3.54254356 5.12545254 -3.54080783 3.12458364 -3.5 1.125 C-2.5 0.125 -2.5 0.125 0 0 Z " fill="#CAE2FE" transform="translate(30.5,33.875)"/>
<path d="M0 0 C1.99954746 -0.04254356 4.00041636 -0.04080783 6 0 C7 1 7 1 7.0625 3.5625 C7.041875 4.366875 7.02125 5.17125 7 6 C4.36 6 1.72 6 -1 6 C-1.33 4.68 -1.66 3.36 -2 2 C-1.34 2 -0.68 2 0 2 C0 1.34 0 0.68 0 0 Z " fill="#E5EDF7" transform="translate(55,19)"/>
<path d="M0 0 C2.5 0.125 2.5 0.125 3.5 1.125 C3.625 3.625 3.625 3.625 3.5 6.125 C2.5 7.125 2.5 7.125 0 7.25 C-2.5 7.125 -2.5 7.125 -3.5 6.125 C-3.625 3.625 -3.625 3.625 -3.5 1.125 C-2.5 0.125 -2.5 0.125 0 0 Z " fill="#F6FAFF" transform="translate(30.5,49.875)"/>
<path d="M0 0 C0.99 0.33 1.98 0.66 3 1 C3 1.66 3 2.32 3 3 C3.99 3.33 4.98 3.66 6 4 C6 4.66 6 5.32 6 6 C5.01 6 4.02 6 3 6 C2.67 6.99 2.34 7.98 2 9 C1.34 9 0.68 9 0 9 C0 8.01 0 7.02 0 6 C-0.99 6 -1.98 6 -3 6 C-2.67 5.01 -2.34 4.02 -2 3 C-1.34 3 -0.68 3 0 3 C0 2.01 0 1.02 0 0 Z " fill="#4184CF" transform="translate(87,22)"/>
<path d="M0 0 C1.98 0 3.96 0 6 0 C6.042721 1.66611905 6.04063832 3.33382885 6 5 C5 6 5 6 1.9375 6.0625 C0.4834375 6.0315625 0.4834375 6.0315625 -1 6 C-0.67 4.02 -0.34 2.04 0 0 Z " fill="#A5CFFE" transform="translate(62,82)"/>
<path d="M0 0 C1.99954746 -0.04254356 4.00041636 -0.04080783 6 0 C7 1 7 1 7.0625 3.5625 C7.041875 4.366875 7.02125 5.17125 7 6 C5.02 6 3.04 6 1 6 C0.67 4.02 0.34 2.04 0 0 Z " fill="#A5CFFE" transform="translate(61,19)"/>
<path d="M0 0 C0 0.66 0 1.32 0 2 C-1.01320313 2.18175781 -1.01320313 2.18175781 -2.046875 2.3671875 C-3.38492188 2.61855469 -3.38492188 2.61855469 -4.75 2.875 C-6.07257812 3.11863281 -6.07257812 3.11863281 -7.421875 3.3671875 C-9.86947744 3.96796264 -11.80599857 4.77997117 -14 6 C-14.33 5.34 -14.66 4.68 -15 4 C-9.60931587 0.40621058 -6.46326465 -0.45356243 0 0 Z " fill="#0F519B" transform="translate(69,72)"/>
<path d="M0 0 C0.66 0 1.32 0 2 0 C2 0.99 2 1.98 2 3 C2.99 3 3.98 3 5 3 C5 3.66 5 4.32 5 5 C4.01 5 3.02 5 2 5 C2 5.99 2 6.98 2 8 C1.34 8 0.68 8 0 8 C0 7.01 0 6.02 0 5 C-0.99 5 -1.98 5 -3 5 C-3 4.34 -3 3.68 -3 3 C-2.01 3 -1.02 3 0 3 C0 2.01 0 1.02 0 0 Z " fill="#2A6DB9" transform="translate(77,79)"/>
<path d="M0 0 C0.66 0 1.32 0 2 0 C2 0.99 2 1.98 2 3 C2.99 3 3.98 3 5 3 C5 3.66 5 4.32 5 5 C4.01 5 3.02 5 2 5 C2 5.99 2 6.98 2 8 C1.34 8 0.68 8 0 8 C0 7.01 0 6.02 0 5 C-0.99 5 -1.98 5 -3 5 C-3 4.34 -3 3.68 -3 3 C-2.01 3 -1.02 3 0 3 C0 2.01 0 1.02 0 0 Z " fill="#2469B8" transform="translate(76,17)"/>
<path d="M0 0 C0.99 0 1.98 0 3 0 C3.12375 0.78375 3.2475 1.5675 3.375 2.375 C3.79117993 5.14057822 3.79117993 5.14057822 6 7 C4.02 7 2.04 7 0 7 C0 4.69 0 2.38 0 0 Z " fill="#FEFEFF" transform="translate(62,54)"/>
<path d="M0 0 C0.66 0 1.32 0 2 0 C2.04254356 1.99954746 2.04080783 4.00041636 2 6 C1 7 1 7 -1.5625 7.0625 C-2.7690625 7.0315625 -2.7690625 7.0315625 -4 7 C-4.33 6.34 -4.66 5.68 -5 5 C-3.35 5 -1.7 5 0 5 C0 3.35 0 1.7 0 0 Z " fill="#9ECBFE" transform="translate(32,66)"/>
<path d="M0 0 C2.33294775 -0.04241723 4.66702567 -0.04092937 7 0 C8 1 8 1 8.0625 4.5625 C8.041875 5.696875 8.02125 6.83125 8 8 C7.34 7.67 6.68 7.34 6 7 C5.375 4.4375 5.375 4.4375 5 2 C3.35 1.67 1.7 1.34 0 1 C0 0.67 0 0.34 0 0 Z " fill="#084C99" transform="translate(28,33)"/>
<path d="M0 0 C0.33 0.99 0.66 1.98 1 3 C-4.14285714 7.42857143 -4.14285714 7.42857143 -8 8 C-8 7.34 -8 6.68 -8 6 C-6.02678947 4.6273318 -4.02456848 3.29572383 -2 2 C-1.34 1.34 -0.68 0.68 0 0 Z " fill="#E6F1FF" transform="translate(79,61)"/>
<path d="M0 0 C0.99 0.33 1.98 0.66 3 1 C2.67 2.65 2.34 4.3 2 6 C1.01 5.67 0.02 5.34 -1 5 C-0.67 3.35 -0.34 1.7 0 0 Z " fill="#2874C9" transform="translate(66,54)"/>
<path d="M0 0 C0 0.99 0 1.98 0 3 C-2.27837542 5.27837542 -3.50812237 5.96646289 -6.75 6.1875 C-7.86375 6.0946875 -7.86375 6.0946875 -9 6 C-6 4 -3 2 0 0 Z " fill="#084993" transform="translate(77,61)"/>
<path d="M0 0 C0.99 0.33 1.98 0.66 3 1 C3 2.32 3 3.64 3 5 C1.68 5 0.36 5 -1 5 C-0.67 3.35 -0.34 1.7 0 0 Z " fill="#FCFDFF" transform="translate(66,46)"/>
<path d="M0 0 C0.66 0.33 1.32 0.66 2 1 C2.042721 2.66611905 2.04063832 4.33382885 2 6 C1 7 1 7 -1.5625 7.0625 C-2.7690625 7.0315625 -2.7690625 7.0315625 -4 7 C-3.01 6.34 -2.02 5.68 -1 5 C-0.27034634 2.43717258 -0.27034634 2.43717258 0 0 Z " fill="#A6D0FF" transform="translate(32,50)"/>
</svg>
