<?xml version="1.0" encoding="UTF-8"?>
<svg version="1.1" xmlns="http://www.w3.org/2000/svg" width="106" height="106">
<path d="M0 0 C0.96292969 0.66773438 1.92585938 1.33546875 2.91796875 2.0234375 C6.94788658 4.60789685 9.66521282 4.38668087 14.3125 4.125 C24.65877282 3.85765161 32.19900345 5.92004577 41.84375 9.7734375 C44.5447995 10.82310278 47.22925904 11.72204191 50 12.5625 C55.01050471 14.18976483 58.06633077 16.59949615 61 21 C61.49930189 25.58840533 61.41664949 30.19990337 61.4375 34.8125 C61.47037109 36.08416016 61.50324219 37.35582031 61.53710938 38.66601562 C61.59742131 49.13287824 61.59742131 49.13287824 58.59765625 52.88671875 C56 55 56 55 54 55 C53.58427734 55.87011719 53.58427734 55.87011719 53.16015625 56.7578125 C48.54642316 65.67458958 41.55347306 71.77023186 32 75 C30.68 75 29.36 75 28 75 C27.62875 75.928125 27.62875 75.928125 27.25 76.875 C25.74275943 79.43730897 24.73685053 79.92969595 22 81 C19.83399521 81.02035719 17.76172743 80.81376262 15.609375 80.58203125 C12.74810355 81.04034868 11.6623573 81.83116333 9.328125 83.4765625 C4.58603396 86.60303931 0.56341364 86.71844417 -5 86.5625 C-5.85078125 86.57345703 -6.7015625 86.58441406 -7.578125 86.59570312 C-13.72134801 86.52503722 -17.69852231 85.08639268 -23 82 C-23 81.34 -23 80.68 -23 80 C-23.5775 79.79375 -24.155 79.5875 -24.75 79.375 C-27.96746463 77.40877162 -29.18666354 75.30446852 -31 72 C-31.55419626 69.14553852 -31.56116145 66.40007194 -31.5 63.5 C-31.51546875 62.76652344 -31.5309375 62.03304687 -31.546875 61.27734375 C-31.50867426 55.93879094 -30.05192982 53.44948673 -27 49 C-26.49291219 45.51691581 -26.49291219 45.51691581 -26.5625 41.9375 C-26.27922776 35.36005685 -26.27922776 35.36005685 -23.625 31.9375 C-22.75875 31.298125 -21.8925 30.65875 -21 30 C-19.94712186 28.36622358 -18.9272999 26.70818403 -18 25 C-19.86745332 22.82566857 -19.86745332 22.82566857 -22.5625 22.1875 C-25 21 -25 21 -25.8125 18.8046875 C-26.18376822 13.25113367 -22.84884037 8.58799577 -20 4 C-14.956536 -1.5478104 -7.01877382 -1.08471959 0 0 Z M8.11328125 16.68359375 C6.83691511 18.76704378 6.83691511 18.76704378 5.9921875 20.95703125 C4.70751177 23.6022494 3.55652955 24.54407809 1 26 C-2.234375 26.73046875 -2.234375 26.73046875 -5.75 27.1875 C-6.92046875 27.34605469 -8.0909375 27.50460938 -9.296875 27.66796875 C-10.18890625 27.77753906 -11.0809375 27.88710938 -12 28 C-11.01 28.495 -11.01 28.495 -10 29 C-10 32.63 -10 36.26 -10 40 C-8.02 40 -6.04 40 -4 40 C-3.01 37.03 -2.02 34.06 -1 31 C-0.34 31 0.32 31 1 31 C1 30.34 1 29.68 1 29 C8.93748327 24.88426793 16.07708227 23.77120724 25 24 C25.99 21.69 26.98 19.38 28 17 C22.768392 13.79058462 12.93406188 12.38182056 8.11328125 16.68359375 Z M39 44 C38.70867187 44.59167969 38.41734375 45.18335938 38.1171875 45.79296875 C35.1372424 51.53732832 32.39716017 56.31560397 26.0625 58.7421875 C24.39445721 59.23318397 22.69819469 59.62639717 21 60 C21 62.64 21 65.28 21 68 C22.2065625 68.433125 22.2065625 68.433125 23.4375 68.875 C26 70 26 70 27 72 C35.90134808 70.88733149 42.42042164 65.77619617 48 59 C48.33 58.01 48.66 57.02 49 56 C47.35 55.34 45.7 54.68 44 54 C44 51.36 44 48.72 44 46 C42.35 45.34 40.7 44.68 39 44 Z " fill="#7CAADC" transform="translate(38,10)"/>
<path d="M0 0 C0.96292969 0.66773438 1.92585938 1.33546875 2.91796875 2.0234375 C6.94783809 4.60786575 9.6652149 4.38676798 14.3125 4.125 C25.94643805 3.82351264 35.13247982 5.88928731 44.6875 13 C46 15 46 15 45.75 17.75 C45.37875 18.86375 45.37875 18.86375 45 20 C41.875 20.75 41.875 20.75 38 21 C35.97386717 19.70672372 33.97485205 18.3703055 32 17 C24.78641016 15.45423075 17.34630122 15.90713945 10 16 C9.33484375 17.39992188 9.33484375 17.39992188 8.65625 18.828125 C6.71252595 22.55053994 4.70019768 25.0467084 1 27 C-2.63751472 27.96699772 -6.26524615 28.55475354 -10 29 C-9.67 29.99 -9.34 30.98 -9 32 C-8.984269 33.77512885 -9.03293313 35.55121069 -9.12109375 37.32421875 C-9.19360352 38.86625977 -9.19360352 38.86625977 -9.26757812 40.43945312 C-9.32365234 41.51130859 -9.37972656 42.58316406 -9.4375 43.6875 C-9.48970703 44.77095703 -9.54191406 45.85441406 -9.59570312 46.97070312 C-9.72541216 49.64742591 -9.86037933 52.32377888 -10 55 C-13.30357895 56.65178948 -16.62352155 56.4048466 -20.125 55.375 C-22.99952636 53.26701401 -24.78579339 51.32828209 -26 48 C-26.60608197 43.57393352 -26.68002183 39.42014188 -26 35 C-23.6875 32 -23.6875 32 -21 30 C-19.94712186 28.36622358 -18.9272999 26.70818403 -18 25 C-19.86745332 22.82566857 -19.86745332 22.82566857 -22.5625 22.1875 C-25 21 -25 21 -25.8125 18.8046875 C-26.18376822 13.25113367 -22.84884037 8.58799577 -20 4 C-14.956536 -1.5478104 -7.01877382 -1.08471959 0 0 Z " fill="#1C5CA6" transform="translate(38,10)"/>
<path d="M0 0 C2.31 0 4.62 0 7 0 C8.87846056 6.56684971 10.19062647 13.61874705 7 20 C8.010625 19.649375 9.02125 19.29875 10.0625 18.9375 C13.99602756 17.82037817 16.9593736 18.24666287 21 19 C22.81096272 19.20180816 24.62362767 19.38877702 26.4375 19.5625 C27.30246094 19.64628906 28.16742188 19.73007813 29.05859375 19.81640625 C30.01958984 19.90728516 30.01958984 19.90728516 31 20 C31.85856655 23.4342662 31.97591583 25.61682513 31 29 C29.84371094 29.07347656 29.84371094 29.07347656 28.6640625 29.1484375 C27.66117188 29.22320312 26.65828125 29.29796875 25.625 29.375 C24.12839844 29.47941406 24.12839844 29.47941406 22.6015625 29.5859375 C19.84491121 29.76363964 19.84491121 29.76363964 18 32 C17.83318891 35.08347826 17.83318891 35.08347826 18 38 C19.65 38.33 21.3 38.66 23 39 C21.81555439 42.55333682 20.38368522 43.4479124 17.14404297 45.1796875 C13.18174084 46.69566736 9.25585104 46.57549919 5.0625 46.5 C4.20720703 46.51546875 3.35191406 46.5309375 2.47070312 46.546875 C-3.71143781 46.50915027 -7.66681076 45.11463195 -13 42 C-13 41.34 -13 40.68 -13 40 C-13.5775 39.79375 -14.155 39.5875 -14.75 39.375 C-17.96427023 37.41072375 -19.18426555 35.29827226 -21 32 C-21.57746491 29.16810646 -21.61834264 26.44569339 -21.5625 23.5625 C-21.55734375 22.80912354 -21.5521875 22.05574707 -21.546875 21.27954102 C-21.35430589 15.46636093 -20.2546773 12.14831037 -16 8 C-14.62437146 9.28965176 -13.29233607 10.62689293 -12 12 C-12 12.66 -12 13.32 -12 14 C-10.37512529 14.16788373 -8.75009558 14.33426787 -7.125 14.5 C-6.22007813 14.5928125 -5.31515625 14.685625 -4.3828125 14.78125 C-2.06686789 15.03047295 -2.06686789 15.03047295 0 15 C0 10.05 0 5.1 0 0 Z " fill="#B0D4FC" transform="translate(28,50)"/>
<path d="M0 0 C1.02867188 -0.01417969 2.05734375 -0.02835938 3.1171875 -0.04296875 C6.17963488 0.19168631 8.35748861 0.89565428 11.125 2.1875 C11.125 2.8475 11.125 3.5075 11.125 4.1875 C11.723125 4.435 12.32125 4.6825 12.9375 4.9375 C15.50850676 6.40664672 16.56329588 7.67997507 18.125 10.1875 C19.1031355 15.99877563 18.51172757 21.28258421 15.125 26.1875 C10.28731748 30.6530531 6.71863906 32.46566254 0.125 32.375 C-1.421875 32.36533203 -1.421875 32.36533203 -3 32.35546875 C-5.47479779 32.21088138 -7.49842475 31.81659345 -9.875 31.1875 C-12.20800933 31.14861651 -14.54209801 31.1426365 -16.875 31.1875 C-16.854375 29.888125 -16.83375 28.58875 -16.8125 27.25 C-16.79166931 23.93271329 -17.04416334 20.83590867 -17.5625 17.5625 C-18.10051607 13.0210114 -17.25245653 10.1754916 -14.875 6.1875 C-10.36744722 1.44658617 -6.4542299 0.04023834 0 0 Z " fill="#F4F9FE" transform="translate(54.875,35.8125)"/>
<path d="M0 0 C1.6328125 1.09375 1.6328125 1.09375 3.7578125 3.09375 C3.4278125 4.08375 3.0978125 5.07375 2.7578125 6.09375 C0.68359375 7.12109375 0.68359375 7.12109375 -1.9296875 8.03125 C-6.14264683 9.63446485 -9.80584179 11.08694751 -13.2421875 14.09375 C-14.55220246 17.59479532 -14.55220246 17.59479532 -15.2421875 21.09375 C-15.9021875 22.08375 -16.5621875 23.07375 -17.2421875 24.09375 C-20.9418804 23.3822706 -24.04299838 22.08435657 -27.2421875 20.09375 C-28.43839891 16.90198966 -28.33558805 15.37031738 -27.23828125 12.12109375 C-21.54178359 0.82803698 -13.18939391 -5.33090486 0 0 Z " fill="#B2D5FD" transform="translate(40.2421875,10.90625)"/>
<path d="M0 0 C0.99 0 1.98 0 3 0 C3.86083769 12.89343559 3.86083769 12.89343559 0.625 16.8125 C-2 19 -2 19 -4 19 C-4.27714844 19.58007812 -4.55429688 20.16015625 -4.83984375 20.7578125 C-9.45357684 29.67458958 -16.44652694 35.77023186 -26 39 C-27.32 39 -28.64 39 -30 39 C-30.2475 39.61875 -30.495 40.2375 -30.75 40.875 C-32.28822496 43.48998244 -33.12350424 44.06708246 -36 45 C-41.5508685 45.52366684 -45.28253251 44.8304805 -50 42 C-51.125 39 -51.125 39 -51 36 C-49.97265625 34.35546875 -49.97265625 34.35546875 -48 33 C-45.37060795 32.62355152 -42.94927528 32.39866913 -40.3125 32.3125 C-39.61060547 32.27833984 -38.90871094 32.24417969 -38.18554688 32.20898438 C-36.45758613 32.12670053 -34.72881928 32.0616676 -33 32 C-32.34 33.32 -31.68 34.64 -31 36 C-23.7003012 33.08817162 -17.27436142 29.97486255 -12 24 C-11.4740625 22.6696875 -11.4740625 22.6696875 -10.9375 21.3125 C-9.44739396 17.6369051 -6.44620534 16.81709009 -3 15 C-2.67 14.34 -2.34 13.68 -2 13 C-1.34 13 -0.68 13 0 13 C0 8.71 0 4.42 0 0 Z " fill="#0A407D" transform="translate(96,46)"/>
<path d="M0 0 C5.26371354 4.22550574 6.98013539 8.20158991 7.984375 14.8046875 C7.97678304 20.21775406 5.09701275 23.47856479 1.41015625 27.15625 C-5.03709658 32.84214383 -11.8579604 31.83940481 -20.01953125 31.58984375 C-22.35286458 31.25651042 -24.68619792 30.92317708 -27.01953125 30.58984375 C-29.36213768 30.85013335 -31.70128835 31.16404403 -34.01953125 31.58984375 C-33.87644531 30.55537109 -33.87644531 30.55537109 -33.73046875 29.5 C-33.0488717 23.7222762 -33.11631862 19.13850786 -34.59765625 13.5234375 C-35.50207369 9.37819092 -34.00742038 6.16804418 -32.01953125 2.58984375 C-31.35953125 2.58984375 -30.69953125 2.58984375 -30.01953125 2.58984375 C-30.01953125 1.92984375 -30.01953125 1.26984375 -30.01953125 0.58984375 C-20.6331319 -7.11181726 -9.64049041 -7.05199385 0 0 Z M-25.01953125 0.58984375 C-25.90640625 1.18796875 -26.79328125 1.78609375 -27.70703125 2.40234375 C-30.54206651 5.08413386 -31.080004 6.81409105 -32.01953125 10.58984375 C-32.04792326 14.38399868 -32.04792326 14.38399868 -31.64453125 18.27734375 C-31.53367188 19.58058594 -31.4228125 20.88382813 -31.30859375 22.2265625 C-31.21320312 23.33644531 -31.1178125 24.44632813 -31.01953125 25.58984375 C-31.01953125 26.57984375 -31.01953125 27.56984375 -31.01953125 28.58984375 C-30.39304687 28.57824219 -29.7665625 28.56664063 -29.12109375 28.5546875 C-28.30382813 28.54566406 -27.4865625 28.53664063 -26.64453125 28.52734375 C-25.83242188 28.51574219 -25.0203125 28.50414063 -24.18359375 28.4921875 C-22.01953125 28.58984375 -22.01953125 28.58984375 -20.01953125 29.58984375 C-12.97218906 30.34878829 -7.39787987 30.23415995 -1.57421875 25.95703125 C1.94309884 22.86391277 3.68608861 20.03319887 4.25390625 15.3203125 C4.43411841 10.80807726 4.53883784 7.57978977 1.60546875 3.96484375 C-0.67671808 1.36620598 -0.67671808 1.36620598 -3.01953125 1.58984375 C-3.01953125 0.92984375 -3.01953125 0.26984375 -3.01953125 -0.41015625 C-6.81005849 -2.15909437 -9.8526221 -2.70671144 -14.01953125 -2.72265625 C-15.03015625 -2.73941406 -16.04078125 -2.75617187 -17.08203125 -2.7734375 C-20.44404027 -2.35765713 -22.2591294 -1.32880012 -25.01953125 0.58984375 Z " fill="#134C8F" transform="translate(69.01953125,38.41015625)"/>
<path d="M0 0 C-0.33 1.32 -0.66 2.64 -1 4 C-5.64769913 3.53523009 -9.03590251 2.14103317 -13.0703125 -0.0625 C-21.47091148 -4.14376266 -33.42651048 -2.83234157 -41.984375 0.12890625 C-44.20231676 1.03225208 -44.20231676 1.03225208 -46.875 2.75 C-49 4 -49 4 -51.3125 3.6875 C-51.869375 3.460625 -52.42625 3.23375 -53 3 C-53 2.01 -53 1.02 -53 0 C-34.78226711 -10.66918153 -18.25499554 -10.85063287 0 0 Z " fill="#EFF6FE" transform="translate(82,25)"/>
<path d="M0 0 C2.6875 2 2.6875 2 4 4 C3.75 6.75 3.75 6.75 3 9 C-0.125 9.75 -0.125 9.75 -4 10 C-6.02613283 8.70672372 -8.02514795 7.3703055 -10 6 C-16.45660063 4.59128714 -23.03118737 4.95597065 -29.609375 5.0625 C-32.33675297 5.01222575 -34.43138899 4.83025811 -37 4 C-37 3.34 -37 2.68 -37 2 C-26.4037005 -0.4778419 -15.78132347 0.1797075 -6 5 C-4.515 5.99 -4.515 5.99 -3 7 C-1.68 7 -0.36 7 1 7 C1.33 6.01 1.66 5.02 2 4 C1.0409375 3.62875 1.0409375 3.62875 0.0625 3.25 C-1.68111307 2.5383212 -3.41737928 1.80588795 -5.125 1.01171875 C-5.888125 0.65722656 -6.65125 0.30273438 -7.4375 -0.0625 C-8.15808594 -0.40410156 -8.87867187 -0.74570312 -9.62109375 -1.09765625 C-15.56518096 -3.35231002 -21.61642144 -3.12376621 -27.875 -3.0625 C-28.75414062 -3.05798828 -29.63328125 -3.05347656 -30.5390625 -3.04882812 C-32.69273803 -3.03712337 -34.84637817 -3.01919069 -37 -3 C-36.67 -3.99 -36.34 -4.98 -36 -6 C-23.1185398 -8.93828928 -11.23987331 -6.6472369 0 0 Z " fill="#0B478B" transform="translate(80,21)"/>
<path d="M0 0 C3.00198683 2.25149012 4.73648543 3.58596202 5.4375 7.34765625 C5.56388736 12.58483237 5.04443785 16.59081416 2 21 C-2.83768252 25.4655531 -6.40636094 27.27816254 -13 27.1875 C-14.546875 27.17783203 -14.546875 27.17783203 -16.125 27.16796875 C-18.59979779 27.02338138 -20.62342475 26.62909345 -23 26 C-25.33300933 25.96111651 -27.66709801 25.9551365 -30 26 C-29.67 23.36 -29.34 20.72 -29 18 C-28.67 19.32 -28.34 20.64 -28 22 C-23.03926578 23.32286246 -18.08888488 23.08893197 -13 23 C-13.33 22.01 -13.66 21.02 -14 20 C-13.01 20 -12.02 20 -11 20 C-11 20.66 -11 21.32 -11 22 C-4.076574 18.27992996 -4.076574 18.27992996 0 12 C0.068991 9.93854893 0.08467727 7.87498599 0.0625 5.8125 C0.05347656 4.72582031 0.04445313 3.63914063 0.03515625 2.51953125 C0.02355469 1.68808594 0.01195313 0.85664062 0 0 Z " fill="#9FCBFC" transform="translate(68,41)"/>
<path d="M0 0 C7.10535266 1.06720712 12.44237054 2.37492732 17.6484375 7.6796875 C19.5489682 10.94244829 19.29144671 13.50791851 19.1875 17.25 C19.16042969 18.51328125 19.13335937 19.7765625 19.10546875 21.078125 C19.07066406 22.04234375 19.03585938 23.0065625 19 24 C12.89996665 21.15676412 9.58694477 16.56594878 6 11 C5.34 10.34 4.68 9.68 4 9 C3.32060826 7.00428677 2.65438441 5.00405227 2 3 C1.34 2.01 0.68 1.02 0 0 Z " fill="#B0D3FB" transform="translate(80,21)"/>
<path d="M0 0 C0 7.26 0 14.52 0 22 C-6 22 -6 22 -8.34375 19.91015625 C-10.2937768 16.48381199 -10.53636076 14.35991659 -10.5 10.4375 C-10.5103125 9.32246094 -10.520625 8.20742188 -10.53125 7.05859375 C-10 4 -10 4 -8.34375 1.59765625 C-6 0 -6 0 0 0 Z " fill="#DCECFE" transform="translate(25,41)"/>
<path d="M0 0 C-0.07521107 3.15886495 -0.37477673 5.30084288 -2.51953125 7.69921875 C-6.95963144 11.55976902 -10.07809924 13.1426271 -16.0625 13.125 C-17.37927734 13.12886719 -17.37927734 13.12886719 -18.72265625 13.1328125 C-21 13 -21 13 -23 12 C-21.84826645 9.53199953 -20.95216435 7.95216435 -19 6 C-17.1033398 5.53415364 -15.20548576 5.07240445 -13.30078125 4.640625 C-9.98948154 3.71863323 -6.97844326 2.28239277 -3.8828125 0.8046875 C-2 0 -2 0 0 0 Z " fill="#B1D4FC" transform="translate(47,25)"/>
<path d="M0 0 C0.99 0 1.98 0 3 0 C3.86083769 12.89343559 3.86083769 12.89343559 0.625 16.8125 C-2 19 -2 19 -4 19 C-4.27199219 19.57492188 -4.54398438 20.14984375 -4.82421875 20.7421875 C-7.28531062 25.468138 -10.08846849 30.00267921 -14.875 32.5 C-15.926875 32.7475 -15.926875 32.7475 -17 33 C-17 29.20132473 -15.88868664 28.31435078 -13.5 25.4375 C-10.81650875 22.57529578 -10.81650875 22.57529578 -10 19 C-8.20963542 18.0234375 -6.41927083 17.046875 -4.62890625 16.0703125 C-2.83381685 15.08589976 -2.83381685 15.08589976 -2 13 C-1.34 13 -0.68 13 0 13 C0 8.71 0 4.42 0 0 Z " fill="#0A3F7C" transform="translate(96,46)"/>
<path d="M0 0 C7 1 7 1 8.9375 2.9375 C10.45328588 7.3065299 10.24005556 11.42116246 10 16 C9.01 16 8.02 16 7 16 C6.95101562 15.14535156 6.90203125 14.29070313 6.8515625 13.41015625 C6.77679688 12.30542969 6.70203125 11.20070313 6.625 10.0625 C6.52058594 8.40927734 6.52058594 8.40927734 6.4140625 6.72265625 C6.27742188 5.82417969 6.14078125 4.92570312 6 4 C5.34 3.67 4.68 3.34 4 3 C4 9.27 4 15.54 4 22 C2.68 22 1.36 22 0 22 C0 14.74 0 7.48 0 0 Z " fill="#D9EBFE" transform="translate(85,41)"/>
<path d="M0 0 C1.49731007 2.99462014 1.41447434 6.14648859 1.625 9.4375 C1.6765625 10.11876953 1.728125 10.80003906 1.78125 11.50195312 C1.99328292 14.68556504 2.01953065 16.94140806 1 20 C1.93972656 19.87431641 1.93972656 19.87431641 2.8984375 19.74609375 C3.71570312 19.64425781 4.53296875 19.54242188 5.375 19.4375 C6.18710937 19.33308594 6.99921875 19.22867188 7.8359375 19.12109375 C10 19 10 19 12 20 C18.23647099 20.40144948 24.19207724 20.581299 30 18 C29.6875 19.9375 29.6875 19.9375 29 22 C21.51624395 24.49458535 12.67258008 23.09608287 5 22 C2.65739357 22.2602896 0.3182429 22.57420028 -2 23 C-1.91621094 22.26394531 -1.83242188 21.52789062 -1.74609375 20.76953125 C-1.64425781 19.79371094 -1.54242188 18.81789063 -1.4375 17.8125 C-1.33308594 16.84957031 -1.22867188 15.88664062 -1.12109375 14.89453125 C-0.88556562 12.02726987 -0.88556562 12.02726987 -1.53125 9.375 C-2.2132801 5.91938085 -1.09493465 3.28480395 0 0 Z " fill="#1053A0" transform="translate(37,47)"/>
<path d="M0 0 C0 0.33 0 0.66 0 1 C-0.67546875 1.18175781 -1.3509375 1.36351562 -2.046875 1.55078125 C-2.93890625 1.80214844 -3.8309375 2.05351562 -4.75 2.3125 C-5.63171875 2.55613281 -6.5134375 2.79976562 -7.421875 3.05078125 C-10.06200695 4.02282983 -11.79476522 5.28854605 -14 7 C-14.66 7 -15.32 7 -16 7 C-15.67 7.99 -15.34 8.98 -15 10 C-11.98151123 9.56878732 -10.08378742 9.05446182 -7.5 7.375 C-5 6 -5 6 -2.1875 6.3125 C-1.465625 6.539375 -0.74375 6.76625 0 7 C-4.11529986 11.11529986 -10.43173718 12.53892981 -15.88671875 14.25390625 C-18.03073396 15.01085062 -19.98947366 15.94254484 -22 17 C-21.71125 16.484375 -21.4225 15.96875 -21.125 15.4375 C-19.82727758 12.92629977 -19.82727758 12.92629977 -19.5 9.625 C-16.35523627 2.02515431 -7.64466669 -1.49569566 0 0 Z " fill="#195EAD" transform="translate(45,18)"/>
<path d="M0 0 C14.12274392 -0.31191336 23.5752661 0.61483107 36 8 C35.67 9.32 35.34 10.64 35 12 C33.7315625 11.27683594 33.7315625 11.27683594 32.4375 10.5390625 C21.04492015 4.1954669 11.91190322 2.63887021 -1 2 C-0.67 1.34 -0.34 0.68 0 0 Z " fill="#96C6FB" transform="translate(46,17)"/>
<path d="M0 0 C1.79244141 0.01740234 1.79244141 0.01740234 3.62109375 0.03515625 C5.41740234 0.04869141 5.41740234 0.04869141 7.25 0.0625 C8.17683594 0.07410156 9.10367188 0.08570312 10.05859375 0.09765625 C10.68359375 2.47265625 10.68359375 2.47265625 11.05859375 5.09765625 C9.05859375 7.09765625 9.05859375 7.09765625 6.30859375 7.36328125 C5.23609375 7.358125 4.16359375 7.35296875 3.05859375 7.34765625 C1.44984375 7.35539062 1.44984375 7.35539062 -0.19140625 7.36328125 C-2.94140625 7.09765625 -2.94140625 7.09765625 -4.94140625 5.09765625 C-4.35074211 1.19927294 -4.1044613 0.1362703 0 0 Z " fill="#F1F7FE" transform="translate(51.94140625,80.90234375)"/>
<path d="M0 0 C2.1875 -0.375 2.1875 -0.375 5 0 C7.08832653 1.82869674 8.38336791 3.69052559 10 6 C10 6.66 10 7.32 10 8 C8.68 8.33 7.36 8.66 6 9 C5.67 13.62 5.34 18.24 5 23 C4.67 23 4.34 23 4 23 C3.67 18.71 3.34 14.42 3 10 C1.35 10 -0.3 10 -2 10 C-2.66 9.34 -3.32 8.68 -4 8 C-3.625 5.375 -3.625 5.375 -3 3 C-1.35 2.67 0.3 2.34 2 2 C1.34 1.34 0.68 0.68 0 0 Z " fill="#94C5FC" transform="translate(78,31)"/>
<path d="M0 0 C0.99 0.33 1.98 0.66 3 1 C3.33 4.63 3.66 8.26 4 12 C4.33 12 4.66 12 5 12 C5 8.37 5 4.74 5 1 C5.66 1.33 6.32 1.66 7 2 C7 6.29 7 10.58 7 15 C6.34 15 5.68 15 5 15 C4.67 15.99 4.34 16.98 4 18 C0.77208445 20.1519437 -0.28400809 20.20086443 -4 20 C-3.5155542 19.5877417 -3.0311084 19.1754834 -2.53198242 18.75073242 C-0.70832867 16.66668126 -0.59077411 15.71459137 -0.48828125 12.98828125 C-0.43510742 11.85229492 -0.43510742 11.85229492 -0.38085938 10.69335938 C-0.35830078 9.90767578 -0.33574219 9.12199219 -0.3125 8.3125 C-0.27833984 7.51521484 -0.24417969 6.71792969 -0.20898438 5.89648438 C-0.12661896 3.93148096 -0.06162933 1.96576304 0 0 Z " fill="#5294DF" transform="translate(89,44)"/>
<path d="M0 0 C0 0.66 0 1.32 0 2 C-0.88042969 2.03738281 -1.76085937 2.07476562 -2.66796875 2.11328125 C-3.82941406 2.17902344 -4.99085937 2.24476562 -6.1875 2.3125 C-7.33605469 2.37050781 -8.48460938 2.42851563 -9.66796875 2.48828125 C-15.63711107 3.40499596 -18.99046941 6.66537234 -23 11 C-25.12508244 14.18762365 -25.5020163 16.26512223 -26 20 C-27.51297182 17.59704475 -28.03665969 16.36659693 -27.75 13.5 C-27.045492 11.15164001 -26.18844709 9.13920477 -25 7 C-24.34 7 -23.68 7 -23 7 C-23 6.34 -23 5.68 -23 5 C-16.01673916 -0.72985505 -8.7004501 -1.58190002 0 0 Z " fill="#094487" transform="translate(62,34)"/>
<path d="M0 0 C0.33 0 0.66 0 1 0 C1 5.28 1 10.56 1 16 C-1.97 15.505 -1.97 15.505 -5 15 C-4.98839844 14.31292969 -4.97679688 13.62585937 -4.96484375 12.91796875 C-4.95582031 12.01691406 -4.94679688 11.11585937 -4.9375 10.1875 C-4.92589844 9.29417969 -4.91429688 8.40085937 -4.90234375 7.48046875 C-4.88990033 4.86586209 -4.88990033 4.86586209 -6 2 C-4.02 2 -2.04 2 0 2 C0 1.34 0 0.68 0 0 Z " fill="#BCDCFE" transform="translate(81,39)"/>
<path d="M0 0 C2.375 1.6875 2.375 1.6875 4 4 C3.92847386 6.93257166 3.55689162 8.39468302 1.5625 10.5625 C1.046875 11.036875 0.53125 11.51125 0 12 C-1.17574711 14.09989652 -1.17574711 14.09989652 -2 16 C-2.66 16 -3.32 16 -4 16 C-3.6875 13.125 -3.6875 13.125 -3 10 C-2.01 9.34 -1.02 8.68 0 8 C0 6.68 0 5.36 0 4 C-2.97 3.505 -2.97 3.505 -6 3 C-6.33 4.32 -6.66 5.64 -7 7 C-7.99 7 -8.98 7 -10 7 C-8.16609237 1.63934692 -5.92790781 -0.8674987 0 0 Z " fill="#256AB9" transform="translate(58,42)"/>
<path d="M0 0 C2.3125 2.5625 2.3125 2.5625 4 5 C3.01 5 2.02 5 1 5 C0.34 6.32 -0.32 7.64 -1 9 C-1.66 8.67 -2.32 8.34 -3 8 C-2.67 6.35 -2.34 4.7 -2 3 C-6.29 3 -10.58 3 -15 3 C-15.66 4.98 -16.32 6.96 -17 9 C-17.66 8.34 -18.32 7.68 -19 7 C-18.67028521 3.70285207 -18.3773161 2.3773161 -16 0 C-13.57421875 -0.44921875 -13.57421875 -0.44921875 -10.6875 -0.6875 C-9.74261719 -0.77386719 -8.79773437 -0.86023438 -7.82421875 -0.94921875 C-4.99329051 -1.00012064 -2.71292561 -0.80554446 0 0 Z " fill="#064387" transform="translate(64,79)"/>
<path d="M0 0 C1.98 0 3.96 0 6 0 C6 7.26 6 14.52 6 22 C4.02 22 2.04 22 0 22 C0.99 21.34 1.98 20.68 3 20 C3.50621513 17.97723319 3.50621513 17.97723319 3.51171875 15.6484375 C3.56489258 14.37226562 3.56489258 14.37226562 3.61914062 13.0703125 C3.65297852 11.73613281 3.65297852 11.73613281 3.6875 10.375 C3.72166016 9.4778125 3.75582031 8.580625 3.79101562 7.65625 C3.87362402 5.43762462 3.94272719 3.2194006 4 1 C1.28775382 2.61268692 -1.37352812 4.24901874 -4 6 C-2.84826645 3.53199953 -1.95216435 1.95216435 0 0 Z " fill="#A1CCFC" transform="translate(19,41)"/>
<path d="M0 0 C3.27742098 3.10026309 5.93104837 5.97098894 8 10 C8 10.66 8 11.32 8 12 C8.598125 12.2475 9.19625 12.495 9.8125 12.75 C12.28647521 14.16370012 13.43370255 15.65055383 15 18 C12.56475116 17.56513414 11.1081328 17.08290181 9.125 15.5625 C6.5577261 13.6747986 4.03867821 12.89779129 1 12 C2.32 11.67 3.64 11.34 5 11 C4.21072301 9.87332216 3.41848345 8.74871933 2.625 7.625 C2.18414062 6.99851562 1.74328125 6.37203125 1.2890625 5.7265625 C-0.02808866 3.87619491 -0.02808866 3.87619491 -2 2 C-1.34 2 -0.68 2 0 2 C0 1.34 0 0.68 0 0 Z " fill="#175DAC" transform="translate(83,28)"/>
<path d="M0 0 C2.4375 0.8125 2.4375 0.8125 5 2 C6.1671568 5.50147041 6.13357453 8.32670036 6 12 C5.67 12.66 5.34 13.32 5 14 C4.77049681 16.204364 4.58924067 18.41392173 4.4375 20.625 C4.35371094 21.81351563 4.26992188 23.00203125 4.18359375 24.2265625 C4.12300781 25.14179687 4.06242187 26.05703125 4 27 C3.67 27 3.34 27 3 27 C3 19.41 3 11.82 3 4 C1.35 4 -0.3 4 -2 4 C-1.34 2.68 -0.68 1.36 0 0 Z " fill="#0D4688" transform="translate(23,37)"/>
<path d="M0 0 C3 0.125 3 0.125 4 1.125 C4.375 3.5 4.375 3.5 4 6.125 C1.5 7.9375 1.5 7.9375 -1 9.125 C-1.99 8.465 -2.98 7.805 -4 7.125 C-4.25 4.0625 -4.25 4.0625 -4 1.125 C-3 0.125 -3 0.125 0 0 Z " fill="#205693" transform="translate(69,68.875)"/>
<path d="M0 0 C5.83559247 1.98410144 9.9070091 4.51412086 13 10 C13.72868457 13.01541182 13.98595248 15.9025222 14 19 C13.01 19.66 12.02 20.32 11 21 C10.96132812 20.00419922 10.96132812 20.00419922 10.921875 18.98828125 C10.56820854 13.48233744 10.2134997 9.95813608 6 6 C5.34 5.67 4.68 5.34 4 5 C4 4.34 4 3.68 4 3 C2.35 2.67 0.7 2.34 -1 2 C-0.67 1.34 -0.34 0.68 0 0 Z " fill="#1D63B3" transform="translate(62,35)"/>
<path d="M0 0 C0.33 1.32 0.66 2.64 1 4 C5.29 4.66 9.58 5.32 14 6 C14 6.33 14 6.66 14 7 C16.64 7.33 19.28 7.66 22 8 C22 8.33 22 8.66 22 9 C20.083412 9.02712153 18.1667127 9.04645097 16.25 9.0625 C14.64898437 9.07990234 14.64898437 9.07990234 13.015625 9.09765625 C10.43782355 9.01417822 8.4595419 8.66699441 6 8 C3.66699067 7.96111651 1.33290199 7.9551365 -1 8 C-0.67 5.36 -0.34 2.72 0 0 Z " fill="#77B3F6" transform="translate(39,59)"/>
<path d="M0 0 C0.33 1.32 0.66 2.64 1 4 C2.65 4.33 4.3 4.66 6 5 C5.67 6.65 5.34 8.3 5 10 C2.625 10.625 2.625 10.625 0 11 C-0.66 10.34 -1.32 9.68 -2 9 C-1.6875 6.625 -1.6875 6.625 -1 4 C-0.814375 3.236875 -0.62875 2.47375 -0.4375 1.6875 C-0.293125 1.130625 -0.14875 0.57375 0 0 Z " fill="#3575BE" transform="translate(14,21)"/>
<path d="M0 0 C1.60294922 0.01353516 1.60294922 0.01353516 3.23828125 0.02734375 C4.04652344 0.03894531 4.85476562 0.05054688 5.6875 0.0625 C6.0175 1.0525 6.3475 2.0425 6.6875 3.0625 C-2.7175 3.5575 -2.7175 3.5575 -12.3125 4.0625 C-11.9825 3.0725 -11.6525 2.0825 -11.3125 1.0625 C-7.47525828 0.15836327 -3.93747726 -0.04326898 0 0 Z " fill="#255187" transform="translate(55.3125,13.9375)"/>
<path d="M0 0 C0.99 0 1.98 0 3 0 C3 4.95 3 9.9 3 15 C2.01 15 1.02 15 0 15 C0 10.05 0 5.1 0 0 Z " fill="#307ACE" transform="translate(19,45)"/>
<path d="M0 0 C0.33 0 0.66 0 1 0 C1.33 5.28 1.66 10.56 2 16 C1.01 15.67 0.02 15.34 -1 15 C-2.30089831 12.39820337 -2.16840078 10.4030812 -2.1875 7.5 C-2.20167969 6.5203125 -2.21585938 5.540625 -2.23046875 4.53125 C-2 2 -2 2 0 0 Z " fill="#F0F7FF" transform="translate(17,45)"/>
<path d="M0 0 C0.99 0.33 1.98 0.66 3 1 C2.125 5.875 2.125 5.875 1 7 C-1.01964199 7.07244053 -3.04167124 7.08377188 -5.0625 7.0625 C-6.71958984 7.04896484 -6.71958984 7.04896484 -8.41015625 7.03515625 C-9.26480469 7.02355469 -10.11945312 7.01195313 -11 7 C-11.33 6.34 -11.66 5.68 -12 5 C-6.555 4.505 -6.555 4.505 -1 4 C-0.67 2.68 -0.34 1.36 0 0 Z " fill="#89BEFA" transform="translate(60,81)"/>
<path d="M0 0 C0.69287109 0.00451172 1.38574219 0.00902344 2.09960938 0.01367188 C3.79561068 0.02536844 5.49156703 0.04330076 7.1875 0.0625 C7.1875 0.3925 7.1875 0.7225 7.1875 1.0625 C4.60592632 1.59382389 2.02288244 2.11284379 -0.5625 2.625 C-1.65691406 2.85219727 -1.65691406 2.85219727 -2.7734375 3.08398438 C-6.47807073 3.80807178 -9.20572322 4.16067231 -12.8125 3.0625 C-12.8125 2.4025 -12.8125 1.7425 -12.8125 1.0625 C-8.52952469 0.00630997 -4.38264354 -0.05452092 0 0 Z " fill="#0E509C" transform="translate(55.8125,21.9375)"/>
<path d="M0 0 C1.49731007 2.99462014 1.41447434 6.14648859 1.625 9.4375 C1.6765625 10.11876953 1.728125 10.80003906 1.78125 11.50195312 C1.99328292 14.68556504 2.01953065 16.94140806 1 20 C1.66 20.33 2.32 20.66 3 21 C2.01 21 1.02 21 0 21 C-0.09087891 20.11248047 -0.09087891 20.11248047 -0.18359375 19.20703125 C-0.68616596 14.2482074 -0.68616596 14.2482074 -1.6875 9.375 C-2.13843926 5.9478616 -1.07898268 3.23694805 0 0 Z " fill="#1860B2" transform="translate(37,47)"/>
<path d="M0 0 C0.99 0.495 0.99 0.495 2 1 C3.00496852 4.01490557 3.10335303 6.04181692 3.0625 9.1875 C3.05347656 10.08855469 3.04445313 10.98960938 3.03515625 11.91796875 C3.02355469 12.60503906 3.01195313 13.29210938 3 14 C2.01 14 1.02 14 0 14 C0 9.38 0 4.76 0 0 Z " fill="#BBDBFF" transform="translate(92,43)"/>
<path d="M0 0 C0.33 0 0.66 0 1 0 C1.02578125 0.66386719 1.0515625 1.32773437 1.078125 2.01171875 C1.35167685 6.27042372 1.60661171 9.31157049 3.75 13.0625 C6.2337134 15.2012532 7.76633979 15.73052832 11 16 C11 16.33 11 16.66 11 17 C4.64096386 17.48915663 4.64096386 17.48915663 1.625 15.1875 C-1.05088908 11.58534162 -1.06533435 9.11452721 -0.5625 4.8125 C-0.46066406 3.91144531 -0.35882813 3.01039062 -0.25390625 2.08203125 C-0.17011719 1.39496094 -0.08632812 0.70789062 0 0 Z " fill="#155BA9" transform="translate(14,48)"/>
<path d="M0 0 C1.67542976 0.28604898 3.34385343 0.61781233 5 1 C5 2.65 5 4.3 5 6 C3.35 6 1.7 6 0 6 C-0.38218767 4.34385343 -0.71395102 2.67542976 -1 1 C-0.67 0.67 -0.34 0.34 0 0 Z " fill="#2B6AB1" transform="translate(75,34)"/>
<path d="M0 0 C0.68191406 0.31582031 1.36382812 0.63164062 2.06640625 0.95703125 C7.86280846 3.72561692 7.86280846 3.72561692 9 6 C4.12384111 5.39048014 0.28022491 3.25498927 -4 1 C-5.33194058 0.33055508 -6.66488733 -0.33690395 -8 -1 C-4.22645332 -2.25784889 -3.54722932 -1.65537368 0 0 Z " fill="#D4E7FD" transform="translate(71,23)"/>
<path d="M0 0 C2.8203125 0.0234375 2.8203125 0.0234375 6.125 0.375 C7.22070312 0.48585938 8.31640625 0.59671875 9.4453125 0.7109375 C10.28835937 0.80632812 11.13140625 0.90171875 12 1 C12 1.33 12 1.66 12 2 C8.37 2.33 4.74 2.66 1 3 C0.34 4.98 -0.32 6.96 -1 9 C-1.66 8.34 -2.32 7.68 -3 7 C-2.67028521 3.70285207 -2.3773161 2.3773161 0 0 Z " fill="#2169BA" transform="translate(48,79)"/>
<path d="M0 0 C2.375 -0.1875 2.375 -0.1875 5 0 C5.66 0.99 6.32 1.98 7 3 C6.01 3.66 5.02 4.32 4 5 C3.27034634 7.56282742 3.27034634 7.56282742 3 10 C1.35 10 -0.3 10 -2 10 C-0.68 9.67 0.64 9.34 2 9 C1.814375 8.030625 1.62875 7.06125 1.4375 6.0625 C1.293125 5.051875 1.14875 4.04125 1 3 C1.33 2.67 1.66 2.34 2 2 C1.34 1.34 0.68 0.68 0 0 Z " fill="#82B8F5" transform="translate(78,31)"/>
<path d="M0 0 C-0.33 1.65 -0.66 3.3 -1 5 C-1.33 3.68 -1.66 2.36 -2 1 C-2.66 1 -3.32 1 -4 1 C-4 1.99 -4 2.98 -4 4 C-4.99 4 -5.98 4 -7 4 C-7 2.68 -7 1.36 -7 0 C-4.3333581 -1.33332095 -2.83319697 -0.67102033 0 0 Z " fill="#175DAB" transform="translate(24,82)"/>
<path d="M0 0 C-1.49097658 3.7952131 -3.75700849 5.61042731 -7 8 C-7.66 7.67 -8.32 7.34 -9 7 C-3.34042553 0 -3.34042553 0 0 0 Z " fill="#064183" transform="translate(74,60)"/>
<path d="M0 0 C-2.09782787 2.09782787 -3.3799207 2.6509396 -6.125 3.625 C-6.84945312 3.88539062 -7.57390625 4.14578125 -8.3203125 4.4140625 C-9.15175781 4.70410156 -9.15175781 4.70410156 -10 5 C-10.66 4.34 -11.32 3.68 -12 3 C-4.71428571 -1.71428571 -4.71428571 -1.71428571 0 0 Z " fill="#296FBF" transform="translate(45,25)"/>
<path d="M0 0 C1.65 0.33 3.3 0.66 5 1 C5.33 2.32 5.66 3.64 6 5 C5.34 5 4.68 5 4 5 C4 4.01 4 3.02 4 2 C3.01 2 2.02 2 1 2 C1 2.99 1 3.98 1 5 C1.66 5.33 2.32 5.66 3 6 C1.68 5.67 0.36 5.34 -1 5 C-0.67 3.35 -0.34 1.7 0 0 Z " fill="#0F54A2" transform="translate(30,75)"/>
<path d="M0 0 C0.33 0 0.66 0 1 0 C1.06058594 0.62648438 1.12117187 1.25296875 1.18359375 1.8984375 C1.26738281 2.71570313 1.35117188 3.53296875 1.4375 4.375 C1.51871094 5.18710937 1.59992187 5.99921875 1.68359375 6.8359375 C1.89090114 9.04272805 1.89090114 9.04272805 3 11 C1.68 10.67 0.36 10.34 -1 10 C-2.15837626 5.94568308 -1.83691257 3.78187881 0 0 Z " fill="#0E4482" transform="translate(14,21)"/>
<path d="M0 0 C4.95 0.33 9.9 0.66 15 1 C15 1.33 15 1.66 15 2 C7.08 2.495 7.08 2.495 -1 3 C-0.67 2.01 -0.34 1.02 0 0 Z " fill="#0B4991" transform="translate(44,15)"/>
<path d="M0 0 C0.33 1.32 0.66 2.64 1 4 C2.65 4.33 4.3 4.66 6 5 C5.67 5.66 5.34 6.32 5 7 C1.9375 7.625 1.9375 7.625 -1 8 C-0.67 5.36 -0.34 2.72 0 0 Z " fill="#9DCBFE" transform="translate(39,59)"/>
<path d="M0 0 C2.00720923 0.28674418 4.0085944 0.61866701 6 1 C6 1.33 6 1.66 6 2 C4.35 2 2.7 2 1 2 C0.67 3.32 0.34 4.64 0 6 C-0.99 6 -1.98 6 -3 6 C-1.125 1.125 -1.125 1.125 0 0 Z " fill="#3078C9" transform="translate(51,43)"/>
<path d="M0 0 C0.66 0.33 1.32 0.66 2 1 C1.34 2.32 0.68 3.64 0 5 C-1.32 5 -2.64 5 -4 5 C-4 4.34 -4 3.68 -4 3 C-2 1.375 -2 1.375 0 0 Z M-6 5 C-5.01 5.495 -5.01 5.495 -4 6 C-4.99 6.495 -4.99 6.495 -6 7 C-6 6.34 -6 5.68 -6 5 Z " fill="#154C8D" transform="translate(43,36)"/>
<path d="M0 0 C0.66 0 1.32 0 2 0 C2.33 0.99 2.66 1.98 3 3 C3.66 2.01 4.32 1.02 5 0 C4.67 1.65 4.34 3.3 4 5 C1.03 4.505 1.03 4.505 -2 4 C-1.34 3.67 -0.68 3.34 0 3 C0 2.01 0 1.02 0 0 Z " fill="#6BA3E2" transform="translate(20,83)"/>
<path d="M0 0 C2.81645906 3.18382329 3.72317437 5.75534029 4 10 C3.34 10.66 2.68 11.32 2 12 C0.40861915 7.82262526 -0.21278058 4.46839215 0 0 Z " fill="#A1CCFD" transform="translate(73,36)"/>
<path d="M0 0 C0.66 0.33 1.32 0.66 2 1 C0.88121617 2.17262904 -0.24523051 3.33795138 -1.375 4.5 C-2.00148438 5.1496875 -2.62796875 5.799375 -3.2734375 6.46875 C-5 8 -5 8 -7 8 C-5.50902342 4.2047869 -3.24299151 2.38957269 0 0 Z " fill="#B4D4F8" transform="translate(46,37)"/>
<path d="M0 0 C-2.95183101 2.95183101 -5.95511947 3.08663988 -10 4 C-9.67 3.01 -9.34 2.02 -9 1 C-5.8035914 -0.06546953 -3.34252724 -0.07427838 0 0 Z " fill="#053D7B" transform="translate(54,34)"/>
<path d="M0 0 C0.99 0.33 1.98 0.66 3 1 C2.34 2.32 1.68 3.64 1 5 C-2 5 -2 5 -4 4 C-2.68 2.68 -1.36 1.36 0 0 Z " fill="#0E4A8F" transform="translate(94,59)"/>
<path d="M0 0 C3.14737182 0.69941596 6.02588876 1.76078698 9 3 C7.3125 4.1875 7.3125 4.1875 5 5 C2.25 3.75 2.25 3.75 0 2 C0 1.34 0 0.68 0 0 Z " fill="#1A60B0" transform="translate(71,26)"/>
</svg>
