<?xml version="1.0" encoding="UTF-8"?>
<svg version="1.1" xmlns="http://www.w3.org/2000/svg" width="1400" height="600">
<path d="M0 0 C462 0 924 0 1400 0 C1400 198 1400 396 1400 600 C938 600 476 600 0 600 C0 402 0 204 0 0 Z " fill="#033FA1" transform="translate(0,0)"/>
<path d="M0 0 C-0.875 3.875 -0.875 3.875 -2 5 C-4.33297433 5.04092937 -6.66705225 5.04241723 -9 5 C-9.66 3.68 -10.32 2.36 -11 1 C-7.27569643 0.30710631 -3.78916254 -0.11144596 0 0 Z " fill="#003593" transform="translate(366,77)"/>
<path d="M0 0 C0.8125 1.6875 0.8125 1.6875 1 4 C-1.4375 6.75 -1.4375 6.75 -4 9 C-4 6.69 -4 4.38 -4 2 C-2.68 1.34 -1.36 0.68 0 0 Z " fill="#02328F" transform="translate(1041,202)"/>
<path d="M0 0 C0.66 0 1.32 0 2 0 C2.33 1.98 2.66 3.96 3 6 C0 6 0 6 -3 5 C-2 2 -2 2 0 0 Z " fill="#023593" transform="translate(1133,187)"/>
<path d="M0 0 C0.66 0.66 1.32 1.32 2 2 C1.7578125 4.3828125 1.7578125 4.3828125 1.125 7.125 C0.92132812 8.03507812 0.71765625 8.94515625 0.5078125 9.8828125 C0.34023438 10.58148438 0.17265625 11.28015625 0 12 C-0.33 12 -0.66 12 -1 12 C-1.02687279 10.18757948 -1.04633715 8.37504767 -1.0625 6.5625 C-1.07410156 5.55316406 -1.08570313 4.54382813 -1.09765625 3.50390625 C-1 1 -1 1 0 0 Z " fill="#0949A9" transform="translate(555,115)"/>
<path d="M0 0 C0.99 0.33 1.98 0.66 3 1 C1.6875 2.5 1.6875 2.5 0 4 C-0.99 4 -1.98 4 -3 4 C-2.67 3.01 -2.34 2.02 -2 1 C-1.34 0.67 -0.68 0.34 0 0 Z M3 0 C3.99 0.33 4.98 0.66 6 1 C5.01 1 4.02 1 3 1 C3 0.67 3 0.34 3 0 Z " fill="#063997" transform="translate(1055,161)"/>
<path d="M0 0 C4.16138263 -0.08159574 7.9472484 0.01751476 12 1 C12 1.33 12 1.66 12 2 C7.66666667 2 3.33333333 2 -1 2 C-0.67 1.34 -0.34 0.68 0 0 Z " fill="#003896" transform="translate(627,562)"/>
<path d="M0 0 C1.98 0.495 1.98 0.495 4 1 C3 4 3 4 0.9375 5.1875 C0.298125 5.455625 -0.34125 5.72375 -1 6 C-0.67 4.02 -0.34 2.04 0 0 Z " fill="#02338C" transform="translate(1079,187)"/>
</svg>
