<?xml version="1.0" encoding="UTF-8"?>
<svg version="1.1" xmlns="http://www.w3.org/2000/svg" width="160" height="90">
<path d="M0 0 C2.4375 0.375 2.4375 0.375 5 1 C5.33 1.66 5.66 2.32 6 3 C6.350625 2.484375 6.70125 1.96875 7.0625 1.4375 C9 0 9 0 12.3125 0.375 C13.529375 0.58125 14.74625 0.7875 16 1 C18.00720923 0.71325582 20.0085944 0.38133299 22 0 C23.99961564 -0.03920815 26.00049364 -0.04443347 28 0 C28.99 0 29.98 0 31 0 C33.33333333 0 35.66666667 0 38 0 C38.9796875 -0.02320313 39.959375 -0.04640625 40.96875 -0.0703125 C42.1340625 -0.08835938 43.299375 -0.10640625 44.5 -0.125 C45.6653125 -0.14820313 46.830625 -0.17140625 48.03125 -0.1953125 C51 0 51 0 53 2 C53.33 1.34 53.66 0.68 54 0 C63.9 0 73.8 0 84 0 C84.495 1.98 84.495 1.98 85 4 C84.01 4.33 83.02 4.66 82 5 C82 8.63 82 12.26 82 16 C80.68 16 79.36 16 78 16 C78 12.37 78 8.74 78 5 C77.34 5 76.68 5 76 5 C76 8.63 76 12.26 76 16 C68.74 16 61.48 16 54 16 C54 15.01 54 14.02 54 13 C53.01 13 52.02 13 51 13 C51 13.99 51 14.98 51 16 C43.66666667 16 36.33333333 16 29 16 C28.0925 16.01160156 27.185 16.02320312 26.25 16.03515625 C24.64125 16.04869141 24.64125 16.04869141 23 16.0625 C21.9275 16.07410156 20.855 16.08570312 19.75 16.09765625 C17 16 17 16 15 15 C14.01 15.495 14.01 15.495 13 16 C10.28239892 16.07181821 7.59140612 16.09299506 4.875 16.0625 C4.12089844 16.05798828 3.36679687 16.05347656 2.58984375 16.04882812 C0.72652873 16.03703499 -1.13674555 16.01909942 -3 16 C-2.68954268 14.0830014 -2.37655329 12.16641277 -2.0625 10.25 C-1.88847656 9.18265625 -1.71445312 8.1153125 -1.53515625 7.015625 C-1.11295829 4.63652407 -0.62797116 2.33084789 0 0 Z M58 1 C59 3 59 3 59 3 Z M33 4 C34 7 34 7 34 7 Z M58 4 C58 6.97 58 9.94 58 13 C58.33 13 58.66 13 59 13 C59 10.03 59 7.06 59 4 C58.67 4 58.34 4 58 4 Z M63 4 C64.98 4.99 64.98 4.99 67 6 C67 5.34 67 4.68 67 4 C65.68 4 64.36 4 63 4 Z M15 6 C15 6.99 15 7.98 15 9 C15.66 8.67 16.32 8.34 17 8 C16.34 7.34 15.68 6.68 15 6 Z M66 7 C66 7.99 66 8.98 66 10 C65.01 10 64.02 10 63 10 C63 10.66 63 11.32 63 12 C64.32 12 65.64 12 67 12 C67 10.35 67 8.7 67 7 C66.67 7 66.34 7 66 7 Z " fill="#FFFFFF" transform="translate(37,60)"/>
<path d="M0 0 C2.20722293 1.75279468 3.7409608 3.22698586 5.125 5.6875 C4.795 6.6775 4.465 7.6675 4.125 8.6875 C3.44050781 8.37039062 2.75601563 8.05328125 2.05078125 7.7265625 C-1.27250379 6.54633043 -4.17254535 6.27552755 -7.6875 6.0625 C-8.84894531 5.98773438 -10.01039062 5.91296875 -11.20703125 5.8359375 C-12.08746094 5.78695313 -12.96789063 5.73796875 -13.875 5.6875 C-13.86976318 6.65163818 -13.86452637 7.61577637 -13.85913086 8.60913086 C-13.84107882 12.17422564 -13.82956726 15.73931636 -13.82006836 19.30444336 C-13.8150286 20.84969766 -13.8081968 22.39494716 -13.79956055 23.94018555 C-13.78747924 26.15675029 -13.78176827 28.37325218 -13.77734375 30.58984375 C-13.77218246 31.2846434 -13.76702118 31.97944305 -13.76170349 32.69529724 C-13.76150723 34.3597933 -13.81310871 36.02415499 -13.875 37.6875 C-14.37 38.1825 -14.37 38.1825 -14.875 38.6875 C-17.21444736 38.40019945 -19.5489143 38.06813221 -21.875 37.6875 C-22.85748524 33.6347484 -22.95659574 29.84888263 -22.875 25.6875 C-23.535 25.6875 -24.195 25.6875 -24.875 25.6875 C-24.41677532 22.21808454 -23.98368317 19.01354951 -22.875 15.6875 C-22.91625 14.594375 -22.9575 13.50125 -23 12.375 C-22.85925009 8.22287761 -22.11330654 6.16073428 -19.875 2.6875 C-13.74510315 -2.98265459 -7.51829941 -3.43226712 0 0 Z " fill="#FFFFFF" transform="translate(72.875,8.3125)"/>
<path d="M0 0 C3.50551367 3.10715985 4.7765062 5.9001724 5.75 10.4375 C5.78824623 12.77051986 5.79574284 15.10461508 5.75 17.4375 C6.41 18.4275 7.07 19.4175 7.75 20.4375 C7.875 23.125 7.875 23.125 7.75 25.4375 C7.09 25.4375 6.43 25.4375 5.75 25.4375 C5.42 29.0675 5.09 32.6975 4.75 36.4375 C2.44 37.0975 0.13 37.7575 -2.25 38.4375 C-3.25 37.4375 -3.25 37.4375 -3.36352539 34.38647461 C-3.36336634 33.03758729 -3.35767612 31.68869386 -3.34765625 30.33984375 C-3.3462413 29.63098526 -3.34482635 28.92212677 -3.34336853 28.19178772 C-3.33775443 25.91948288 -3.32519963 23.64727525 -3.3125 21.375 C-3.30748681 19.83789204 -3.30292359 18.30078255 -3.29882812 16.76367188 C-3.28778042 12.98824358 -3.27050641 9.21288829 -3.25 5.4375 C-5.66760876 5.55176509 -8.08347218 5.67849661 -10.5 5.8125 C-11.18191406 5.8434375 -11.86382812 5.874375 -12.56640625 5.90625 C-16.23739038 6.12009374 -19.11251616 6.44827055 -22.25 8.4375 C-22.00006984 5.06344278 -21.01721161 4.2152929 -18.5 1.8125 C-12.23962063 -3.00546417 -7.29212488 -3.50582927 0 0 Z " fill="#FFFFFF" transform="translate(102.25,8.5625)"/>
<path d="M0 0 C4.29183178 -0.05372251 8.58299786 -0.0935403 12.875 -0.125 C14.09832031 -0.14175781 15.32164062 -0.15851562 16.58203125 -0.17578125 C17.74863281 -0.18222656 18.91523438 -0.18867187 20.1171875 -0.1953125 C21.19597168 -0.20578613 22.27475586 -0.21625977 23.38623047 -0.22705078 C26 0 26 0 28 2 C28.265625 4.75 28.265625 4.75 28.25 8 C28.25515625 9.0725 28.2603125 10.145 28.265625 11.25 C28 14 28 14 26 16 C23.06640625 16.23046875 23.06640625 16.23046875 19.5625 16.1875 C17.83193359 16.17783203 17.83193359 16.17783203 16.06640625 16.16796875 C13 16 13 16 10 15 C7.94603274 15.40929986 7.94603274 15.40929986 6 16 C4 16 2 16 0 16 C0 10.72 0 5.44 0 0 Z " fill="#FFFFFF" transform="translate(125,60)"/>
<path d="M0 0 C1.32 0 2.64 0 4 0 C4 0.99 4 1.98 4 3 C4.66 3 5.32 3 6 3 C6.33 2.01 6.66 1.02 7 0 C12.28 0 17.56 0 23 0 C23 1.32 23 2.64 23 4 C22.01 4.495 22.01 4.495 21 5 C21.33 6.65 21.66 8.3 22 10 C21.01 10 20.02 10 19 10 C19 10.66 19 11.32 19 12 C20.32 12 21.64 12 23 12 C23 13.32 23 14.64 23 16 C16.4 16 9.8 16 3 16 C3 15.34 3 14.68 3 14 C2.34 14 1.68 14 1 14 C1 14.66 1 15.32 1 16 C-0.65 15.67 -2.3 15.34 -4 15 C-3.5253725 12.6865641 -3.04517721 10.37426981 -2.5625 8.0625 C-2.29566406 6.77472656 -2.02882813 5.48695312 -1.75390625 4.16015625 C-1 1 -1 1 0 0 Z M10 6 C10.33 7.32 10.66 8.64 11 10 C11.99 9.67 12.98 9.34 14 9 C14 8.34 14 7.68 14 7 C12.68 6.67 11.36 6.34 10 6 Z " fill="#FFFFFF" transform="translate(9,60)"/>
<path d="M0 0 C2.27057377 -0.05398987 4.54151288 -0.09278742 6.8125 -0.125 C8.07707031 -0.14820313 9.34164062 -0.17140625 10.64453125 -0.1953125 C14 0 14 0 17 2 C17 2.66 17 3.32 17 4 C17.66 4 18.32 4 19 4 C19.33 3.01 19.66 2.02 20 1 C22.88415883 -0.44207941 25.41721528 -0.09394887 28.625 -0.0625 C29.81351563 -0.05347656 31.00203125 -0.04445312 32.2265625 -0.03515625 C33.14179687 -0.02355469 34.05703125 -0.01195312 35 0 C34.67 2.31 34.34 4.62 34 7 C23.44 7 12.88 7 2 7 C1.34 4.69 0.68 2.38 0 0 Z " fill="#FFFFFF" transform="translate(61,47)"/>
<path d="M0 0 C4.62 0 9.24 0 14 0 C15 4 15 4 14.5 5.9375 C13.86879853 8.54120606 14.46663402 10.39984086 15 13 C14.67 13.99 14.34 14.98 14 16 C9.71 16 5.42 16 1 16 C-0.46153846 8.69230769 -0.46153846 8.69230769 0.5625 4.9375 C1.22077388 2.79995606 1.22077388 2.79995606 0 0 Z " fill="#FFFFFF" transform="translate(61,22)"/>
<path d="M0 0 C4.29 0 8.58 0 13 0 C13 2.64 13 5.28 13 8 C8.71 8 4.42 8 0 8 C-1 3 -1 3 0 0 Z " fill="#FFFFFF" transform="translate(83,30)"/>
<path d="M0 0 C4.62 0 9.24 0 14 0 C14 0.99 14 1.98 14 3 C9.38 3 4.76 3 0 3 C0 2.01 0 1.02 0 0 Z " fill="#FFFFFF" transform="translate(82,22)"/>
<path d="M0 0 C4.29 0 8.58 0 13 0 C13 0.99 13 1.98 13 3 C8.38 3 3.76 3 -1 3 C-0.67 2.01 -0.34 1.02 0 0 Z " fill="#FFFFFF" transform="translate(83,26)"/>
</svg>
